<svg aria-hidden="true" style="width:0;height:0;position:absolute;overflow:hidden" xmlns="http://www.w3.org/2000/svg"><defs><symbol id="logo-icon" viewBox="0 0 32 32"><path fill="#f6f6f6" style="fill:var(--color2,#f6f6f6)" d="m0 0 16.343 16.172L32 32V0H0z"/><path fill="#f6f6f6" style="fill:var(--color2,#f6f6f6)" d="M4.457 4.228 16.4 16.057l11.257 11.485h-23.2V4.227z"/><path fill="#4f2ee8" style="fill:var(--color3,#4f2ee8)" d="M27.733 27.619 15.789 15.79 4.533 4.305h23.2V27.62z"/><path fill="#4f2ee8" style="fill:var(--color3,#4f2ee8)" d="m9.257 9.028 13.6 13.601h-13.6v-13.6z"/><path fill="#f6f6f6" style="fill:var(--color2,#f6f6f6)" d="m9.257 9.028 13.6 13.601v-13.6h-13.6z"/></symbol><symbol id="shopping-bag-icon" viewBox="0 0 32 32"><path d="M25.333 9.333h-4V8a5.333 5.333 0 0 0-10.666 0v1.333H6.665c-.736 0-1.333.597-1.333 1.333V25.334a4 4 0 0 0 4 4h13.334a4 4 0 0 0 4-4V10.666c0-.736-.597-1.333-1.333-1.333h-.002zM13.333 8a2.667 2.667 0 1 1 5.334 0v1.333h-5.334V8zM24 25.333v.002c0 .736-.597 1.333-1.333 1.333H9.333A1.333 1.333 0 0 1 8 25.335V12h2.667v1.333a1.333 1.333 0 0 0 2.666 0V12h5.334v1.333a1.336 1.336 0 0 0 2.666.003V12H24v13.333z"/></symbol><symbol id="burger-menu-icon" viewBox="0 0 32 32"><path stroke-linejoin="round" stroke-linecap="round" stroke-width="2.286" d="M22.667 13.333H4M28 8H4M28 18.667H4M22.667 24H4"/></symbol><symbol id="x-close-icon" viewBox="0 0 32 32"><path stroke-linejoin="round" stroke-linecap="round" stroke-width="3.429" d="M24 8 8 24M8 8l16 16"/></symbol><symbol id="arrow-narrow-right-icon" viewBox="0 0 32 32"><path stroke-linejoin="round" stroke-linecap="round" stroke-width="3.2" d="M5.333 16h21.333m.001 0-8-8m8 8-8 8"/></symbol><symbol id="arrow_narrow_right_icon" viewBox="0 0 43 32"><path fill="none" stroke="#eac645" style="stroke:var(--color4,#eac645)" stroke-linejoin="round" stroke-linecap="round" stroke-width="5.333" d="M3.555 16h35.556m0 0L25.778 2.667M39.111 16 25.778 29.333"/></symbol><symbol id="mobile_menu_icon" viewBox="0 0 32 32"><path stroke-linejoin="round" stroke-linecap="round" stroke-width="2.286" d="M22.667 13.333H4M28 8H4M28 18.667H4M22.667 24H4"/></symbol><symbol id="mail_icon" viewBox="0 0 41 32"><path fill="none" stroke="#111" style="stroke:var(--color1,#111)" stroke-linejoin="round" stroke-linecap="round" stroke-width="3.429" d="M36.857 26.286 25.47 16m-9.797 0L4.286 26.286M3.429 7.429l13.998 9.799c1.134.793 1.701 1.189 2.315 1.342a3.4 3.4 0 0 0 1.659 0c.617-.153 1.182-.549 2.315-1.342l13.998-9.799M11.657 29.714h17.829c2.88 0 4.32 0 5.419-.56a5.146 5.146 0 0 0 2.249-2.249c.56-1.097.56-2.537.56-5.419V10.515c0-2.88 0-4.32-.56-5.419a5.184 5.184 0 0 0-2.218-2.236l-.029-.014c-1.102-.56-2.542-.56-5.422-.56H11.656c-2.88 0-4.32 0-5.419.56a5.188 5.188 0 0 0-2.236 2.22l-.014.029c-.56 1.097-.56 2.537-.56 5.419v10.971c0 2.88 0 4.32.56 5.419a5.146 5.146 0 0 0 2.249 2.249c1.097.56 2.537.56 5.419.56z"/></symbol><symbol id="password_icon" viewBox="0 0 32 32"><path fill="none" stroke="#111" style="stroke:var(--color1,#111)" stroke-linejoin="round" stroke-linecap="round" stroke-width="3" d="M23.5 14.5V10a7.5 7.5 0 0 0-15 0v4.5m1.2 15h12.6c2.52 0 3.78 0 4.742-.49a4.5 4.5 0 0 0 1.968-1.968c.49-.96.49-2.22.49-4.742v-.6c0-2.52 0-3.78-.49-4.742a4.537 4.537 0 0 0-1.943-1.956l-.025-.012c-.96-.49-2.22-.49-4.742-.49H9.7c-2.52 0-3.78 0-4.742.49a4.537 4.537 0 0 0-1.956 1.943l-.012.025c-.49.96-.49 2.22-.49 4.742v.6c0 2.52 0 3.78.49 4.742a4.5 4.5 0 0 0 1.968 1.968c.96.49 2.22.49 4.742.49z"/></symbol><symbol id="close_icon" viewBox="0 0 32 32"><path fill="none" stroke="#111" style="stroke:var(--color1,#111)" stroke-linejoin="round" stroke-linecap="round" stroke-width="5.333" d="M29.333 2.667 2.666 29.334m.001-26.667 26.667 26.667"/></symbol><symbol id="amazon-icon" viewBox="0 0 64 32"><path d="M38.42 21.708c-3.093 2.284-7.591 3.504-11.459 3.504-5.423 0-10.306-2.005-13.999-5.342-.29-.262-.03-.62.318-.416 3.986 2.32 8.915 3.715 14.005 3.715 3.434 0 7.211-.71 10.684-2.185.525-.223.963.343.45.724zm1.289-1.473c-.395-.507-2.613-.239-3.617-.121-.304.037-.35-.228-.077-.418 1.771-1.247 4.677-.887 5.017-.469s-.088 3.333-1.753 4.724c-.256.213-.499.1-.386-.183.373-.933 1.212-3.025.815-3.533zM36.166 10.894c0 .181.14.304.314.304h2.829l-3.257 4.671c-.197.3-.199.636-.199.834v1.228c0 .176.197.381.386.278 1.845-.98 4.062-.884 5.732-.009.205.107.4-.1.4-.276v-1.293c-.021-.174-.075-.351-.288-.471-.947-.534-2.049-.69-3.094-.664l2.811-4.014c.259-.36.406-.588.409-.762V9.683a.303.303 0 0 0-.314-.307h-5.434a.3.3 0 0 0-.299.299v1.22zm-19.805 7.557a.312.312 0 0 0 .318-.307v-4.491c0-.98-.046-2.336 1.14-2.336 1.173 0 1.017 1.391 1.017 2.336l.002 4.491c0 .163.13.295.297.307h1.653a.312.312 0 0 0 .318-.307v-4.491c0-.481-.017-1.195.153-1.623s.587-.694.987-.694c.478 0 .848.161.971.729.078.339.046 1.23.046 1.588v4.496c0 .163.137.295.297.307h1.653a.312.312 0 0 0 .318-.307l.004-5.347c0-.908.107-1.943-.416-2.656-.462-.641-1.219-.926-1.91-.926-.973 0-1.88.499-2.28 1.57-.465-1.07-1.11-1.57-2.143-1.57-1.017 0-1.771.499-2.173 1.57h-.03V9.683a.312.312 0 0 0-.3-.283h-1.539a.31.31 0 0 0-.318.304v8.471a.312.312 0 0 0 .295.281h1.65zm30.517-9.224c2.449 0 3.775 2.103 3.775 4.778 0 2.584-1.465 4.634-3.775 4.634-2.4 0-3.715-2.103-3.715-4.724 0-2.637 1.326-4.693 3.715-4.693zm.014 1.723c-1.216 0-1.293 1.658-1.293 2.691s-.016 3.245 1.279 3.245c1.279 0 1.34-1.783 1.34-2.869 0-.715-.03-1.57-.245-2.247-.186-.59-.555-.82-1.079-.82zm6.931 7.507a.317.317 0 0 0 .323-.307v-4.562c0-.571.03-1.087.262-1.604.189-.408.558-.677.96-.677 1.14 0 1.033 1.356 1.033 2.283v4.601a.312.312 0 0 0 .292.267h1.652a.317.317 0 0 0 .318-.267v-5.333c0-.82 0-1.96-.427-2.637-.465-.732-1.18-.998-1.927-.998-1.14 0-1.788.553-2.25 1.711h-.03V9.638a.317.317 0 0 0-.295-.237h-1.531a.313.313 0 0 0-.318.276l.002 8.474c0 .163.137.295.297.307h1.644zm-21.988-4.054v-.357c-1.195 0-2.456.255-2.456 1.662 0 .713.372 1.196 1.005 1.196.462 0 .88-.286 1.142-.75.325-.577.309-1.107.309-1.75zm1.664 4.024a.34.34 0 0 1-.389.039c-.548-.455-.647-.667-.947-1.1-.906.924-1.548 1.2-2.721 1.2-1.39 0-2.47-.857-2.47-2.572 0-1.34.724-2.252 1.76-2.698.896-.395 2.147-.464 3.104-.573v-.213c0-.393.03-.857-.203-1.196-.199-.304-.585-.429-.926-.429-.629 0-1.189.323-1.326.992-.028.149-.137.295-.288.302l-1.6-.172c-.134-.03-.285-.139-.245-.347.367-1.941 2.123-2.526 3.691-2.526.803 0 1.853.213 2.486.821.803.75.726 1.75.726 2.839v2.572c0 .773.32 1.112.622 1.531.105.149.128.327-.007.439l-1.262 1.101-.002-.005zm-23.303-4.018v-.357c-1.193 0-2.453.255-2.453 1.662 0 .713.369 1.196 1.003 1.196.465 0 .88-.286 1.142-.75.325-.577.309-1.107.309-1.75zm1.664 4.023a.34.34 0 0 1-.389.039c-.548-.455-.64-.667-.947-1.1-.906.924-1.547 1.2-2.721 1.2-1.388.001-2.469-.856-2.469-2.571 0-1.34.726-2.252 1.76-2.698.896-.395 2.147-.464 3.104-.573v-.213c0-.393.03-.857-.199-1.196-.203-.304-.587-.429-.926-.429-.629 0-1.191.323-1.333.992-.028.149-.137.295-.285.302l-1.602-.172c-.134-.03-.283-.139-.245-.347.369-1.941 2.123-2.526 3.691-2.526.803 0 1.853.213 2.486.821.803.75.726 1.75.726 2.839v2.572c0 .773.32 1.112.622 1.531.107.149.13.327-.005.439l-1.259 1.094-.005-.005z"/></symbol><symbol id="ibooks_icon" viewBox="0 0 32 32"><path d="M7.467 0h17.067c4.17 0 7.467 3.297 7.467 7.467v17.067c0 4.17-3.297 7.467-7.467 7.467H7.467A7.467 7.467 0 0 1 0 24.534V7.467C0 3.297 3.297 0 7.467 0z"/><path d="M15.515 25.988c-.776-2.618-2.521-3.879-5.139-3.879-2.909 0-3.879 1.455-4.655 1.455-.291 0-.388-.097-.388-.291V10.958c0-1.455 1.939-2.909 5.139-2.909 3.297 0 5.139 2.424 5.139 4.073zm.776 0V12.121c0-1.649 1.842-4.17 5.139-4.17 3.2 0 5.139 1.552 5.139 3.006v12.315c0 .194-.194.291-.485.291-.776 0-1.745-1.455-4.558-1.455-2.618 0-4.364 1.261-5.236 3.879z"/></symbol><symbol id="ukrainian_gerb_icon" viewBox="0 0 20 32"><path fill="#fff" style="fill:var(--color1,#fff)" d="M9.005 30.888A8.656 8.656 0 0 1 5.6 25.592l-.009-.055H0V2.42c2.991 1.443 5.153 4.6 5.388 7.876l.845 6.493-.407-.045c-.893 0-1.676.812-1.676 1.608 0 .752.595 1.383 1.379 1.548l1.018.226c1.675-3.051 2.63-6.042 2.63-8.973 0-2.646-.36-5.291-.422-7.997 0-1.202.485-2.3 1.253-3.156.783.857 1.253 1.954 1.253 3.156 0 2.706-.423 5.351-.423 7.997 0 2.93.955 5.922 2.631 8.973l1.018-.226c.783-.165 1.378-.811 1.378-1.548 0-.811-.783-1.608-1.675-1.608l-.423.06.845-6.493C15.035 7.034 17.01 3.863 20 2.435v23.117h-5.576c-.422 2.18-1.613 4.148-3.414 5.35-.423.286-.783.632-1.018 1.098-.22-.466-.58-.812-.987-1.112zM2.647 17.556c.235-.857.893-1.609 1.738-2.075l-.658-5.35a8.283 8.283 0 0 0-2.043-4.382l.007.008V17.54h.956v.015zm2.819 6.373c0-.812.125-1.548.298-2.3l-.784-.18c-1.143-.346-2.036-1.203-2.333-2.3H1.69v4.78h3.775zm3.712 0c0-.977-.783-1.834-1.801-1.954-.173.63-.298 1.262-.298 1.954h2.099zm0 1.623H7.314c.298 1.262.955 2.42 1.864 3.397v-3.397zm2.63-5.005c-.72-1.263-1.377-2.585-1.8-3.968-.423 1.383-1.08 2.705-1.801 3.968.72.165 1.315.631 1.8 1.157.486-.526 1.082-.992 1.802-1.157zm1.144 3.382c0-.692-.125-1.323-.297-1.954-1.018.12-1.801.977-1.801 1.954h2.098zm-.235 1.623h-1.863v3.397c.908-.992 1.566-2.135 1.863-3.397zm5.623-1.623v-4.78h-.956c-.297 1.097-1.206 1.954-2.333 2.3l-.783.18c.172.752.297 1.488.297 2.3h3.775zm0-6.373v-11.8c-1.08 1.203-1.864 2.706-2.036 4.375l-.658 5.35c.846.466 1.504 1.203 1.738 2.075h.956z"/></symbol><symbol id="icon_scroll_up" viewBox="0 0 32 32"><path d="M15.053 17.867a1.334 1.334 0 0 0 1.894 0l6.107-6.12a1.344 1.344 0 0 1 .947-.395 1.331 1.331 0 0 1 .947.395 1.336 1.336 0 0 1 0 1.88l-6.12 6.12a4.001 4.001 0 0 1-5.654 0l-6.12-6.12a1.337 1.337 0 0 1 .434-2.172 1.331 1.331 0 0 1 1.46.292l6.107 6.12z"/></symbol><symbol id="safe_children_icon" viewBox="0 0 153 32"><path d="M41.878 12.97a.696.696 0 0 1-.221.275l-.002.001a.532.532 0 0 1-.291.092h-.001a.5.5 0 0 1-.361-.13c-.13-.061-.268-.123-.437-.238l-.545-.245a1.855 1.855 0 0 0-.706-.1 1.526 1.526 0 0 0-1.035.291.997.997 0 0 0-.337.805c0 .192.054.383.222.56.161.169.33.261.552.353.253.115.483.23.767.276l.859.284c.634.204 1.18.528 1.637.946l-.003-.003c.222.207.414.491.537.798.151.372.238.804.238 1.256 0 .474-.096.925-.27 1.336l.008-.022a3.35 3.35 0 0 1-1.91 1.91l-.023.008a4.566 4.566 0 0 1-2.623.153 4.207 4.207 0 0 1-1.005-.291 4.437 4.437 0 0 1-1.641-1.028l.759-1.151a.763.763 0 0 1 .212-.229l.002-.002a.742.742 0 0 1 .337-.077.87.87 0 0 1 .43.123l.491.322c.215.1.407.215.652.291.268.13.575.146.867.146.383.023.744-.077 1.051-.307a1.15 1.15 0 0 0 .383-.94v.004a.848.848 0 0 0-.23-.598 1.12 1.12 0 0 0-.529-.396l-.008-.002-.767-.284-.874-.253a9.696 9.696 0 0 1-.882-.345 3.388 3.388 0 0 1-.767-.568 2.803 2.803 0 0 1-.537-.851 4.285 4.285 0 0 1-.215-1.281c0-.836.353-1.634.959-2.201a3.963 3.963 0 0 1 2.636-.997h.052-.003c.92 0 1.825.23 2.639.667.238.123.43.291.637.46zm7.11 8.606c-.153 0-.307-.023-.453-.077a.719.719 0 0 1-.282-.348l-.002-.005-.161-.414a6.27 6.27 0 0 1-.997.705l-.031.016-.575.192c-.215.046-.468.046-.69.046-.291 0-.621-.023-.92-.123a2.63 2.63 0 0 1-.719-.403l.005.004a1.533 1.533 0 0 1-.437-.644 2.083 2.083 0 0 1 .031-1.687c.161-.307.407-.575.69-.767a3.967 3.967 0 0 1 1.276-.585l.028-.006a7.043 7.043 0 0 1 2.109-.214l-.016-.001v-.33a1.448 1.448 0 0 0-.268-.974 1.031 1.031 0 0 0-.736-.307l-.032.001h.002-.014c-.222 0-.436.034-.637.096l.015-.004a2.088 2.088 0 0 0-.422.192c-.13.084-.261.123-.383.192-.129.052-.28.083-.437.084h-.001a.629.629 0 0 1-.383-.115.934.934 0 0 1-.245-.276l-.407-.69c.437-.383.92-.69 1.473-.897.575-.184 1.151-.299 1.749-.299.407 0 .821.054 1.189.23.36.121.664.331.895.603l.002.003c.253.284.445.591.591.943.123.383.176.767.176 1.189v4.656h-.982zm-2.531-1.358a2.37 2.37 0 0 0 .753-.128l-.017.005c.257-.131.473-.303.65-.511l.002-.003v-1.02c-.361 0-.729.038-1.089.084-.253.031-.46.115-.69.222a.768.768 0 0 0-.343.303l-.002.003c-.046.115-.115.23-.115.353a.701.701 0 0 0 .23.568.906.906 0 0 0 .619.122l-.005.001zm8.974 1.358h-1.987l-2.876-7.471h1.833a.58.58 0 0 1 .383.115c.115.061.161.169.215.268l1.012 3.352c.077.284.169.537.215.805l.192.767.192-.767.261-.805 1.043-3.352a.461.461 0 0 1 .22-.267l.002-.001a.61.61 0 0 1 .384-.115h-.001 1.749zm6.727-7.586c.476 0 .897.092 1.342.23.383.13.744.361 1.035.667.307.307.552.667.683 1.074.159.429.252.924.253 1.441v.001c0 .13 0 .276-.038.43a.433.433 0 0 1-.077.238.287.287 0 0 1-.153.13c-.092.038-.169.038-.253.038h-4.249c.023.499.207.997.56 1.358.337.268.744.43 1.181.407.231 0 .456-.028.671-.081l-.019.004c.161-.061.33-.138.483-.23.146-.077.284-.13.422-.215a.873.873 0 0 1 .384-.077c.153 0 .299.046.399.192l.637.79c-.21.25-.453.463-.724.637l-.013.008a4.47 4.47 0 0 1-1.641.583 4.353 4.353 0 0 1-2.27-.217l.03.01a3.331 3.331 0 0 1-1.956-1.956l-.007-.023a4.583 4.583 0 0 1-.312-1.676c0-.531.089-1.042.253-1.517l-.01.033a3.46 3.46 0 0 1 3.397-2.278h-.007zm.061 1.565c-.353-.038-.698.1-.982.353-.268.307-.437.667-.46 1.051h2.761c0-.169-.038-.36-.061-.522a1.207 1.207 0 0 0-.622-.779l-.007-.003a1.661 1.661 0 0 0-.637-.1zm10.048 6.136c-.337 0-.644-.046-.936-.161a1.795 1.795 0 0 1-1.089-1.143 2.47 2.47 0 0 1-.132-.802l.001-.084v.004-3.835h-.652a.4.4 0 0 1-.399-.399v-.92l1.181-.23.437-1.81a.417.417 0 0 1 .483-.337h1.15v2.178h1.787v1.534h-1.787v3.712c0 .161.023.291.13.407a.461.461 0 0 0 .353.169c.092 0 .146 0 .192-.031.069-.023.115-.023.146-.061l.1-.054c.038-.023.092-.023.138-.023.054 0 .115 0 .169.054l.13.138.667 1.051c-.307.23-.606.384-.966.514a5.292 5.292 0 0 1-1.112.123zm3.068-.115V10.823h2.209v3.973a2.975 2.975 0 0 1 1.993-.79h.002c.361 0 .744.054 1.066.23.312.135.575.327.788.565l.002.002a3.056 3.056 0 0 1 .652 2.031v-.006 4.732h-2.201v-4.709c.031-.291-.084-.598-.253-.859a.864.864 0 0 0-.732-.306h.003c-.261 0-.476.069-.683.184-.23.1-.445.253-.614.407v5.308zm11.428-7.586c.476 0 .897.092 1.342.23.406.142.751.371 1.026.666l.001.001c.307.307.552.667.69 1.074.159.429.252.924.253 1.441v.001c0 .13 0 .276-.038.43a.433.433 0 0 1-.077.238.291.291 0 0 1-.169.13c-.084.038-.161.038-.253.038h-4.219c.02.529.236 1.004.576 1.358l-.001-.001c.322.268.729.43 1.166.407.23 0 .445-.023.66-.077l.491-.23c.123-.077.268-.13.406-.215a.947.947 0 0 1 .383-.077c.169 0 .291.046.406.192l.629.79a2.97 2.97 0 0 1-.744.644 4.256 4.256 0 0 1-1.634.583 4.204 4.204 0 0 1-2.24-.192 3.27 3.27 0 0 1-1.956-1.994 4.654 4.654 0 0 1-.298-1.656c0-.538.089-1.055.254-1.537l-.01.033a3.459 3.459 0 0 1 3.246-2.28l.111.002h-.005zm.054 1.565c-.345-.038-.706.1-.974.353-.276.307-.445.667-.468 1.051h2.761c0-.169-.031-.36-.054-.522a1.755 1.755 0 0 0-.215-.453 1.213 1.213 0 0 0-.415-.327l-.007-.003a1.598 1.598 0 0 0-.629-.1zm14.734 3.237c.054 0 .1 0 .153.023.061.023.13.054.169.115l.982 1.051a4.16 4.16 0 0 1-1.585 1.27l-.026.011c-.67.285-1.45.45-2.268.45a5.912 5.912 0 0 1-2.251-.442l.04.014a5.02 5.02 0 0 1-2.651-2.872l-.011-.035a6.436 6.436 0 0 1-.355-2.13c0-.819.15-1.603.424-2.326l-.015.045a5.4 5.4 0 0 1 1.151-1.742l-.001.001a4.596 4.596 0 0 1 1.709-1.117l.032-.01a6.108 6.108 0 0 1 3.375-.307c.337.054.683.153.989.307.291.1.575.261.844.437.253.169.499.361.69.575l-.859 1.15a.586.586 0 0 1-.482.268h-.001a.69.69 0 0 1-.245-.061l-.253-.13-.299-.192a2.82 2.82 0 0 0-.848-.342l-.019-.004c-.222-.054-.437-.054-.683-.054l-.077-.001a2.854 2.854 0 0 0-2.725 2.006l-.005.02a4.695 4.695 0 0 0 .01 2.94l-.01-.033c.138.384.33.767.598 1.081a2.558 2.558 0 0 0 1.935.883l.062-.001h-.003c.215 0 .406 0 .598-.023.169-.023.353-.054.514-.115.169-.054.307-.13.476-.215.166-.097.31-.209.437-.337a.39.39 0 0 1 .176-.115zm2.432 2.784V10.823h2.201v3.973a2.975 2.975 0 0 1 1.993-.79h.002c.353 0 .736.054 1.058.23.315.134.581.326.796.566l.002.002a3.05 3.05 0 0 1 .652 2.031v-.006 4.732h-2.201v-4.709c.023-.291-.092-.598-.261-.859a.883.883 0 0 0-.67-.309l-.061.002h.003c-.253 0-.468.069-.675.184-.23.1-.445.253-.614.407v5.308zm10.868-9.48c0 .153-.015.322-.1.499a1.436 1.436 0 0 1-1.256.798h-.001a1.04 1.04 0 0 1-.483-.115 1.133 1.133 0 0 1-.406-.268 1.079 1.079 0 0 1-.281-.407l-.002-.007a1.037 1.037 0 0 1-.1-.506c0-.153.023-.361.1-.499.061-.153.153-.307.284-.414.115-.115.253-.207.406-.268a1.067 1.067 0 0 1 1.018.003l-.006-.003c.314.13.56.383.698.683.115.138.13.307.13.506zm-.245 2.048v7.471h-2.186v-7.486zm4.218-3.329v10.761H116.6V10.823zm7.003 10.761a.847.847 0 0 1-.361-.077c-.1-.046-.169-.161-.192-.276l-.169-.583c-.123.169-.291.307-.46.453-.161.13-.314.253-.506.322a2.674 2.674 0 0 1-1.236.299c-.414 0-.807-.093-1.158-.26l.016.007a2.532 2.532 0 0 1-.839-.722l-.005-.007a3.871 3.871 0 0 1-.546-1.177l-.006-.028a5.997 5.997 0 0 1 .033-3.187l-.01.042c.153-.48.381-.896.673-1.258l-.006.007c.253-.337.598-.606.997-.836.422-.192.859-.307 1.281-.307a2.597 2.597 0 0 1 1.676.617l-.004-.003v-3.781h2.201v10.761zm-2.24-1.572.06.001c.399 0 .761-.155 1.03-.408l-.001.001c.115-.092.192-.192.291-.307v-3.16a1.183 1.183 0 0 0-.537-.383c-.174-.071-.375-.112-.587-.112s-.413.041-.597.116l.011-.004a1.076 1.076 0 0 0-.435.379l-.002.004a2.303 2.303 0 0 0-.288.674l-.003.016a6.085 6.085 0 0 0-.026 2.083l-.005-.035c.054.23.107.445.245.66a.972.972 0 0 0 .345.36c.169.061.33.13.499.13zm5.331 1.572v-7.471h1.319c.092 0 .192 0 .268.023l.207.092.1.169a.708.708 0 0 1 .054.253l.115.683c.25-.383.548-.71.889-.983l.008-.006c.33-.253.698-.368 1.081-.368l.062-.001c.291 0 .56.096.778.257l-.003-.002-.284 1.641a.312.312 0 0 1-.114.214h-.001c-.054.054-.13.054-.215.054-.077 0-.192 0-.261-.031-.138-.023-.276-.023-.422-.023-.575 0-1.035.307-1.35.936v4.564zm8.882-7.586c.46 0 .89.092 1.342.23.403.143.745.372 1.019.666l.001.002c.307.307.552.667.69 1.074.156.426.245.918.245 1.431v.011-.001c0 .13 0 .276-.023.43a.41.41 0 0 1-.092.238.309.309 0 0 1-.151.13l-.002.001c-.092.038-.169.038-.253.038h-4.219c.023.499.215.997.56 1.358.33.268.736.43 1.173.407h.006c.229 0 .452-.028.665-.081l-.019.004.499-.23c.13-.077.268-.13.406-.215a.947.947 0 0 1 .383-.077c.169 0 .299.046.414.192l.629.79c-.222.253-.46.476-.744.644a4.47 4.47 0 0 1-1.641.583 6.532 6.532 0 0 1-.79.054c-.483 0-.982-.092-1.434-.253a3.268 3.268 0 0 1-1.964-1.964l-.007-.023a4.567 4.567 0 0 1-.3-1.644c0-.543.093-1.064.264-1.549l-.01.033c.331-.89.994-1.59 1.834-1.963l.022-.009c.46-.192.982-.307 1.496-.307zm.046 1.565a1.22 1.22 0 0 0-.966.353c-.284.307-.453.667-.476 1.051h2.738c0-.169-.038-.36-.069-.522a1.293 1.293 0 0 0-.215-.453 1.216 1.216 0 0 0-.4-.327l-.007-.003a1.49 1.49 0 0 0-.606-.1zm4.671 6.021v-7.471h1.358c.115 0 .253.023.353.092.115.046.169.161.192.268l.13.445.445-.383c.169-.115.322-.23.491-.307a2.64 2.64 0 0 1 .557-.188l.018-.003c.215-.061.437-.092.652-.061.361 0 .744.061 1.058.23.315.136.581.331.796.573l.002.002c.215.284.383.591.499.897.1.335.159.72.161 1.119v4.741h-2.209v-4.679c.023-.307-.092-.614-.253-.867a.896.896 0 0 0-.677-.308l-.054.002h.002c-.261 0-.46.069-.683.184a2.3 2.3 0 0 0-.599.407l.001-.001v5.308zM27.42 7.939c1.304-1.549 1.879-2.263 1.741-2.684a1.279 1.279 0 0 0-.844-.721c-.491-.192-1.166-.276-1.496-.084-.268.215-.514.514-.744.767l-.407.483a13.774 13.774 0 0 0-7.807-4.07l-.078-.01A4.29 4.29 0 0 0 13.982.149l.021-.002a4.124 4.124 0 0 0-2.828 1.9l-.01.018c-2.796.886-5.166 2.453-6.997 4.51l-.014.016c-.437-.123-1.365.031-1.971.361-.269.122-.472.35-.558.629l-.002.007c-.031.192.046.476.767 1.335A15.802 15.802 0 0 0 .089 19.047a14.433 14.433 0 0 0 4.732 9.158c.92.821 1.956 1.511 3.045 2.048 2.183 1.098 4.758 1.741 7.482 1.741 3.163 0 6.123-.866 8.657-2.374l-.078.043a.898.898 0 0 0 .36-1.151l-.054-.153c-.828-1.818-3.29-7.432-1.918-12.533.575-2.125 2.24-4.387 3.659-6.197a13.924 13.924 0 0 1 2.171 8.061 12.533 12.533 0 0 1-2.531 7.226l.023-.032c-.077.077-.077.192-.046.307l.161.353c.077.13.261.222.384.13a.331.331 0 0 0 .107-.077c4.065-5.139 4.564-12.318 1.174-17.656zM9.549 20.004a28.583 28.583 0 0 0-.337 8.521c-3.896-2.023-6.695-5.697-7.488-10.069l-.013-.086a12.716 12.716 0 0 1-.219-2.389c0-2.302.593-4.465 1.634-6.345l-.034.067c.537.591 1.204 1.243 1.887 1.918 1.657 1.68 3.582 3.605 4.502 4.955.545.767.383 1.764.077 3.428zM24.145 7.348c-3.068 3.16-5.998 4.878-8.644 5.07A10.6 10.6 0 0 1 9.097 10.6a23.95 23.95 0 0 1-4.11-3.297l-.077-.077a12.54 12.54 0 0 1 5.591-3.521 6.835 6.835 0 0 0-.126 2.723l-.005-.038a6.162 6.162 0 0 0 2.243 3.956l.012.009a3.947 3.947 0 0 0 2.473.863 3.965 3.965 0 0 0 3.15-1.552l.007-.009.153-.23a6.178 6.178 0 0 0 .79-5.369c1.94.756 3.59 1.878 4.934 3.292l.005.006zM151.023 20.288c0-.115.023-.222.054-.337l.123-.307c.046-.092.107-.176.184-.253s.161-.13.253-.192a.833.833 0 0 1 .291-.1 1.042 1.042 0 0 1 .659.002l-.007-.002.299.1c.077.061.161.115.253.207.077.077.13.161.176.253a.674.674 0 0 1 .115.291c.031.115.054.222.054.337a1.62 1.62 0 0 1-.056.341l.003-.011c-.023.115-.084.192-.115.307-.046.077-.1.169-.192.245-.077.092-.161.13-.238.192a1.003 1.003 0 0 1-.299.115 1.558 1.558 0 0 1-.33.054c-.107 0-.215-.023-.322-.054-.123-.023-.199-.092-.307-.115-.077-.054-.161-.1-.253-.192a.937.937 0 0 1-.176-.253c-.069-.077-.077-.184-.115-.299a1.218 1.218 0 0 1-.054-.33zm.215 0c0 .123.031.268.092.407.054.146.1.23.215.337.156.188.39.307.651.307l.033-.001h-.002c.13 0 .261-.023.383-.077.119-.074.221-.15.318-.233l-.003.003a.633.633 0 0 0 .221-.333l.001-.004a.903.903 0 0 0 .084-.407c0-.092 0-.192-.023-.284a1.3 1.3 0 0 0-.115-.253c-.054-.077-.077-.13-.169-.222l-.176-.161a1.094 1.094 0 0 0-.246-.106l-.008-.002c-.077-.023-.169-.023-.268-.023-.115 0-.192 0-.284.023-.077.031-.153.054-.23.107a1.09 1.09 0 0 0-.361.384c-.061.084-.084.176-.115.253-.023.092 0 .192 0 .284zm.82.214v.552h-.345v-1.473h.514c.192 0 .353.023.43.1.081.079.131.19.131.312l-.001.026v-.001c0 .115-.015.192-.077.253a.458.458 0 0 1-.245.169c.031.023.054.023.054.046.023.031.023.054.061.077l.299.514h-.337c-.046 0-.077-.038-.1-.061l-.253-.453-.015-.023h-.115zm0-.284h.13c.061 0 .123 0 .138-.023l.092-.054.046-.077v-.176l-.023-.054c-.023-.023-.054-.023-.077-.023h-.307z"/></symbol><symbol id="project_hope_icon" viewBox="0 0 65 32"><path fill="#4F28" d="M17.067.551c-.071.071-.08.124-.08.72v.658l.107.071c.098.08.124.08.773.071.587-.009.684-.018.738-.08.062-.053.071-.142.071-.72 0-.844.062-.791-.853-.791-.631 0-.684.009-.756.071zM32.293.996c-.089.071-.089.08-.098.907l-.009.844h-.364c-.524 0-.498-.036-.516.773l-.009.676.089.089c.089.089.116.098.453.098h.347V6.25c0 1.849.009 2.036.124 2.116.027.009.364.027.756.027.693 0 .711-.009.764-.08.053-.08.053-.329.053-2.009v-1.92h.373c.551 0 .533.018.533-.818 0-.844.018-.818-.533-.818h-.373V1.077l-.098-.071c-.089-.071-.142-.08-.747-.08-.596 0-.667.009-.747.071z"/><path d="M3.298 2.658a2.207 2.207 0 0 0-.844.418c-.098.089-.187.151-.196.151s-.027-.071-.027-.169c0-.116-.018-.187-.071-.24-.071-.071-.116-.071-.756-.071s-.693 0-.756.071c-.08.08-.08.124-.08 3.893 0 3.653.009 3.822.071 3.876.098.098 1.387.098 1.511.009l.08-.062V9.218c0-.72.018-1.316.036-1.316s.08.062.151.133c.071.071.231.187.373.258.711.382 1.68.347 2.4-.08 1.307-.773 1.804-2.569 1.12-4.036-.364-.756-1.013-1.316-1.769-1.502-.338-.089-.924-.098-1.244-.018zm.915 1.68c.284.142.507.373.622.667.116.302.116.836-.009 1.129-.107.276-.364.56-.622.684-.196.098-.249.107-.622.107-.471 0-.64-.062-.916-.32-.542-.498-.56-1.511-.036-2.027.276-.284.578-.391 1.04-.373.258.018.347.036.542.133zM12.747 2.649c-1.067.249-1.876.978-2.213 2.009-.124.391-.16 1.12-.08 1.529.151.702.56 1.36 1.084 1.751.293.222.818.471 1.164.542.391.098 1.031.089 1.422-.009.16-.044.444-.16.631-.249.613-.302 1.182-.933 1.413-1.573a3.11 3.11 0 0 0-.24-2.658 4.136 4.136 0 0 0-.453-.542 2.944 2.944 0 0 0-1.244-.738c-.329-.107-1.129-.142-1.484-.062zm1.102 1.671c.213.08.471.284.604.471.293.444.284 1.138-.027 1.591-.311.462-1.049.658-1.591.418-.613-.276-.898-1.004-.667-1.724.204-.649.987-.996 1.68-.756zM21.644 2.649c-.587.124-1.102.4-1.493.791-1.173 1.173-1.138 3.236.071 4.347.56.516 1.244.756 2.124.756.569.009.978-.08 1.404-.302.48-.24 1.004-.791 1.12-1.191.036-.124.036-.16-.027-.222-.062-.071-.098-.071-.756-.062l-.684.009-.204.142c-.302.204-.489.258-.853.258-.373 0-.649-.089-.889-.302-.16-.142-.427-.569-.373-.613.009-.009.898-.018 1.956-.018 2.258 0 2.062.036 2.098-.436.071-.756-.187-1.636-.64-2.196-.347-.436-.782-.72-1.351-.898-.329-.107-1.129-.142-1.502-.062zm.934 1.475c.444.089.738.356.862.764l.027.089h-1.182c-.649 0-1.191-.018-1.2-.027-.044-.044.204-.462.347-.578.311-.24.738-.338 1.147-.249zM27.804 2.649c-1.173.276-1.964 1.049-2.258 2.196-.098.382-.089 1.12.018 1.52.222.836.764 1.511 1.511 1.876 1.289.622 2.871.284 3.689-.773.204-.276.427-.738.453-.942.027-.258 0-.276-.862-.276h-.756l-.222.24c-.276.284-.507.382-.924.382-.8 0-1.342-.596-1.28-1.396.036-.498.267-.862.684-1.067.222-.107.267-.124.596-.124.311 0 .373.018.56.107.124.062.276.178.347.258.071.089.169.178.213.204.053.027.302.044.782.044.844 0 .898-.009.862-.284a1.879 1.879 0 0 0-.178-.471 2.791 2.791 0 0 0-1.733-1.431c-.364-.107-1.164-.142-1.502-.062zM9.947 2.684c-.24.062-.533.222-.684.373-.062.062-.16.213-.222.32l-.107.204v-.347c0-.507.018-.489-.836-.489-.613 0-.684.009-.764.071l-.089.071L7.236 5.5c0 1.431 0 2.649.009 2.693.044.187.089.196.836.196.533 0 .702-.009.756-.053.071-.053.071-.124.098-1.511.018-1.431.018-1.467.098-1.653.178-.382.507-.596.978-.64.4-.027.382.018.382-.933 0-.818 0-.827-.089-.898-.098-.08-.107-.08-.356-.018zM17.076 2.8c-.062.053-.062.133-.089 2.978-.018 2.764-.018 2.933-.089 3.067-.089.187-.222.284-.471.329-.338.062-.347.08-.347.853 0 .667 0 .667.098.747.08.062.124.071.427.053.933-.062 1.511-.4 1.804-1.031.267-.56.267-.551.267-3.902V2.89l-.089-.071c-.08-.062-.151-.071-.764-.071-.524 0-.684.009-.747.053zM25.307 11.627c-2.818.267-5.369 1.733-7.076 4.053-.231.311-.631.96-.844 1.378-.311.613-.658 1.6-.818 2.356-.951 4.48 1.218 9.004 5.289 11.031a9.91 9.91 0 0 0 6.827.72c3.271-.836 5.911-3.307 6.978-6.551.302-.933.436-1.724.471-2.8.044-1.707-.258-3.138-1.004-4.676a9.9 9.9 0 0 0-1.884-2.64 9.814 9.814 0 0 0-6.089-2.871 12.966 12.966 0 0 0-1.849 0zm-1.325 3.502c1.689.293 2.649 1.476 2.88 3.529.018.178.036.711.036 1.173 0 .8 0 .844-.08.996-.151.293-.56.418-.853.276-.338-.178-.4-.347-.4-1.236 0-.613 0-.667-.08-.8-.284-.507-1.084-.382-1.209.187-.018.08-.036 1.031-.036 2.124 0 1.92-.009 1.991-.08 2.107-.142.24-.507.311-.738.151-.258-.169-.258-.142-.258-2.018 0-1.387-.009-1.68-.053-1.689-.124-.053-.133.027-.133 2.16 0 1.929 0 2.107-.062 2.222a.528.528 0 0 1-.924.044l-.08-.124v-2.116c0-2.16-.009-2.24-.133-2.187-.053.009-.053.338-.053 1.893 0 1.884 0 1.884-.08 2.044-.204.382-.729.4-.933.036-.08-.116-.08-.204-.089-2.044-.009-1.591-.018-1.92-.062-1.929-.027-.018-.071 0-.089.018-.027.036-.044.533-.044 1.387l-.018 1.342-.089.098c-.151.16-.293.222-.48.196-.196-.018-.32-.116-.418-.284-.062-.124-.062-.258-.062-2.213 0-2.124.018-2.498.142-3.013.347-1.333 1.271-2.124 2.729-2.347.364-.053 1.413-.044 1.751.018zm6.347 3.395c.258.16.249.036.267 2.436.018 2.124.018 2.151.098 2.151.071 0 .071-.027.089-1.947.018-1.573.027-1.964.071-2.027.204-.311.711-.329.916-.027.062.089.071.222.089 2.053l.018 1.947.08.009.08.018.009-1.351c.018-1.236.018-1.36.08-1.458.222-.329.747-.32.942.027.062.107.062.276.071 1.973.018 2.658-.036 3.218-.427 3.991-.142.302-.222.409-.507.693-.462.462-.818.658-1.476.827-1.04.267-2.444.169-3.209-.222-1.022-.524-1.644-1.511-1.858-2.969-.08-.524-.124-2.044-.062-2.249.089-.32.329-.507.658-.507.222 0 .409.098.533.284.089.107.089.16.107.898.018.729.027.782.107.916.213.356.684.427 1.013.151.213-.187.213-.151.213-2.347 0-1.324.018-2.036.036-2.107.187-.489.827-.489 1.031 0 .036.071.044.569.044 1.769 0 1.618 0 1.671.071 1.671.036 0 .08-.027.089-.062.009-.027.018-.996.018-2.151 0-2.044.009-2.107.08-2.222.142-.231.489-.311.729-.169zM.969 12.009a.847.847 0 0 0-.222.116c-.187.169-.178-.338-.178 9.413 0 9.049 0 9.093.08 9.236a.445.445 0 0 0 .222.222c.133.08.213.08 1.867.08s1.724 0 1.867-.08c.293-.142.267.142.293-3.964l.018-3.662 5.458-.018v3.644c0 4.027-.018 3.804.231 3.982.116.08.124.08 1.884.089 1.724.009 1.769.009 1.92-.071a.422.422 0 0 0 .222-.24c.062-.151.062-.347.062-9.289l-.018-9.138-.08-.107a.947.947 0 0 0-.196-.178c-.124-.071-.196-.071-1.867-.071s-1.742 0-1.867.071a.759.759 0 0 0-.196.178c-.08.107-.08.124-.098 3.511l-.018 3.404h-5.44l-.018-3.404c-.018-3.387-.018-3.404-.098-3.511a1.03 1.03 0 0 0-.204-.178c-.116-.071-.196-.071-1.804-.08-1.351-.009-1.707 0-1.822.044zM38.462 12.009a.664.664 0 0 0-.213.116c-.196.169-.187-.338-.187 9.396 0 8.862.009 9.093.08 9.244a.379.379 0 0 0 .222.231c.142.08.196.08 1.876.08 1.618 0 1.742 0 1.858-.071a.606.606 0 0 0 .204-.196c.071-.116.071-.204.089-2.924l.018-2.809 1.902-.018c1.884-.027 1.92-.027 2.356-.124a6.007 6.007 0 0 0 1.662-.578c.693-.347 1.12-.658 1.698-1.244.844-.853 1.333-1.671 1.662-2.8.169-.596.222-1.013.222-1.769.009-.747-.036-1.067-.187-1.671a6.549 6.549 0 0 0-4.649-4.667c-.889-.24-.729-.231-4.773-.24-3.084-.009-3.716 0-3.84.044zm7.369 4.124c.373.089.72.293 1.04.613.329.32.507.649.631 1.147.107.436.08 1.04-.062 1.467-.187.596-.622 1.12-1.147 1.378-.444.222-.596.24-2.338.24h-1.564V16.08H44c1.289 0 1.636.009 1.831.053zM53.44 12.009a.65.65 0 0 0-.356.293c-.053.107-.062.836-.062 9.191 0 7.467.009 9.111.053 9.218.027.08.107.187.178.249l.133.098h10.702l.133-.098c.222-.178.231-.213.231-1.964 0-.871-.009-1.618-.036-1.68-.036-.151-.231-.356-.382-.4-.089-.018-1.298-.036-3.404-.036h-3.262v-3.413l2.933-.009c2.809-.018 2.933-.018 3.049-.08a.626.626 0 0 0 .187-.213c.08-.133.08-.187.08-1.742 0-1.6 0-1.618-.08-1.76-.178-.302.018-.284-3.253-.284h-2.916v-3.191l3.244-.009c3.493-.009 3.316 0 3.529-.204.169-.16.187-.329.169-2.036-.009-1.547-.009-1.556-.089-1.689a.676.676 0 0 0-.222-.204c-.133-.071-.356-.071-5.28-.08-4.276-.009-5.164 0-5.28.044z"/></symbol><symbol id="united24_icon" viewBox="0 0 146 32"><path d="M43.063 11.282h7.3v10.561h-7.3V11.282zm-30.187 4.451c0 1.518-.876 2.198-2.779 2.198-1.893 0-2.789-.688-2.789-2.198v-4.451h-7.31v4.694c0 4.451 2.638 6.016 10.099 6.016s10.089-1.565 10.089-6.016v-4.694h-7.31v4.451zm38.262-.54h6.122v6.649h7.31v-6.649h6.112v-3.911H51.138v3.911zm-16.221 1.565-5.729-5.476h-8.055v10.561h7.209v-5.476l5.709 5.476h8.075V11.282h-7.209v5.476zm92.381-3.278c0-2.84-2.719-4.209-8.438-4.209-6.182 0-8.79 1.565-8.79 5.233h5.759c0-1.275.936-1.713 2.829-1.713 1.833 0 2.406.297 2.406.735 0 .634-.201.634-4.833 1.666-5.125 1.126-6.706 3.372-6.706 5.523v1.126h17.369v-3.426h-10.159c.614-.54 2.346-.688 6.192-1.416 2.568-.438 4.37-1.275 4.37-3.52zm-55.841 8.363h16.634v-3.176h-9.646v-.884h6.857v-2.495h-6.857v-.884h9.646v-3.129H71.457v10.561zm74.388-5.625v3.52h-2.618v2.104h-5.941v-2.104h-9.797v-3.567l7.028-6.454h8.709v6.501h2.618zm-8.559-3.473-3.746 3.473h3.746v-3.473zm-27.528 3.817c0 3.52-2.376 5.28-7.3 5.28H89.026V11.281h13.432c4.914 0 7.3 1.713 7.3 5.28zm-7.118 0c0-1.173-.715-1.76-2.205-1.76h-4.269v3.52h4.269c1.48 0 2.205-.587 2.205-1.76z"/></symbol><symbol id="international_medical_corp_icon" viewBox="0 0 133 32"><path d="M50.184 4.145h2.05v9.716h-2.05V4.145zm3.855 3.632a8.102 8.102 0 0 0-.178-.78l1.649-.468c.156.267.267.579.267.891.111-.067.201-.134.267-.178l.178-.134a.44.44 0 0 1 .178-.089c.045-.022.111-.067.201-.111.201-.111.401-.178.624-.223s.446-.067.669-.089c.379 0 .758.089 1.07.29.29.156.513.423.646.758.111.334.156.669.134 1.025v5.237h-1.827V9.204a1.697 1.697 0 0 0-.134-.825.545.545 0 0 0-.49-.223c-.223 0-.423.067-.624.178-.245.134-.468.29-.669.468v5.081h-1.872V8.668c-.045-.29-.067-.602-.089-.891zm10.919-1.136-.468 1.248h-1.203v3.655c0 .468.045.758.156.914s.334.223.646.223c.089 0 .178-.022.267-.045l.401-.111.245 1.114a4.502 4.502 0 0 1-1.515.334 2.61 2.61 0 0 1-1.226-.29 1.438 1.438 0 0 1-.691-.758c-.022-.067-.045-.156-.067-.223s-.022-.134-.045-.201c0-.067 0-.156-.022-.267V7.889h-.713V6.663h.713v-.914c0-.267.022-.535.067-.78l1.894-.468c-.045.334-.067.669-.089 1.047s-.022.735-.022 1.114l1.671-.022zm5.616 5.281.713 1.114a4.124 4.124 0 0 1-2.696 1.003 3.64 3.64 0 0 1-1.382-.267 3.225 3.225 0 0 1-1.07-.758 3.348 3.348 0 0 1-.669-1.159 5.014 5.014 0 0 1-.245-1.515 5.62 5.62 0 0 1 .201-1.627c.134-.446.357-.847.669-1.203.267-.312.602-.557.981-.735a3.457 3.457 0 0 1 1.248-.245c.401 0 .802.067 1.159.201.334.111.646.312.891.557.334.357.579.78.713 1.248a6.64 6.64 0 0 1 .223 1.872v.423h-4.123v.045a1.94 1.94 0 0 0 .401 1.292c.29.312.691.468 1.114.446.735 0 1.359-.267 1.872-.691zm-3.276-2.451h2.162v-.089c0-.223-.022-.423-.045-.646a1.105 1.105 0 0 0-.178-.446.915.915 0 0 0-.825-.401c-.334-.022-.624.134-.825.401-.223.334-.312.758-.29 1.159v.022zm5.014-1.649a5.807 5.807 0 0 0-.178-.847l1.671-.446c.178.312.267.669.29 1.025.134-.201.312-.379.49-.535s.357-.267.557-.379c.089-.045.178-.067.29-.089s.223-.022.334-.022c.111 0 .223 0 .334.022s.245.067.357.134l-.513 1.649a1.123 1.123 0 0 0-.535-.134 1.522 1.522 0 0 0-1.136.602v5.059h-1.872V9.07c0-.401-.045-.825-.089-1.248zm5.036-.045a8.102 8.102 0 0 0-.178-.78l1.649-.468c.156.267.245.579.267.891.111-.067.201-.134.267-.178l.178-.134c.045-.045.111-.067.178-.089s.111-.067.201-.111c.201-.111.401-.178.624-.223s.446-.067.669-.089c.379 0 .758.089 1.07.29.29.178.513.423.624.735.111.334.156.669.134 1.025v5.237h-1.827v-4.68a1.697 1.697 0 0 0-.134-.825.545.545 0 0 0-.49-.223 1.2 1.2 0 0 0-.624.178c-.245.134-.468.29-.669.468v5.081h-1.872V8.667c0-.29-.022-.602-.067-.891zm7.198-.267c.111-.067.201-.134.29-.178.178-.089.334-.178.535-.267a2.62 2.62 0 0 1 .334-.134 4.768 4.768 0 0 1 1.003-.312 4.5 4.5 0 0 1 .958-.089 3.16 3.16 0 0 1 1.493.312c.379.201.669.535.802.914.022.067.045.156.067.223s.022.156.045.245.022.201.022.334v.49l-.067 2.384v.134c0 .156 0 .334.022.49.022.134.045.245.111.379a.932.932 0 0 0 .201.312c.111.111.223.201.334.29l-.981 1.159c-.223-.089-.401-.223-.579-.357s-.312-.312-.401-.513l-.245.245c-.045.045-.111.089-.178.134-.423.267-.936.423-1.426.401-.802 0-1.404-.201-1.827-.579s-.624-.936-.624-1.649c0-.847.29-1.471.847-1.872s1.426-.602 2.563-.602h.178c.089 0 .156 0 .245.022v-.29a1.485 1.485 0 0 0-.156-.825c-.111-.156-.334-.223-.669-.223s-.646.089-.958.201a5.219 5.219 0 0 0-1.092.602l-.847-1.382zm3.655 3.164h-.089c-.646 0-1.114.067-1.359.223s-.379.446-.379.869c-.022.245.067.49.223.669s.379.267.602.267c.178 0 .357-.045.513-.134a1.86 1.86 0 0 0 .468-.357l.022-1.538zm7.153-3.989-.468 1.248h-1.203v3.655c0 .468.045.758.156.914s.312.223.646.201c.089 0 .178-.022.267-.045l.401-.111.245 1.114a3.982 3.982 0 0 1-1.515.357 2.61 2.61 0 0 1-1.226-.29 1.32 1.32 0 0 1-.669-.758c-.022-.067-.045-.156-.067-.223s-.022-.134-.045-.201c0-.067 0-.156-.022-.267V7.934h-.735V6.708h.713v-.914c0-.267.022-.535.067-.78l1.894-.468c-.045.334-.067.669-.089 1.047s-.022.735-.022 1.114l1.671-.022zM96.29 3.9c.223-.223.513-.334.825-.334s.602.111.802.334c.223.223.334.513.334.825 0 .624-.49 1.159-1.136 1.159h-.022c-.312 0-.602-.111-.802-.334-.223-.223-.334-.513-.334-.824s.111-.602.334-.825zm-.134 2.919 1.872-.29v7.331h-1.872V6.818zM99.32 8.78c.134-.423.357-.847.646-1.181.267-.334.624-.579 1.003-.758a3.386 3.386 0 0 1 1.315-.267 2.99 2.99 0 0 1 2.429 1.07c.29.334.49.713.624 1.114.134.49.201.98.201 1.493 0 .535-.067 1.07-.223 1.582a3.252 3.252 0 0 1-.669 1.181 3.058 3.058 0 0 1-.958.735c-.446.201-.914.29-1.404.267a3.39 3.39 0 0 1-1.315-.267c-.379-.178-.735-.423-1.003-.758a3.277 3.277 0 0 1-.646-1.159 4.991 4.991 0 0 1-.223-1.515 4.446 4.446 0 0 1 .223-1.538zm2.986-.825a.87.87 0 0 0-.579.201 1.132 1.132 0 0 0-.379.535 3.604 3.604 0 0 0-.134.669c-.045.312-.045.624-.045.914 0 .825.089 1.426.245 1.805.067.201.223.357.401.446s.357.156.557.156a.89.89 0 0 0 .891-.579c.178-.379.267-1.003.267-1.85 0-.958-.134-1.582-.379-1.916-.223-.245-.535-.401-.847-.379zm4.346-.178a8.102 8.102 0 0 0-.178-.78l1.649-.468c.156.267.267.579.267.891.111-.067.201-.134.267-.178l.178-.134a.44.44 0 0 1 .178-.089c.045-.022.111-.067.201-.111.201-.111.401-.178.624-.223s.446-.067.669-.089c.379 0 .758.089 1.07.29.29.156.513.423.646.758.111.334.156.669.134 1.025v5.237h-1.827V9.204a1.697 1.697 0 0 0-.134-.825.545.545 0 0 0-.49-.223c-.223 0-.423.067-.624.178-.245.134-.468.29-.669.468v5.081h-1.872V8.668c0-.29-.022-.602-.089-.891zm7.198-.267c.111-.067.201-.134.29-.178l.267-.134.267-.134a2.62 2.62 0 0 1 .334-.134 4.768 4.768 0 0 1 1.003-.312 4.5 4.5 0 0 1 .958-.089 3.16 3.16 0 0 1 1.493.312c.379.201.669.535.802.914.022.067.045.156.067.223s.022.156.045.245.022.201.022.334v.49l-.045 2.407v.134c0 .156 0 .334.022.49.022.134.045.245.111.379a.932.932 0 0 0 .201.312c.111.111.223.201.334.29l-.981 1.159a2.384 2.384 0 0 1-.602-.357 1.29 1.29 0 0 1-.401-.513l-.245.245c-.045.045-.111.089-.178.134-.423.267-.936.423-1.426.401-.802 0-1.404-.201-1.827-.579s-.624-.936-.624-1.649c0-.847.29-1.471.847-1.872.579-.401 1.426-.602 2.563-.602h.178c.089 0 .156 0 .245.022v-.29a1.485 1.485 0 0 0-.156-.825c-.111-.156-.334-.223-.669-.223s-.646.089-.958.201a5.219 5.219 0 0 0-1.092.602l-.847-1.404zm3.654 3.164h-.089c-.646 0-1.092.067-1.359.223-.245.156-.379.446-.379.869-.022.245.067.49.223.669s.379.267.602.267c.178 0 .357-.045.513-.134a1.86 1.86 0 0 0 .468-.357l.022-1.538zm5.348-7.175c.045.223.067.468.089.691.022.267.022.646.022 1.159v6.306c0 .178 0 .334.022.446a.78.78 0 0 0 .045.245c.022.045.045.111.067.156.067.134.223.201.379.201h.089c.045 0 .089 0 .111-.022l.312 1.114a3.171 3.171 0 0 1-1.114.201c-.357 0-.735-.089-1.047-.267-.29-.156-.49-.401-.624-.713-.045-.089-.067-.178-.089-.267s-.045-.178-.045-.29c-.022-.134-.022-.29-.022-.423v-5.95c0-.468 0-.869-.022-1.181l-.067-.958 1.894-.446zm-72.2 15.554h2.518l1.27 4.858.111.446c.022.134.067.245.089.357l.067.334.067.334c.045-.245.089-.49.156-.735s.111-.513.201-.802l1.315-4.836h2.54l.869 9.716h-1.916l-.357-5.192c-.022-.312-.045-.579-.045-.802s-.022-.468-.022-.713l-.067.379-.067.334c-.022.111-.067.223-.089.334-.022.111-.067.245-.111.401l-1.538 5.326h-1.716l-1.382-5.103c-.022-.111-.067-.267-.111-.468s-.089-.379-.134-.557c-.045-.178-.089-.401-.156-.669 0 .29 0 .579-.022.847-.022.29-.022.579-.045.869l-.334 5.081h-1.961l.869-9.738zm15.487 7.799.713 1.114a4.124 4.124 0 0 1-2.696 1.003 3.64 3.64 0 0 1-1.382-.267 3.225 3.225 0 0 1-1.07-.758 3.348 3.348 0 0 1-.669-1.159 5.014 5.014 0 0 1-.245-1.515 5.62 5.62 0 0 1 .201-1.627c.134-.446.357-.847.669-1.203a2.91 2.91 0 0 1 .98-.735 3.457 3.457 0 0 1 1.248-.245c.401 0 .802.067 1.159.201.334.111.646.312.891.557.334.357.579.78.713 1.248a6.64 6.64 0 0 1 .223 1.872v.423h-4.123v.045a1.94 1.94 0 0 0 .401 1.292c.29.312.691.468 1.114.446.713.022 1.359-.245 1.872-.691zm-3.298-2.451h2.162v-.089c0-.223-.022-.423-.045-.646a.9.9 0 0 0-.178-.423.93.93 0 0 0-.825-.423c-.334-.022-.624.134-.825.401-.223.334-.312.758-.29 1.159v.022zm11.321-5.705v7.443c0 .446 0 .825.022 1.114s.045.557.067.758c.022.156.045.312.089.468.022.089.045.178.089.267h-1.671a1.307 1.307 0 0 1-.111-.423 2.363 2.363 0 0 1-1.649.602c-.423 0-.847-.089-1.226-.267a2.659 2.659 0 0 1-.914-.735 3.226 3.226 0 0 1-.579-1.137 4.375 4.375 0 0 1-.201-1.515c0-.513.067-1.025.223-1.538.134-.423.357-.847.624-1.203a2.73 2.73 0 0 1 2.206-1.047 2.01 2.01 0 0 1 1.27.401 2.775 2.775 0 0 1-.045-.423c0-.201-.022-.423-.022-.646v-2.451l1.827.334zm-1.828 4.791c-.267-.267-.624-.446-1.003-.468s-.735.201-.914.535c-.201.357-.29.936-.29 1.738 0 .312.022.646.067.958.022.223.111.446.223.624a.837.837 0 0 0 .401.334c.201.067.401.111.624.111a.872.872 0 0 0 .513-.156c.156-.089.29-.178.401-.312l-.022-3.365zm3.677-4.679c.223-.223.513-.334.825-.334s.602.111.802.334c.223.223.334.513.334.825s-.111.602-.334.825c-.223.223-.513.334-.825.334s-.602-.111-.802-.334c-.223-.223-.334-.513-.334-.825s.111-.624.334-.825zm-.134 2.919 1.872-.29v7.331h-1.872v-7.042zm7.911.178c.089.067.201.156.379.29l-.914 1.226c-.178-.156-.357-.312-.579-.401a1.596 1.596 0 0 0-.557-.156.932.932 0 0 0-.914.557c-.201.379-.29.98-.29 1.827 0 .379.022.758.089 1.137.045.245.134.468.267.669a.98.98 0 0 0 .847.401c.401 0 .847-.201 1.292-.579l.111-.089.847 1.137c-.134.134-.245.245-.334.312a2.74 2.74 0 0 1-.312.223 2.558 2.558 0 0 1-.802.334 4.463 4.463 0 0 1-.936.111c-.981 0-1.738-.334-2.295-.98-.535-.646-.802-1.56-.802-2.719a4.44 4.44 0 0 1 .423-2.072c.245-.49.602-.936 1.047-1.248a2.9 2.9 0 0 1 .847-.379c.29-.089.602-.134.936-.156.245 0 .49.022.713.089.223.045.446.134.669.245a.902.902 0 0 0 .267.223zm1.538.491c.111-.067.201-.134.29-.178.178-.089.334-.178.535-.267a2.62 2.62 0 0 1 .334-.134 4.768 4.768 0 0 1 1.003-.312 4.5 4.5 0 0 1 .958-.089 3.16 3.16 0 0 1 1.493.312c.379.201.669.535.802.914.022.067.045.156.067.223s.022.156.045.245.022.201.022.334v.49l-.045 2.407v.134c0 .156 0 .334.022.49.022.134.045.245.111.379a.932.932 0 0 0 .201.312c.111.111.223.201.334.29l-.981 1.137c-.223-.089-.401-.223-.579-.357s-.312-.312-.401-.513l-.245.245c-.045.045-.111.089-.178.134-.423.29-.936.423-1.426.401-.802 0-1.404-.201-1.827-.579s-.624-.936-.624-1.649c0-.847.29-1.471.847-1.872s1.426-.602 2.563-.579h.178c.067 0 .134 0 .245.022v-.312a1.485 1.485 0 0 0-.156-.825c-.111-.156-.334-.223-.669-.223s-.646.089-.958.201a5.219 5.219 0 0 0-1.092.602l-.869-1.382zm3.655 3.186h-.089c-.646 0-1.092.067-1.359.223-.245.156-.379.446-.379.869-.022.245.067.49.223.669s.357.267.602.267c.178 0 .357-.045.513-.134a1.86 1.86 0 0 0 .468-.357l.022-1.538zm5.169-7.175c.045.223.067.468.089.691.022.267.022.646.022 1.159v6.306c0 .156 0 .29.022.446a.78.78 0 0 0 .045.245c.022.045.045.111.067.156.067.134.223.201.379.201h.089c.045 0 .067-.022.111-.022l.312 1.114a3.171 3.171 0 0 1-1.114.201c-.357 0-.735-.089-1.047-.267-.29-.156-.49-.401-.624-.713-.045-.089-.067-.178-.089-.267s-.045-.201-.045-.29c-.022-.111-.022-.245-.022-.423v-5.95c0-.468 0-.869-.022-1.181l-.067-.958 1.894-.446zm11.9.624c.401.111.758.312 1.07.579l-.869 1.337a2.436 2.436 0 0 0-1.538-.535c-.334 0-.646.067-.936.223-.29.134-.535.357-.713.624-.357.535-.535 1.382-.535 2.496 0 .535.022 1.07.089 1.604.045.357.156.691.312 1.003.357.691 1.092 1.137 1.872 1.092.535 0 1.025-.178 1.471-.468.022-.022.067-.045.089-.067l.111-.089.891 1.226a3.71 3.71 0 0 1-1.226.691 4.713 4.713 0 0 1-1.471.223c-1.337 0-2.384-.446-3.164-1.337s-1.159-2.05-1.159-3.476a6.336 6.336 0 0 1 .646-3.053 4.112 4.112 0 0 1 1.56-1.649 4.11 4.11 0 0 1 2.162-.602c.423-.022.891.045 1.337.178zm1.894 4.657c.134-.423.357-.847.646-1.181.267-.334.624-.579 1.003-.758a3.386 3.386 0 0 1 1.315-.267 2.99 2.99 0 0 1 2.429 1.07c.29.334.49.713.624 1.114.134.49.201.98.201 1.493 0 .535-.067 1.07-.223 1.582a3.252 3.252 0 0 1-.669 1.181 3.058 3.058 0 0 1-.958.735c-.446.201-.914.29-1.382.267a3.39 3.39 0 0 1-1.315-.267c-.379-.178-.735-.423-1.003-.758a3.277 3.277 0 0 1-.646-1.159 4.991 4.991 0 0 1-.223-1.515c-.045-.535.045-1.047.201-1.538zm2.986-.847a.87.87 0 0 0-.579.201.892.892 0 0 0-.357.535 3.604 3.604 0 0 0-.134.669c-.045.312-.045.624-.045.914 0 .825.089 1.426.245 1.805.067.201.223.357.401.446s.357.156.557.156a.89.89 0 0 0 .891-.579c.178-.379.267-1.003.267-1.85 0-.958-.134-1.582-.379-1.916a1.238 1.238 0 0 0-.869-.379zm4.257-.133a5.807 5.807 0 0 0-.178-.847l1.671-.446c.178.312.267.669.29 1.025.134-.201.312-.379.49-.535s.357-.267.557-.379c.089-.045.178-.067.29-.089s.223-.022.334-.022c.111 0 .223 0 .334.022s.245.067.357.134l-.513 1.649a1.123 1.123 0 0 0-.535-.134 1.522 1.522 0 0 0-1.136.602v5.058h-1.872v-4.791c0-.401-.022-.825-.089-1.248zm5.014.245c0-.156 0-.29-.022-.423s-.022-.245-.022-.379-.045-.267-.067-.401l1.671-.29c.045.134.067.245.089.357s.045.223.045.312c.201-.223.446-.379.713-.49a2.307 2.307 0 0 1 1.025-.178c.245 0 .513.045.735.111.468.134.869.423 1.181.78.178.201.312.423.423.646.134.267.223.557.267.869.067.357.111.735.089 1.114 0 .334-.022.691-.045 1.025a3.649 3.649 0 0 1-.178.825 2.607 2.607 0 0 1-.312.669 3.15 3.15 0 0 1-.468.602c-.245.267-.513.468-.847.602s-.691.223-1.07.201c-.267 0-.535-.022-.802-.089a3.744 3.744 0 0 1-.691-.267.769.769 0 0 1 .022.223v2.585l-1.805.468v-8.267c.067-.223.067-.423.067-.602zm1.827 4.055c.156.111.312.201.468.29.178.089.357.134.557.134.401.045.78-.178.981-.513s.29-.936.29-1.738c0-.312-.022-.602-.045-.914a3.525 3.525 0 0 0-.134-.669.848.848 0 0 0-.891-.602c-.468 0-.914.201-1.226.535v3.476zm9.627-5.392a9.29 9.29 0 0 1 1.092.446l-.602 1.27a6.918 6.918 0 0 0-.936-.401 3.337 3.337 0 0 0-.825-.111 1.28 1.28 0 0 0-.646.178.578.578 0 0 0-.245.513c0 .178.067.334.201.446.201.134.446.245.669.29l.847.223c.201.045.379.111.557.178.134.045.267.111.379.201l.267.201c.067.067.156.134.201.223.267.357.401.78.401 1.226 0 .357-.067.691-.223 1.025a2.16 2.16 0 0 1-.624.78c-.29.223-.602.401-.958.513a3.927 3.927 0 0 1-1.248.178c-.869 0-1.827-.267-2.875-.825l.669-1.382c.134.089.312.178.49.267l.602.267c.201.089.423.134.646.201.201.045.423.067.624.067.245 0 .49-.067.669-.223.178-.134.267-.357.267-.579s-.089-.423-.267-.557a2.156 2.156 0 0 0-.847-.312l-.847-.156a2.114 2.114 0 0 1-.735-.29 2.204 2.204 0 0 1-.579-.446 1.579 1.579 0 0 1-.29-.579 2.48 2.48 0 0 1-.111-.691c0-.334.067-.646.201-.958.134-.29.312-.535.557-.735.267-.223.557-.379.869-.468a3.926 3.926 0 0 1 1.137-.178 4.169 4.169 0 0 1 1.515.201zM28.011.067c.134 0 .223.022.223.223 0 0-.022 1.538-.045 1.604 0 .045-.045.067-.067.067-.357.156-.825.201-1.003.646-.178.29-.111 1.003-.111 1.003l-.067 3.276c0 .089.045.178.134.223a9.355 9.355 0 0 1 3.253 1.092l.201-.067c.891-.669 1.85-1.203 2.696-1.961l.067-.201c.045-.513.067-1.047.045-1.56 0-.201.045-.334.379-.334 0 0 8.468.022 8.468 0 .334 0 .29.178.312.423 0 0-.022 1.359-.045 1.627s-.423.201-.646.334c-.29.134-.513.401-.579.713.067.357.156.713.223 1.07.334 1.448.802 2.83 1.159 4.256l1.136 4.167c.691 2.518 2.518 8.825 2.719 9.382.156.357.334.758.713.958.156.156.201.401.156.602 0 0-.022.825 0 .847 0 .178-.134.334-.312.334h-8.758c-.401 0-.423-.134-.446-.312v-1.292c0-.201.223-.245.401-.267.134-.022.267-.045.401-.111.156-.067.802-.401.758-.869l-.134-.713-1.783-6.975-1.337-5.148c-.067-.156-.067-.357-.245-.446l-.134.022c-.379.223-.713.513-1.092.713a.694.694 0 0 0-.022.557.144.144 0 0 1-.134.134h-1.292a6.439 6.439 0 0 0-.357-.914c-.045-.111-.178-.201-.111-.334.49-.022 1.025.022 1.493-.045.045-.022-.022-.067-.022-.089-.401-.134-.847 0-1.27-.067-.201 0-.446-.022-.49-.245-.156-.312-.312-.624-.49-.914 0-.022.022-.045.022-.067.49-.089 1.07.022 1.515-.089h.067c.067-.111-.067-.134-.134-.156-.134.022-.29-.067-.401.022h-1.27c-.29-.401-.579-.78-.891-1.159-.022-.045 0-.111.067-.134h.067c.446.022.891 0 1.337-.045.045-.134-.111-.134-.223-.156h-1.493c-.446-.379-.891-.802-1.315-1.159v-.067c.446.067.802-.067 1.226-.022.022-.022.045-.022.045-.045 0-.067-.089-.089-.134-.156a3.626 3.626 0 0 0-.691 0c-.468.022-.98.045-1.315-.267-.134-.178-.513-.045-.468-.357.045-.067.178-.089.134-.178-.936-.312-2.006-.312-3.008-.446-.111.022-.267-.045-.334.067 0 .089.111.156.045.245-.178.089-.267-.156-.423-.178-.022-.312-.357-.535-.557-.758-.513-.379-1.337-.669-1.382-1.426.045-.267.134-.49.201-.735a.24.24 0 0 0-.178-.178c-.223-.045-.267.223-.401.334a1.216 1.216 0 0 0 0 1.203c.312.334.691.602 1.092.847.178.156.468.267.557.535-.825.022-1.604.156-2.429.156-.267.156-.669 0-.914.223-.446-.067-.802.178-1.159.401-.312.245-.624.401-.936.624-.468 0-.936-.022-1.382 0-.045.022-.045.067-.045.111l.045.045h.78l.045.045c-.468.379-.936.78-1.359 1.226H14.71c-.045.067-.178.022-.178.134l.089.067h1.426c.045 0 .045.045.045.089v.022c-.334.446-.602.891-.958 1.27l-1.805.045c-.067.022-.111.089-.111.178l.045.045c.513-.022 1.092-.045 1.627-.022.022.045.134.045.067.111l-.267.513c-.067.223-.111.468-.312.602-.646.067-1.27-.067-1.872.111l-.045.045.067.067h1.827c-.022.401-.134.825-.156 1.248-.579.045-1.159.045-1.738 0-.134-.111-.067-.357-.111-.513-.045-.29.178-.713-.201-.847-.178-.067-.312-.312-.513-.267-.29.557-.401 1.181-.602 1.76-.535 1.805-1.025 3.632-1.56 5.46l-.914 3.276s-.579 2.006-.713 2.585.869 1.047 1.471 1.226c.067 0 .111.045.111.111 0 .111-.022 1.604-.022 1.604 0 .067-.045.134-.111.134H.316c-.223 0-.245-.134-.245-.29v-1.493c.067-.312.446-.379.624-.646.267-.267.29-.646.423-.98.513-1.337.802-2.785 1.292-4.145l1.292-4.345 1.292-4.301.869-2.964.735-2.585c.045-.245-.156-.401-.29-.579a2.31 2.31 0 0 0-1.226-.513s-.045 0-.045-.067.022-1.582.045-1.716a.12.12 0 0 1 .156-.111h8.847c.156.022.334-.022.357.201s-.022 1.448-.022 1.515c0 .045.022.089.045.111.579.49 1.003 1.003 1.627 1.404.312.245.579.602.914.825h.134a7.4 7.4 0 0 1 3.031-1.003l.089-.134c.022-1.27.089-3.588.045-3.811s-.624-1.136-.958-1.159c-.089-.022-.134 0-.156-.089l.022-1.694c0-.134.022-.156.178-.156zm-3.922.914c-.045-.423-.557-.379-.825-.245-.535.401.312.758.045 1.226l.045 4.011.49.29s.067-2.451.045-3.543c0-.357.089-.735-.022-1.047.134-.223.379-.423.223-.691zm-1.27.089-.245-.312a.376.376 0 0 0-.312 0c-.401.312-.847.579-1.27.869-.178.089-.379.111-.535.245a.167.167 0 0 0 0 .201.838.838 0 0 0 .691.045c.223.089-.089.245-.067.379.29.267.446-.223.735-.201.156.134-.089.267.045.379.267.067.423-.223.646-.29.067 0 .111.089.156.134s.156 0 .201-.045a.374.374 0 0 0 .089-.423c-.334.089-.691.022-1.003.134-.223-.067-.513 0-.669-.223-.089-.045-.29.045-.312-.111.334-.379.869-.423 1.248-.735.067-.022.156-.067.223 0 0 .245-.245.423-.379.579.134.045.267-.045.379-.089.178-.156.29.156.468.067a.27.27 0 0 0 .156-.29c0-.111-.134-.223-.245-.312zm3.343.334L25.56.869c-.513-.29-.713.49-1.181.446-.134.045-.111.201-.134.29.134.178-.089.357.045.535.089.045.111-.067.178-.089.379-.067-.067-.267 0-.446.29-.401.49.312.802.312.111 0 .045-.111.067-.201.022-.134.178-.089.29-.134.022-.156-.111-.29-.134-.423 0-.045.067-.089.111-.089l.022.022.735.669c0 .089.111.156.045.245-.29.067-.691 0-.914.267-.201.178-.468 0-.669-.089l-.022.022c0 .089-.045.245.045.312.29-.067.468.134.691.312.267.156.111-.267.29-.267a.617.617 0 0 0 .646-.045c.067-.045-.022-.134 0-.178.045 0 .089 0 .134-.022.134-.045.111-.201.134-.29.111.067.245.045.357-.022.045-.045 0-.089-.045-.134-.357-.067-.579-.357-.891-.468zm-.714 3.097a1.604 1.604 0 0 0-.423-.535c-.089-.045-.201.067-.245.134-.111.178.089.29.156.423.134.446-.178.78-.423 1.092a4.117 4.117 0 0 0-.557.535l-.022.201.089.111.735-.579c.357-.401.914-.802.691-1.382z"/><path d="M23.822 1.315c-.045.067-.045.245-.178.178-.045-.156-.223-.357-.045-.513.267-.201.178.201.223.334zm1.381 2.919c0 .045-.022.111-.067.134-.111.045-.111-.067-.134-.111-.022-.134.178-.089.201-.022zm-2.897.178c0 .067 0 .111-.067.134s-.178-.067-.089-.134c0-.089.178-.111.156 0zm-.356 3.209a2.267 2.267 0 0 1-.29.624.828.828 0 0 1-.468 0c-.067-.067-.045-.178-.022-.245.201-.201.446-.357.713-.49.045 0 .089.022.089.067 0 .022 0 .022-.022.045zm-1.538-.022c-.067.267-.357.29-.535.423l-.379.267c-.201 0-.423 0-.624-.045-.067-.134.111-.156.201-.178.267 0 .423-.267.669-.357.223-.089.446-.134.669-.156v.045zm.869.044c-.134.334-.49.379-.735.646-.178 0-.423.045-.579-.045.111-.312.446-.379.713-.49.178-.045.334-.178.535-.178l.067.067zm2.608.468c0 .045-.045.089-.067.089-.111-.022-.312.045-.312-.134.067-.156-.045-.357.022-.513.29.067.156.423.357.557zm.222-.356c0 .045-.022.067-.067.089-.045 0-.067-.022-.089-.045 0-.089.156-.156.156-.045zm-5.125.824c-.045.178-.245.267-.379.357l-.914.802a6.645 6.645 0 0 1-.936 0c-.067-.022-.045-.089 0-.134a7.699 7.699 0 0 1 1.426-1.114c.267.045.602-.111.802.089zm1.293-.111a.315.315 0 0 1-.178.334.548.548 0 0 1-.267 0c-.267-.045-.446.334-.669.089.045-.624.713-.357 1.114-.423zm3.587.156c.022.178.045.379-.111.468-.134-.089-.111-.312-.156-.49 0-.067.022-.111.089-.134.089-.022.156.089.178.156zm.78.045c0 .045-.022.111-.089.111s-.178-.022-.201-.111c-.022-.067 0-.134.067-.156.111-.022.201.045.223.156zm-1.315.089c0 .111-.045.223-.089.334a.866.866 0 0 1 .067.579l-.045.045a5.162 5.162 0 0 1-.825 0c-.089-.134.022-.29.045-.423.067-.29.156-.669.49-.78.156 0 .29.089.357.245zm-1.27.156a.388.388 0 0 1 .312.067c0 .245-.089.49-.223.691-.267.022-.513.045-.78.022-.178-.245.067-.513.067-.802.178-.089.223-.379.446-.379.134.111-.022.357.178.401zm-1.092.133c-.089.223-.312-.045-.49.067-.156.134-.29.29-.401.446-.089 0-.156-.045-.178-.111.022-.357.423-.379.624-.602.134-.089.201-.357.401-.267.022.134.067.29.045.468zm7.688-.267c.045.067 0 .156-.067.178h-.022a.401.401 0 0 1-.267-.267c-.022-.045-.022-.089.022-.111.134 0 .245.111.334.201zm.892.267c.134.156.334.178.446.312a.24.24 0 0 1-.178.178c-.089-.045-.178 0-.223.089v.022h-.245c.022-.111.156-.089.223-.178 0-.067-.067-.089-.134-.089-.022 0-.045.022-.045.022-.045.067-.134.089-.201.067-.134-.067-.178-.245-.134-.379.111-.156.334-.067.49-.045zm-6.351.869.045.067c-.089.29-.245.602-.067.891a.43.43 0 0 1-.111.29 5.392 5.392 0 0 1-1.047.022.715.715 0 0 1 .045-.379c.067-.312.178-.602.29-.891.045 0 .089-.022.067-.067.201.156.513.045.78.067zm7.242-.044c.357.267.669.624.891 1.025a.243.243 0 0 1 .156.267h-1.025c-.156-.067-.201-.245-.245-.401-.245-.201-.423-.49-.669-.691 0-.067-.045-.156 0-.223h.891zm-8.334.067c-.045.446-.245.847-.312 1.27l-1.315.022c-.111-.045-.045-.156-.022-.223.156-.267.423-.312.646-.446.067-.178-.067-.357.067-.49l.111-.111.825-.022zm-4.769.111c-.134.334-.446.602-.513.958l-.267.267a8.31 8.31 0 0 1-1.047 0c-.111-.045 0-.134.022-.201.267-.423.579-.802.958-1.114h.802l.045.089zm6.574.557c0 .067-.022.134-.067.134s-.089-.045-.089-.089.111-.134.156-.045zm.512.112a.201.201 0 0 1-.067.156c-.089-.022-.178-.134-.245-.223.022-.178.312-.111.312.067zm-6.774.289a.342.342 0 0 1-.223.267c-.156-.022-.379.045-.468-.111-.022-.156.134-.223.223-.29.134-.045.379-.089.468.134zm14.061.379c.223.334.423.669.579 1.025.022.067 0 .156-.045.223-.401.022-.802.045-1.226.022a1.072 1.072 0 0 1-.334-.624c.156-.267-.468-.357-.134-.602.379-.045.78-.022 1.159-.045zm-10.005.112c-.022.357-.156.735-.178 1.136-.267.178-.669.089-.958.067-.134-.245-.401-.178-.579-.334-.045 0-.111.067-.178.022-.134-.245.045-.49.045-.758.067-.045.156-.045.223-.022s.089.134.156.067l.178-.178h1.292zm1.225-.023c-.045.245-.267.446-.357.691-.111.178 0 .49-.245.579-.223-.045-.49.089-.624-.067.045-.401.134-.802.245-1.181l.98-.022zm-5.682.112a4.816 4.816 0 0 0-.178.958c-.022.067-.045.178-.111.201a1.59 1.59 0 0 1-.646-.045c.067-.379.178-.735.312-1.092.089-.245.379-.089.557-.134l.067.111zm-.891-.067c.223.223-.134.423-.134.669-.045.201-.045.446-.178.602l-1.203-.022c-.111-.067-.156-.201-.089-.29l.446-.891c.045-.067.134-.045.201-.067h.958zm14.239 1.047c-.045.111-.201.111-.29.089-.156-.178-.111-.49-.201-.713-.089-.111-.223-.178-.201-.334.067-.067.178-.067.245-.067l.446 1.025zm-3.32-.445c.178.156.624.089.49.468-.022.067-.067.111-.111.111h-.958c-.067-.156-.201-.312-.111-.513.134-.111.067-.312.267-.379.201 0 .223.29.423.312zm-7.711-.156c.156.223-.267.312-.156.513.067.045.178.089.201.178 0 .067-.045.134-.111.134-.267.089-.312-.312-.557-.178a.235.235 0 0 1-.267-.022c-.134-.089-.045-.29-.067-.423.178-.223.468-.201.691-.29.134-.045.201.045.267.089zm9.538.401c.067.089.156.178.111.29a1.562 1.562 0 0 1-.646 0 .301.301 0 0 1-.134-.312c0-.134.089-.267.223-.312.267-.045.201.312.446.334zm3.41.78c0 .067-.045.111-.089.134-.29-.178-.713-.022-.891-.334-.022-.022-.022-.089.022-.089.312.089.936-.245.958.29zm-1.872-.29c.067.045.089.134.067.201-.067.111-.29.156-.201.334.178.29.691.178.669.624-.045.089-.178.067-.245.022-.201-.245-.579-.111-.691-.446a.32.32 0 0 0-.201-.245c-.134 0-.312 0-.334-.178.022-.111-.089-.201 0-.312.312-.022.624 0 .936 0zm-1.181.156c.111.312.201.624.223.936.022.223-.223.178-.379.178h-.847c-.201-.156-.045-.446-.178-.624l.022-.312c.267.067.267-.29.49-.334.223.067.579-.111.669.156zm-1.583-.022c.111.334.178.669.245 1.003-.022.045-.022.134-.089.156h-1.159l-.067-.089c0-.334-.045-.691-.134-1.003.045-.045-.022-.156.067-.156.357.022.713-.022 1.07-.022l.067.111zm-5.37-.045c.111.312.379.535.691.624a.413.413 0 0 1 .111.468c-.022.067-.045.156-.111.156h-1.56a3.744 3.744 0 0 1 .045-1.226c.29-.022.557 0 .825-.022zm-1.047.022c.022.401 0 .802-.067 1.203-.401.245-.602-.245-.847-.423s-.379-.423-.669-.49c-.134.111-.267.29-.446.223-.089-.111-.223-.267-.134-.401a.477.477 0 0 1 .379-.111l.156.156.089-.134a11.612 11.612 0 0 1 1.538-.022zm-4.39.023a.812.812 0 0 0 .669.49l.045.045c.022.201-.111.334-.022.535a.237.237 0 0 1-.111.201H16.18a1.482 1.482 0 0 1 .045-.98v-.267c.29-.045.579-.045.847-.022zm-1.048 0c-.045.401-.045.825-.067 1.226l-.045.045h-1.426c-.045-.067-.067-.178-.045-.267 0-.334.067-.669.201-.98.468-.022.914-.022 1.382-.022zm10.541.557v.535c-.067.134-.267.067-.379.067-.089-.045-.111-.156-.067-.245.201-.134.067-.535.401-.468l.045.111zm-7.22.423a.375.375 0 0 1-.067.223c-.357.067-.78.022-1.159.045-.245-.111-.156-.401-.156-.624.045-.067.111-.111.178-.111.423.067.914.089 1.203.468zm12.835-.089c-.022.067 0 .223-.089.223-.245-.022-.669.156-.758-.178-.045-.111.067-.178.156-.223.223-.067.557-.067.691.178zm-1.916.156c-.022.022.022.089-.045.089-.111-.022-.334.067-.334-.134-.022-.067-.045-.156-.022-.245.201-.178.29.201.401.29zm-6.373-.089c.022.067-.022.156-.067.201-.045.022-.111.045-.178.022-.067-.089-.022-.201 0-.312.067-.111.245-.022.245.089zm10.629.334c.067.201.067.401.022.624-.045.245-.111.468-.178.713a7.402 7.402 0 0 1-1.404-.022c-.045-.29.156-.513.223-.78.045-.178-.045-.401.111-.535h1.226zm-3.32 0c.089.045.111.134.067.223-.245.535-.869.624-1.137 1.136-.089 0-.267.067-.312-.045.089-.401.045-.891.201-1.27.401-.022.78-.045 1.181-.045zm-1.449.112c.022.401 0 .825-.067 1.226l-.045.045c-.423-.022-.869.045-1.27-.022.089-.312-.022-.602.045-.914-.067-.089-.022-.223-.022-.357l.089-.067c.401.022.78-.022 1.181 0l.089.089zm-1.649-.067c.178.29.045.691.067 1.025-.022.111 0 .267-.111.312h-1.27c-.178-.089-.045-.334-.067-.513.134-.245-.022-.602.134-.825.401-.022.825 0 1.248 0zm-1.493.022c-.022.312.178.825-.267.958-.045.089.045.201-.089.267-.067.045-.134.178-.223.089-.022-.111-.089-.245-.045-.379.334-.29-.178-.691.178-.936.156-.022.29-.022.446 0zm-3.253.156c.045.401.045.802.022 1.181a14.02 14.02 0 0 1-1.694.022c-.156-.357-.089-.825-.089-1.27.201-.111.49-.022.735-.067h.958l.067.134zm.735.089c.223.312.045.691-.022 1.025l-.022.067-.446.022-.045-.089c-.045-.423 0-.78 0-1.203.067-.089.245-.045.334-.045l.201.223zm-2.674-.134c-.045.156.022.334-.045.468-.067-.156-.201-.334-.178-.513.067.022.201-.089.223.045zm-2.251-.022a.357.357 0 0 1 .111.245.653.653 0 0 0-.022.669c-.067.178.29.401 0 .446h-.98a1.755 1.755 0 0 1-.223-1.003c-.022-.111-.111-.245-.045-.334.401 0 .78-.045 1.159-.022zm-1.404.067c0 .357.067.713.201 1.047-.045.089.022.178.022.223-.49.022-1.025 0-1.515.022a1.828 1.828 0 0 1-.178-.49 10.023 10.023 0 0 1-.178-.802l.045-.045c.513-.022 1.047 0 1.538-.022l.067.067zm-1.805-.045c.067.245.089.513.178.758.067.178.111.357.111.535l-.045.045h-1.404c-.267-.29-.267-.735-.379-1.114.022-.089.067-.201.178-.201.446.022.891-.022 1.359-.022zm-1.782.023c.134.111.022.245.067.379-.089.089.022.178.022.245.111.223.178.468.267.691-.579.045-1.226 0-1.783.045-.089-.045-.223-.067-.223-.223a3.667 3.667 0 0 1-.045-.98c.067-.201.334-.089.49-.134l1.203-.022zm20.055 1.337a.309.309 0 0 1 .045.245 6.261 6.261 0 0 1-.579 1.07l-1.292-.022c-.067-.067 0-.178.045-.245a1.87 1.87 0 0 0 .357-.958c.156-.178.446-.045.669-.111l.758.022zm-4.167.111c0 .178-.089.379.067.49.312-.022.535-.156.825-.201l.089.089c-.089.29-.134.669-.401.869l-1.226-.022-.067-.067c.156-.379.267-.802.401-1.181.067-.067.245-.089.312.022zm-.49 0c-.134.401-.312.802-.423 1.203-.379.045-.802.022-1.181.022 0-.201.045-.379.156-.557.111-.223.178-.446.178-.691.089-.067.223-.022.334-.045h.891l.045.067zm-1.582-.067c.111.178-.045.379-.067.579a2.589 2.589 0 0 1-.245.691 6.424 6.424 0 0 1-1.315.022c.089-.423.267-.802.29-1.248.446-.045.891-.022 1.337-.045zm-3.9.067c.201.334.267.758.624 1.025.022.067.045.156.022.223l-.045.045-.98.022c-.223-.111-.156-.379-.156-.579a2.428 2.428 0 0 1 .022-.691c.178-.045.357-.067.513-.045zm-.735.022c.022.423 0 .847-.089 1.248a8.199 8.199 0 0 1-1.292.022c-.334-.201-.223-.646-.312-1.003a.292.292 0 0 1 .067-.267c.513-.022 1.07-.045 1.604-.022l.022.022zm3.097.067c-.067.401-.223.758-.29 1.159a4.432 4.432 0 0 1-1.092 0 .26.26 0 0 1-.022-.223c.312-.29.602-.602.825-.958.111-.067.267.089.379-.045.067 0 .156 0 .201.067zm-6.685.201c.178.223.111.513.334.713 0 .111.134.267-.045.312h-1.137a3.245 3.245 0 0 1-.49-.958c.045-.134-.178-.312.045-.334.446.089 1.025-.223 1.292.267zm-1.738-.245c.223.379.29.847.513 1.248v.045l-1.359.022c-.312-.334-.446-.802-.669-1.203l.045-.067c.49-.022.958-.067 1.471-.045zm-1.627.178c.067.357.312.624.446.936.022.089 0 .245-.134.201h-1.047a2.128 2.128 0 0 1-.602-.802c-.022-.156-.267-.334-.089-.49.446-.022.936 0 1.359-.022l.067.178zm16.134-.022c-.134.357-.29.691-.49.98-.334.045-.735 0-1.092.045l-.045-.022.357-.713a.18.18 0 0 1 .201.067l.111.156c.334-.156.513-.513.869-.624.067-.045.134.022.089.111zm-17.917-.112.134.134.49.98c.022.089-.022.201-.134.178-.646-.022-1.382.067-1.939-.067-.245-.312-.312-.735-.513-1.07-.045-.067.045-.134.089-.156h1.872zm6.953 1.181c-.111.089-.334.045-.468.022-.045 0-.089-.045-.089-.089.111-.156.178-.357.223-.535.178 0 .111-.223.245-.29.045.29.045.579.089.891zm11.989.201-.045.223-.825.958a4.676 4.676 0 0 1-1.114.045c-.089-.045-.134-.156-.089-.245.223-.334.49-.646.691-.98.312-.178.758-.045 1.136-.089.067.022.223-.022.245.089zm-1.783-.089a.174.174 0 0 1 .045.223l-.022.022a9.133 9.133 0 0 1-.825 1.025c-.29.045-.579.045-.847.022-.089-.067 0-.178.045-.245.201-.334.49-.646.669-1.003.045-.067.134-.045.201-.067l.735.022zm-1.315.022c.089.022.045.156.022.201-.267.357-.557.713-.847 1.07a3.746 3.746 0 0 1-1.003.022c-.178-.134.045-.29.089-.446l.49-.869c.401 0 .847.022 1.248.022zm-1.537 0c.111.045-.022.156-.022.223-.134.134-.201.312-.245.49-.156.201-.245.49-.513.602l-.847-.022c-.111-.089.045-.245.067-.357l.468-.936c.357.022.713 0 1.092 0zm-1.337.067a5.156 5.156 0 0 1-.624 1.203c-.312.111-.691.045-1.025.067-.045 0-.089-.022-.089-.067.156-.379.29-.78.401-1.181l.067-.045h1.248l.022.022zm-1.516 0c-.156.423-.29.847-.468 1.27a5.73 5.73 0 0 1-.869 0l-.089-.111c.134-.357.067-.802.312-1.137.357-.045.735-.045 1.092-.045l.022.022zm-1.359.044c-.089.401-.089.847-.29 1.203-.267.045-.535.045-.78.045-.156-.156-.089-.423-.111-.624.045-.223-.045-.423.045-.646.379-.022.735-.045 1.114-.022l.022.045zm-1.404.067c.045.379.045.78-.022 1.159-.357.022-.735.045-1.092.022-.067-.423-.245-.78-.357-1.181 0-.045.022-.111.089-.089.423-.022.869 0 1.315-.022l.067.111zm-1.716-.089c.178.401.223.869.379 1.248-.312.022-.78.156-.98-.111a.406.406 0 0 0 .178-.045c-.089-.201-.334-.267-.379-.49a.542.542 0 0 1 .067-.579c.245-.045.49-.045.735-.022zm-1.47 0c.267.29.379.646.602.958.022.111.156.223.045.312a3.437 3.437 0 0 1-1.07-.045c-.357-.312-.423-.758-.624-1.137 0-.045.022-.067.045-.089.312 0 .669.022 1.003 0zm-1.293.268c.022.134.178.223.245.357.134.223.223.446.357.669l-1.137.022a1.75 1.75 0 0 1-.535-.535c-.111-.223-.334-.401-.379-.646l.111-.067c.379 0 .78-.022 1.137-.022l.201.223zm-1.671-.09c.156.357.49.624.691.958a.287.287 0 0 1 .022.134c-.379.045-.735.067-1.114.045l-.089-.045c-.223-.379-.691-.646-.825-1.047.045-.156.201-.134.334-.156.29.089.691-.156.98.111zm-1.538.045c.201.334.446.624.713.914a.248.248 0 0 1 0 .178c-.557.045-1.181 0-1.738.045-.201.089-.334-.223-.49-.334a1.966 1.966 0 0 0-.557-.579c.022-.156-.334-.245-.089-.357.624 0 1.382-.022 2.028-.022l.134.156zm16.58 1.203c.045.045.067.134.022.201-.535.401-1.092.758-1.671 1.07-.245-.045-.49.089-.691-.067 0-.134.134-.223.223-.29.357-.29.691-.624 1.025-.936l1.092.022zm-1.627 0c.045.045.067.111.022.178-.29.334-.646.535-.936.847a.629.629 0 0 1-.446.267l-.646-.022a.171.171 0 0 1-.045-.111 8.69 8.69 0 0 0 1.248-1.159h.802zm-1.315.023c.089 0 .045.201-.022.267-.535.401-.891 1.181-1.649 1.003-.134 0-.29.022-.379-.067.045-.223.914-1.025 1.114-1.181l.936-.022zm-1.471 0c.089.201-.847 1.047-.958 1.159-.201 0-.691.178-.669 0 0-.067.446-.357.535-.557.111-.178.201-.379.267-.579.267-.022.535-.045.825-.022zm-1.158.022c.223.156-.089.29-.111.446-.156.067-.713.869-.891.735-.178-.201.022-.513-.156-.669l.223-.49c.312-.022.624-.022.936-.022z"/><path d="M26.652 18.875c.223.156-.111.446-.111.446s-.691.78-.869.825-.557.089-.579-.022.357-.602.423-.735l.223-.49c.29-.022.602-.022.914-.022zm-1.181.044c.045.045-.379.802-.535 1.047s-.312.178-.446.178-.245.045-.245-.156a4.75 4.75 0 0 1 .29-.958c.022-.067.067-.089.134-.089h.802zm-2.117.134c0 .379.067.78-.089 1.092-.134.111-.334.067-.49.045a2.405 2.405 0 0 1-.468-1.092c.067-.312.468-.089.713-.178.111.045.357-.067.334.134zm.936-.134c.067.045.134.067.089.223s-.134.691-.379.914c-.134.089-.312.111-.446.022-.067-.045-.022-.29-.022-.379 0-.223-.089-.602.089-.802l.669.022zm-3.165.557c.111.223.334.423.29.691-.089.111-.245.045-.357.022-.334-.29-.624-.624-.914-.914-.022-.089-.045-.178 0-.267.223-.045.423-.045.646-.067.156.156.267.334.334.535zm.869-.534c.134.357.29.713.446 1.047.022.089-.022.178-.111.223-.223-.045-.557.156-.669-.111-.089-.357-.446-.602-.513-.98 0-.067.022-.134.089-.178h.758zm-2.317.022c.267.357.579.713.891 1.047.022.045.045.111.022.156-.178.111-.401.045-.602.067-.513-.267-.891-.758-1.359-1.137.156-.245.513-.067.78-.134h.267zm-1.07.401c.29.201.557.513.825.758-.022.067-.111.111-.178.134h-.646c-.49-.334-.98-.602-1.426-1.047-.022-.089.022-.178.111-.223.312.022.646-.022.936.022l.379.357zm-1.849-.357c.468.379.914.78 1.382 1.159l-.022.089-1.604.022c-.513-.201-.936-.669-1.426-.958-.089-.134-.29-.089-.312-.267a.446.446 0 0 1 .334-.045c.535 0 1.092-.022 1.649 0zm12.991 1.427c0 .111-.134.156-.223.178-.312.067-.557.29-.891.245-.022-.022-.067-.067-.045-.089.156-.134.334-.245.513-.312.134-.223.401-.134.602-.134l.045.111zm-1.069-.112c.045.045.045.111 0 .178-.49.334-1.07.535-1.649.624l-.022-.022c.312-.29.713-.49 1.07-.735.178-.045.401-.022.602-.045z"/><path d="M27.699 20.368c.022.089-.156.156-.245.201-.245.312-.646.334-.891.602.089.067.267-.022.312.111l-.045 1.203-.067 3.187c-.022.49.267 1.047.513 1.203.201.111.446.156.669.134.067 0 .111.045.134.111v1.471c0 .134-.156.201-.468.201H19.41c-.379 0-.423-.089-.423-.334v-1.382c0-.089.067-.156.134-.156.111 0 .201-.022.29-.045.312-.067.669-.357.713-.646.089-1.56.067-3.142-.022-4.724-.067-.29-.423-.067-.624-.178-.914-.156-1.716-.579-2.585-.847l-.022.022c.178-.156.379.067.579-.045h1.27c.446.29.914.535 1.382.713a.511.511 0 0 0 .379.178c.022-.022.067-.022.089-.067-.178-.201-.49-.201-.713-.379a3.56 3.56 0 0 1-.646-.334c-.022-.045-.045-.089 0-.134l.713-.022c.423.201.78.557 1.203.758.022.045 0 .134.067.134.089.022.178-.022.267-.089-.312-.267-.691-.468-1.047-.713a.12.12 0 0 1 .067-.111h.491c.312.201.579.446.825.713l-.045.134a.754.754 0 0 0 .446 0 4.57 4.57 0 0 1-.847-.758c.045-.134.223-.045.334-.067.223.245.423.513.624.758l-.022.067a.317.317 0 0 0 .245.022c0-.223-.267-.29-.312-.49 0-.134-.223-.223-.134-.357.178-.022.334-.045.513-.022.245.245.245.602.49.825l.022-.022a4.239 4.239 0 0 0-.267-.669c-.022-.089.067-.134.156-.134l.379.022c.067.267-.022.579.089.825.111-.045.022-.223.089-.312a1.827 1.827 0 0 1 0-.49c.111-.022.223-.022.357-.022-.022.29-.245.535-.245.847.022.089.089-.022.156-.022.178-.245.178-.557.334-.825.178-.022.357-.045.535-.022.089.089-.045.156-.067.223a1.946 1.946 0 0 0-.357.513c.067.067.111-.045.178-.067l.535-.691h.535c.089.067-.022.156-.045.223l-.557.579a.173.173 0 0 0 .178.045c.045-.134.178-.178.267-.267l.579-.557c.156-.022.334-.022.49 0v.089l-.691.624c-.022.022 0 .045-.022.089.022.045.067.067.111.045.267-.357.691-.513.958-.847.267-.045.579-.045.914-.022zm-3.432 1.002c-.067-.045-.111.022-.178 0-.067.111-.178.223-.156.379.022.045-.022.156.067.134.111-.156.201-.334.267-.513zm-1.002.156c-.089-.045-.245-.067-.334 0s.134.312.178.379c.223.245.468.446.691.691s.423.535.357.869c-.045.156-.423.602-.201.735.089.045.401-.49.401-.602a1.63 1.63 0 0 0-.022-.735c-.201-.535-.735-.869-1.07-1.337zm.512 1.204s-.245-.267-.334-.267c-.022.49-.022.98-.022 1.448v.357c0 .156 0 .134.111.201.045.045.156.156.178.156.045-.624.067-1.248.067-1.894zm-.579-.089-.067-.245c-.29 0-.513.513-.557.758-.067.334 0 .669.134.98.178.334.49.579.825.713.29.134.379.468.579.669.334-.446-.847-1.092-1.07-1.359-.223-.178-.223-.513-.223-.78a.568.568 0 0 1 .089-.379c.111-.111.201-.245.29-.357zm.067 2.496c0-.045-.045-.067-.067-.067-.067.134-.29.178-.267.357l.045.022a.566.566 0 0 0 .29-.312zm.267-.179.201.089c-.111-.022-.267-.223-.29-.022v.312c0 .223.022.468.022.691 0 .067.045.201.134.201.134.022.156-.267.156-.334v-.847zm-.022-3.253.245.201v-.513h-.29zm3.699-1.649c.045-.223 1.003-1.137 1.114-1.181.312-.022.646-.022.958 0zm3.365-1.025c-.29.312-.602.579-.936.847-.067.045-.312.178-.446.267z"/></symbol><symbol id="medicines_sans_frontiers_icon" viewBox="0 0 91 32"><path d="M16.177.238a4.16 4.16 0 0 0-1.501 1.572l-.011.022c-.272.674-.545 1.791-.545 2.335.108.796.427 1.502.898 2.077l-.006-.007a.73.73 0 0 0 .474.218h.349c.136.259.483.068 1.096-.694 1.369-1.593 1.641-3.186.892-4.691-.483-.98-.953-1.328-1.641-.831zm9.171 4.147C18.033 6.833 11.691 9.942 5.85 13.762l.325-.2c-1.096.763-2.056 1.654-1.709 1.654.272 0 .477.477.477.892 0 .347.272.477.422.286l.613-.565c.483-.259.681-.327.817-.259.211.129.422 0 1.368-.477a93.69 93.69 0 0 1 18.294-7.741l.694-.218.061-.545v-.831l-.347-.831c-.272-.831-.34-.831-1.505-.545zm3.425 3.71-3.697 1.464c-3.486 1.396-7.333 2.969-7.333 3.118l.422.415.681.613.681.831c.402.456.79.919 1.164 1.396l.613.742 1.709-1.028 4.528-2.485 2.805-1.525v-.545c-.136-.892-1.096-3.03-1.369-2.969h-.272l.061-.02zm2.335 6.087c-3.152.892-6.257 1.9-9.328 3.05l.409.694c.272.259.545.81.681 1.219l.272.694 2.335-.129h2.335l1.573-.694c1.11-.47 2.791-1.079 4.496-1.631l.569-.159c.347-.415 0-3.404-.483-3.663-.136 0-1.096.129-2.866.613h.007zm-20.412 1.941c-5.481 3.186-9.593 5.869-9.729 6.216-.136.674.409 2.751.694 2.751l1.232-.477 3.833-1.593-2.608 1.593C.693 26.771.149 27.187.019 27.513c-.143.694.545 2.485 1.157 2.9.061.15.681-.197 2.88-1.375 1.505-.831 3.622-2.07 4.793-2.614 1.505-.763 1.913-1.11 1.988-1.246a31.165 31.165 0 0 1 1.096-3.663 74.698 74.698 0 0 1 2.244-6.461l-.188.531.34-1.328-.136-.129-3.486 1.92v.088zm6.305 3.86c-1.153 3.121-2.215 5.579-3.382 7.977l.229-.522c-.272.633-.545.892-.545.545 0-.129 0-.129-.136 0-.211.218-.892.286-.756.15 0-.129-.483-.415-.756-.286l-.272-.068c0-.068-.136-.218-.34-.286-.211-.129-.422-.259-.422-.477l-.061-.259c-.136 0-1.852 1.157-1.988 1.375-.483.477.211 3.248.817 3.248l3.016-1.743 5.277-3.098 2.458-1.375-.061-.347c-.272-1.723-.953-3.663-1.852-4.712-.817-1.089-.817-1.089-1.232-.129zm6.577.831-.974 4.167h.409c.483 0 .409.218.817-1.852l.211-1.049v2.968h.817l.545-1.437.694-1.396-.347 1.464-.34 1.375h.409c.477 0 .334.259.953-2.485l.272-1.654s-.211-.129-.545-.129h-.545l-.62 1.375-.545 1.375v-2.751h-1.232l.007.041zm4.037.347-.409 2.07-.409 1.811h1.232c.967 0 1.239 0 1.239-.218l.061-.415c0-.286 0-.286-.681-.286s-.681 0-.681-.197v-.327c0-.15.197-.218.681-.218.62 0 .681 0 .681-.415l.136-.415h-.62c-.545 0-.613-.129-.477-.545.061-.15.272-.218.817-.218.483 0 .681 0 .681-.197l.136-.477.075-.347H27.68v.347l-.075.041zm2.942-.218-.477 2.07-.409 2.029h1.028c.953 0 1.021 0 1.43-.347.62-.504.967-1.396 1.028-2.356.075-.694 0-.831-.197-1.178-.211-.347-.272-.347-1.3-.347-.817 0-1.028 0-1.096.129h-.007zm1.64.98v.763c0 .674-.613 1.437-1.021 1.437l-.34-.068.197-1.246.272-1.028h.347l.538.129zm1.648-.762-.402 2.07-.408 1.811h1.232c.892 0 1.239 0 1.239-.218l.061-.415c0-.286 0-.286-.681-.286s-.681 0-.681-.197v-.327c0-.15.211-.218.681-.218.681 0 .681 0 .756-.545.061-.286.061-.286-.483-.286-.613 0-.681-.068-.545-.545.075-.15.211-.218.817-.218.694 0 .694 0 .817-.613l.075-.415h-2.335v.347l-.143.041zm3.561-.129c-.885.545-1.505 1.92-1.368 2.968.211.763.953 1.246 1.852 1.089.408-.041.483-.129.545-.545l.136-.477h-.62c-.681.129-.885 0-.885-.694 0-1.089.681-1.791 1.505-1.634.408 0 .483 0 .545-.347v-.504c0-.068-.272-.129-.681-.129s-.681.068-1.096.286h.061zm2.335-.15-.408 1.872-.483 2.07c0 .129 0 .218.408.218.483 0 .483 0 .62-.504l.681-3.663c0-.129-.749-.129-.817 0zm1.369.286-.408 2.07-.408 1.811h.408l.408-.088.272-1.375.272-1.246.347 1.375.272 1.328h1.096l.422-2.029.408-2.07c0-.129-.136-.197-.347-.129-.408 0-.408 0-.62.892l-.272 1.375-.136.504-.197-1.246c-.347-1.654-.272-1.593-.892-1.593-.483 0-.545 0-.62.347v.068zm3.969-.218c-.681.504-.681 1.178-.197 2.158.347.545.408.674.272.892-.136.129-.272.129-.681.068h-.545v.415l-.075.477.681.129c1.028.15 1.641-.477 1.511-1.505a2.404 2.404 0 0 0-.272-.694c-.347-.545-.422-.831-.272-1.028a.59.59 0 0 1 .817-.068c.136.068.197 0 .272-.347.061-.347.061-.415-.075-.565-.34-.197-1.096-.129-1.368.068h-.075zm4.467-.068a2.67 2.67 0 0 0-.483.347c-.422.477-.347 1.028.136 1.872.272.545.34.674.197.892-.061.068-.272.129-.681.129-.483 0-.483 0-.545.347l-.075.477.681.129c1.368.15 2.056-.96 1.239-2.267-.408-.694-.408-1.028 0-1.089h.477c.211.129.272.129.347-.286l.075-.504c-.075-.129-1.239-.197-1.368-.068z"/><path d="m51.316 22.897-1.164 2.07h.477c.545 0 .545 0 .817-.477.211-.565.272-.565.831-.633h.545v1.178h1.096l-.061-.613c-.136-.763-.272-2.989-.272-3.404 0-.197-.075-.259-.545-.259h-.545l-1.164 2.138zm1.504 0h-.62l.272-.633.272-.545v.545c.075.286.075.545 0 .545l.075.088zm2.057-1.743-.483 2.07-.408 1.811h.408l.483-.088.272-1.375.272-1.246.061.477.347 1.375.136.831h.545c.545 0 .545 0 .681-.477l.681-3.663c0-.068-.136-.129-.34-.068h-.422l-.272 1.307-.272 1.246-.347-1.246-.272-1.307h-.477c-.545 0-.613 0-.681.286l.075.068zm4.098-.259a2.662 2.662 0 0 0-.477.327c-.408.504-.408 1.049.075 1.872.34.545.408.694.272.892-.136.15-.272.15-.681.15-.545-.088-.483-.088-.62.477v.347l.483.129c.749.068 1.157 0 1.505-.415.34-.477.34-1.246 0-1.852-.483-.694-.483-1.049-.075-1.11h.483c.211.129.272.129.347-.218.061-.347 0-.477 0-.545-.211-.197-1.028-.197-1.368-.068h.054zm3.643.068-.422 2.07-.408 2.009h.483l.477-.068.136-.831.136-.694h.545c.62 0 .694-.068.694-.613l.136-.347h-.545c-.545.068-.545.068-.483-.286 0-.347 0-.347.681-.415.62 0 .681 0 .756-.286.136-.694.136-.694-1.028-.694-.756 0-1.096 0-1.164.15h.007zm2.73-.068-.409 1.852-.409 2.07c-.075.15 0 .218.334.218h.483l.211-1.049c.061-.545.197-.96.272-.96l.136.694c.136 1.307.136 1.307.681 1.307h.483l-.143-.694c-.197-1.049-.197-1.089.143-1.307.477-.286.817-1.375.545-1.872l-.347-.259c-.347-.129-1.913-.129-2.056 0h.075zm1.369.892c.211.129.075.694-.197.763-.681.197-.681.129-.483-.633.075-.259.409-.347.681-.129zm2.342-.762c-.545.286-1.028.96-1.232 1.811-.211.742-.211.96 0 1.505.409.96 1.852 1.028 2.73.129.967-1.028 1.164-2.968.211-3.445-.409-.347-1.164-.259-1.716 0zm1.028.694c.136 0 .197.259.272.477.197.831-.409 1.92-1.096 1.92-.347 0-.545-.197-.545-.742 0-1.049.681-1.94 1.368-1.654zM72 21.304l-.409 2.07-.34 1.654h.409l.409-.068.272-1.396.272-1.246.211.919c.409 1.981.272 1.791.885 1.791h.545l.483-2.07.409-2.07c0-.088-.197-.129-.409-.088-.347 0-.347 0-.545.919l-.272 1.375-.136.477-.545-2.771h-1.096l-.143.504zm3.5-.218c-.211.545-.136.694.272.694h.409l-.347 1.375a45.22 45.22 0 0 1-.34 1.593c0 .218 0 .286.409.286.545 0 .409.197.953-2.07l.211-1.11h.409c.409-.068.477-.129.545-.415l.061-.477c.075-.15-.061-.197-1.232-.197h-1.3l-.061.327zm2.941.068-.483 2.09-.409 1.791h.967l.409-2.009.477-2.07c0-.15-.136-.197-.477-.197-.409 0-.409 0-.483.327v.068zm1.096 1.654-.409 2.09c0 .068.483.129 1.164.129h1.157l.136-.477.075-.415h-1.511l.075-.347c.136-.347.197-.415.681-.415.613 0 .681 0 .681-.545l.136-.347h-.62c-.545.068-.613 0-.477-.415 0-.286.136-.286.749-.286.694 0 .694 0 .817-.347.211-.674.211-.674-1.096-.674h-1.157l-.409 2.049zm3.227-1.654-.409 2.09-.409 1.791h.477c.409 0 .409 0 .545-.545l.211-1.11.136-.545.272 2.206h.545l.483-.068-.136-.919c-.136-.674-.136-.81 0-.892l.409-.477c.34-.347.34-.477.34-.96 0-.831-.272-.96-1.43-.96-.967 0-.967 0-1.028.327v.068zm1.369.565c.211.068.211.613 0 .763l-.409.197h-.409l.136-.415.061-.545h.62zm1.368.831-.409 2.138c-.061.347-.061.347 1.096.347h1.239l.075-.415.061-.415h-.681c-.681-.068-.817-.15-.681-.633.061-.129.272-.197.681-.197.545 0 .681 0 .681-.286.136-.613.136-.694-.545-.613-.483.068-.545 0-.483-.15v-.477c0-.129.211-.129.817-.129.694 0 .756 0 .817-.286.143-.674.143-.674-1.096-.674h-1.157l-.422 1.791zm3.568-1.593c-.422.259-.694.892-.545 1.307l.334.831c.483.694.409.96-.347.96-.545 0-.545 0-.681.347v.504c0 .197 1.096.259 1.511.129.817-.347.953-1.246.409-2.288-.272-.477-.347-.674-.272-.831.136-.259.545-.347.817-.129.197.068.197 0 .272-.347l-.075-.545c-.197-.218-1.157-.129-1.43.068zm-66.036 6.216a4.154 4.154 0 0 1-.672.667l-.009.007c-.477.218-.545.286-.409.504.075.129.211.129.62 0 .136-.15.136-.068.136.068s-.211.197-.545.197c-.347 0-.409 0-.483.286 0 .347 0 .347.409.347s.409 0 .347.286c0 .259-.075.347-.409.347-.272 0-.409 0-.483.259 0 .218 0 .218 2.669.218 2.335 0 2.744 0 2.744-.218.075-.259.075-.259-.347-.259-.272 0-.334 0-.272-.218v-.197l.483-.129c.409 0 .483 0 .545-.347 0-.286 0-.286-.409-.286-.347 0-.347 0-.347-.259 0-.218.136-.286.347-.347.272 0 .347-.068.347-.286s-.075-.218-1.852-.218h-1.92l.272-.259c.272-.218.272-.218 0-.286h-.347c-.061-.068-.272 0-.409.218v-.088zm.817 1.028-.061.286-.272.129c-.136.088-.272 0-.272-.068 0-.347.136-.545.409-.545.211 0 .211 0 .211.197h-.007zm1.028-.129c0 .415-.136.694-.34.545-.211 0-.211-.068-.211-.197v-.347l.347-.129.197.068v.068zm1.096.217c0 .415-.545.477-.545.129s.075-.415.347-.415c.211 0 .272 0 .211.286h-.007zm-2.457 1.246c0 .197-.075.259-.272.347-.211 0-.272 0-.211-.286 0-.286.075-.347.272-.347.211 0 .272 0 .211.286zm1.164-.068-.075.259-.272.15c-.136 0-.272 0-.272-.15 0-.259.211-.477.409-.477.211 0 .272 0 .211.218zm1.028 0c0 .259-.075.327-.347.415-.211 0-.272 0-.211-.218l.075-.286.272-.129c.211 0 .272 0 .211.286v-.068zm38.557-2.07c0 .674-.136.674-.62.674s-.545 0-.272-.347c.211-.197.136-.327-.211-.327-.272 0-.34.041-.477.327a5.947 5.947 0 0 1-1.157 1.39l-.007.006c-.211.129-.211.129 0 .259.272.286.272.286.817-.259.408-.504.483-.504 1.096-.504h.62l-.061.347-.136.415s-.408.15-.892.15c-.681 0-.817.068-.892.197 0 .197.075.286.817.286l.817.068-.061.545-.136.477h-1.164c-1.164 0-1.232 0-1.368.218v.286h5.535v-.286c0-.286 0-.286-1.096-.218l-1.164-.068c0-.068 0-.347.136-.613l.061-.415h.892c.892 0 .953 0 1.028-.286 0-.197 0-.197-.892-.197h-.953l.061-.415.136-.415 1.164-.088c.96 0 1.028 0 1.028-.259 0-.218 0-.218-1.028-.218h-1.021v-.347l.136-.477c.075-.129 0-.197-.34-.197-.409 0-.409 0-.409.327v-.041zm-19.589 0H42.41l-.197.96-.211 1.028h.545c.483 0 .545 0 .347.15l-.953.395c-.694.218-.694.286-.545.504.129.197.129.197.817 0l.681-.286-.075.415c-.197.286-.681.545-1.368.694-.211.129-.211.129-.075.347.136.197.211.197.694 0 .885-.286 1.368-.694 1.573-1.464 0-.218 0-.259-.136-.259-.143 0-.075-.088.136-.286.408-.286.817-.286 1.157 0 .211.197.211.286.136.286-.136 0-.272.259-.408.892l-.197.96h.408c.34 0 .408 0 .408-.286 0-.129 0-.477.136-.763l.075-.545.681.286.545.259.197-.259.272-.286-.545-.218-.817-.395c-.272-.15-.272-.15.272-.15h.681v-.477l.272-1.049.075-.545h-2.335l.007.088zm-.483.545c0 .129-.136.197-.681.197s-.62 0-.545-.197c0-.15.197-.218.681-.218.408 0 .545 0 .545.218zm2.049 0c0 .129-.197.197-.681.197-.681 0-.817-.068-.681-.259l.681-.15c.483 0 .681 0 .681.218zm-2.185.892c0 .129-.211.129-.694.129-.477 0-.613 0-.613-.129 0-.218.136-.218.681-.218s.681 0 .62.218zm2.049 0c-.061 0-.34.129-.756.129-.681 0-.681 0-.681-.129.136-.286 1.437-.347 1.368 0h.075zm5.685-.545-.136.96h1.3c.817 0 1.368 0 1.368-.129l-.136-.15s-.061 0 0-.129c0-.129-.061-.218-.197-.286h.136c.408-.068.347-.259-.136-.259-.211 0-.347-.088-.272-.15l.34-.129.272-.068c0-.15-.136-.218-.477-.218h-.545l.681-.068c.483 0 .62-.068.62-.218 0-.197-.211-.197-1.3-.197h-1.239l-.197 1.049h-.075zm.967-.435c-.211.218-.211.286-.136.286.136 0 .136 0 0 .068-.211.088-.143.286.136.286.197 0 .197 0 0 .129-.211.088-.347.218-.272.286l-.143.068-.061-.129.136-.694c.061-.415.136-.545.347-.545.197 0 .197 0 0 .286v-.02zm.477.286s-.061.15-.197.15c-.211 0-.211 0-.075-.15.211-.197.272-.197.272 0zm.408.694c.136.129.136.129-.272.129-.477 0-.477 0-.272-.129.075-.129.211-.218.272-.218l.272.218z"/><path d="m55.149 27.391-.347.327c-.197.129-.272.286-.197.286.136.068.136.129 0 .129-.211 0-.136.286.197.477.272.15.272.218.211.286a.665.665 0 0 1-.408.068c-.136 0-.211.088-.211.15 0 .129.211.197.347.129.681 0 1.505 0 1.777.129l-2.397.088c-2.533 0-2.73 0-2.73.197-.075.218 0 .218.946.218 1.028 0 1.028 0 .272.041h-.817l-.136.565c-.082.456-.17.919-.272 1.375 0 0 .62 0 .681-.129 0-.068.694-.129 1.709-.129 1.028 0 1.641 0 1.641.129l.272.129c.286 0 .347 0 .558-.96l.211-.892h-.892c-.681-.088-.681-.088.334-.129 1.096 0 1.096 0 1.096-.286v-.504c.075-.068 0-.129-.272-.129-.477 0-.545-.129-.129-.347l.272-.286c0-.068.061-.197.272-.327.136 0 .272-.218.272-.286 0-.15-.347-.286-.408-.15l-.272.15c-.136 0-.136 0-.136-.218 0-.259 0-.259-.694-.259-.477 0-.749 0-.749.129v.02zm.953.456c0 .218 0 .286-.545.286h-.545l.272-.197c.34-.347.681-.415.817-.088zm0 .694c0 .068-.483.15-.62 0h.62zm-1.913 1.376zm-1.239.435a.67.67 0 0 1-.398.129h-.011.001c-.211 0-.211 0 0 .197.211.15.211.15 0 .15-.136 0-.211 0-.211-.218 0-.347 0-.395.422-.395.272 0 .272 0 .197.129zm1.232.13c0 .197.136.286.545.286.694 0 .967-.218.694-.415-.136-.088-.136-.129 0-.129s.197.041.197.259c0 .286-.061.286-1.368.347h-1.368l.477-.286c.545-.327.756-.415.817-.068zm.967-.13-.211.129c-.061 0-.136 0-.136-.129 0 0 .075-.129.211-.129s.197.041.136.129zm-.136.831zM31.66 29.46l-.483 2.206h5.345l.136-.415.408-2.138.408-1.723h-5.413l-.409 2.07zm3.969-1.613.061.286c.136.068.075.15-.136.15-.197 0-.272-.088-.197-.218 0-.129 0-.218-.272-.218-.211 0-.347.088-.347.218s-.136.218-.953.218c-.756 0-.953 0-1.028.129 0 .197.075.197.953.197h.967v.694c0 .694-.136 1.049-.347 1.049v-.129c0-.088-.075-.15-.483 0h-1.096c-.408 0-.483 0-.483.259s0 .286 1.437.068h.136c-.197.068-.136.286.075.347.136.068.34 0 .545-.129.347-.218.347-.218.545 0 .272.327.681.259.892-.15.211-.259.211-.347 0-.395-.075-.088-.136-.088-.272 0-.075.197-.136.197-.211.129-.061-.129 0-.286.272-.694.422-.545.422-.613.211-.694-.211-.129-.272-.068-.483.218l-.197.347v-.919h.545c.483 0 .545 0 .62-.129 0-.129 0-.197-.143-.286-.129 0-.129 0 0 0l-.061-.259c-.211-.15-.211-.218.136-.218l.347.129-.545 2.771-.143.477h-2.049c-1.852 0-1.988 0-1.913-.197.252-.98.483-1.961.681-2.968 0-.088.545-.15 1.505-.15 1.096 0 1.505 0 1.437.068z"/><path d="m32.749 29.46-.136.545h.817c.756 0 .817 0 .817-.347l.143-.545c.061-.218 0-.218-.694-.218h-.885l-.075.565zm1.096 0c0 .068-.136.129-.34.129-.211 0-.272 0-.211-.129 0-.15.136-.218.272-.218s.272.068.272.218zm-12.187 1.505-.483.477.272.15c.211.129.272.129.694-.286.477-.415.613-.694.409-.694l-.272-.068s-.347.129-.62.415zm2.88-.415c-.272 0-.272.068-.211.633.075.613.075.545.409.477.211-.068.272-.129.272-.415 0-.545-.136-.694-.477-.694zm1.232.068c-.136 0-.136.15 0 .477.211.218.272.436.272.504s.075.129.272 0c.483-.15.483-.15.211-.694-.272-.415-.483-.477-.756-.286zm-2.73.218v.477c-.143.415-.075.415.197.415.347 0 .409-.197.409-.763 0-.347 0-.347-.272-.347-.211 0-.347 0-.347.15l.007.068z"/></symbol><symbol id="razom_icon" viewBox="0 0 96 32"><path d="M73.6 11.44c-1.28.16-2.4.8-3.04 1.6-2 2.64-.88 6.4 2.08 7.36 2 .64 4.08.16 5.44-1.28 2.56-2.72.96-7.12-2.8-7.68-.8-.16-.96-.16-1.68 0zm2 2.4a2.404 2.404 0 0 1 1.396 2.18c0 .726-.323 1.378-.833 1.818l-.003.003c-1.6 1.36-4.24.32-4.16-1.84 0-.96.64-1.92 1.6-2.32.48-.16 1.44-.08 2 .16zM36.72 16v4.48h2.24V18.8c0-1.92-.16-2 1.28.24l.96 1.44h1.36c1.12 0 1.36 0 1.36-.16a137.108 137.108 0 0 0-2.788-3.572l.228.292.48-.48c.8-.32 1.12-.8 1.28-1.6.16-1.36-.32-2.4-1.36-2.96l-.64-.32H36.8L36.72 16zm3.76-2.24c.24.24.32.4.32.8 0 .64-.4.96-1.2.96h-.64v-2.08h.56c.48 0 .64 0 .96.32zM48.24 16l-1.68 4.4 1.2.08h1.2l.24-.8.24-.72h3.36l.24.8.24.72h2.4l-1.6-4.16-1.6-4.4-.16-.32h-2.4L48.24 16zm2.96 1.12a6.947 6.947 0 0 1-1.064-.001l.024.001.8-2.64c.16-.24.24 0 .64 1.2l.48 1.44h-.88zm7.92-4.56v1.04h1.68l1.76.08-1.84 2.96-2.08 3.44-.32.48h7.6v-1.92H62.4l1.92-3.36 2.08-3.44c0-.08-.48-.16-3.6-.16h-3.6l-.08.88zm25.12-.88-1.44 8.48v.32h2.24l.32-2.4.4-2.4c0-.24.96 1.92 1.84 4.24.16.56.24.56.64.56h.48l.96-2.4 1.12-2.56.4 2.4.4 2.56h1.12c1.12 0 1.12 0 1.12-.24l-1.44-8.56h-2.32l-.8 2.24-.96 2.32-.88-2.32-.88-2.24h-2.32zM22.528 27.328v-4.56h-4v5.2H4.048v-14.64h14.48v5.28h4v-9.2H.128v22.56h22.4v-4.64z"/><path d="M9.024 4.752v4.56h4v-5.2h14.48v14.64h-14.48v-5.28h-4v9.2h22.4V.112h-22.4v4.64z"/></symbol><symbol id="action_against_hunger_icon" viewBox="0 0 53 32"><path d="M7.912 4.941c.496-1.067 1.243-2.061 2.133-2.773a7.004 7.004 0 0 1 2.807 6.03l.001-.019A7.12 7.12 0 0 1 16.906 6.4a7.025 7.025 0 0 1-2.478 5.68l-.01.008a7.465 7.465 0 0 1-1.284.978l-.034.019-1.883 1.315c-.357.248-.64.533-.853.925-.107.141-.357.141-.464 0a2.885 2.885 0 0 0-.668-.742l-.006-.005c-.568-.499-1.245-.891-1.848-1.317-.64-.427-1.317-.853-1.885-1.421a7.166 7.166 0 0 1-2.205-5.452v.013c1.493.141 2.917.781 4.053 1.779-.035-1.104.144-2.24.605-3.237zM38.027 8a3.61 3.61 0 0 1 2.168.499c.552.347.965.875 1.173 1.493a3.128 3.128 0 0 1-.816 3.2 3.037 3.037 0 0 1-2.058.795 3.498 3.498 0 0 1-1.588-.378l.02.009a2.866 2.866 0 0 1-1.273-1.264l-.007-.016a3.22 3.22 0 0 1-.246-2.12l-.004.021a2.776 2.776 0 0 1 1.059-1.629l.008-.005a3.174 3.174 0 0 1 1.551-.604L38.028 8zm.106 1.421a1.753 1.753 0 0 0-1.067.747c-.427.64-.179 1.565.355 2.027a1.593 1.593 0 0 0 1.542.281l-.011.003a1.64 1.64 0 0 0 .992-1.966l.003.011c-.213-.712-1.067-1.245-1.779-1.067zm-12.445-.888c.571-.355 1.211-.533 1.885-.461.355.035.712.141 1.067.283v1.779a1.6 1.6 0 0 0-2.174-.351l.006-.004c-.712.496-.819 1.563-.285 2.24.355.461 1.032.64 1.6.496a1.64 1.64 0 0 0 .819-.568v1.779l-.853.213c-.784.141-1.565-.107-2.205-.533a2.789 2.789 0 0 1-1.025-1.261l-.007-.019a3.168 3.168 0 0 1-.107-1.813c.179-.712.64-1.387 1.28-1.779zm-4.693-.354h1.6l2.099 5.653h-1.565l-.355-.96h-1.992l-.427.923h-1.563l2.133-5.616zm.784 1.776-.605 1.779h1.208zm7.322-1.776h3.912v1.28h-1.28v4.373h-1.421V9.421h-1.245V8.178zm4.339 0h1.421v5.653H33.44zm8.533 0h1.421l2.704 3.448V8.179h1.456v5.616h-1.456l-2.667-3.448v3.448h-1.459zm-17.352 7.216c.499-.355 1.173-.533 1.813-.496a2.47 2.47 0 0 1 1.387.533c.251.213.464.496.605.816l-1.208.464a1.121 1.121 0 0 0-.427-.571 1.099 1.099 0 0 0-1.353.107l.001-.001a1.772 1.772 0 0 0-.35 1.931l-.004-.012c.107.285.32.571.603.712a1.374 1.374 0 0 0 1.075-.003l-.009.003a.986.986 0 0 0 .463-.707l.001-.005h-1.032v-.995h2.488c0 .355 0 .747-.107 1.139a2.288 2.288 0 0 1-1.16 1.415l-.013.006a2.81 2.81 0 0 1-1.243.286 2.81 2.81 0 0 1-.659-.077l.019.004a2.353 2.353 0 0 1-1.525-1.057l-.006-.01a2.881 2.881 0 0 1-.279-2.046l-.004.02a2.387 2.387 0 0 1 .917-1.489l.006-.004zm16.427.144a1.586 1.586 0 0 1 1.17-.605h.004a3.184 3.184 0 0 1 1.688.4l-.016-.008-.499.995a1.399 1.399 0 0 0-.886-.355h-.002a.7.7 0 0 0-.46.317l-.002.003c-.037.141 0 .283.141.355.248.213.568.248.853.355.355.107.712.285.888.605.179.32.179.712.144 1.067a1.422 1.422 0 0 1-.567.957l-.004.003c-.461.355-1.067.461-1.635.355a3.053 3.053 0 0 1-1.352-.496l.571-1.067c.243.256.557.443.91.531l.013.003c.213 0 .464 0 .64-.144.144-.107.179-.355.072-.496a.694.694 0 0 0-.355-.285l-1.104-.355a.995.995 0 0 1-.495-.706l-.001-.006a1.77 1.77 0 0 1 .286-1.427l-.004.005zm-20.373-.464h1.424l1.776 4.837h-1.349l-.32-.853h-1.707c-.107.283-.179.568-.357.816h-1.315l1.885-4.8zm.178 3.024h1.032l-.499-1.531zm9.459-3.059h1.387l1.776 4.835H32.16l-.32-.853h-1.707l-.355.819h-1.317zm.176 3.021h1.032l-.533-1.528zm3.2-3.021h1.245v4.835h-1.245zm1.779 0h1.245l2.275 2.952V15.04h1.245v4.835h-1.245l-2.275-2.987v3.024h-1.28V15.04zm8.853 0h3.307v1.067h-1.032v3.768h-1.28v-3.768h-.995zm-8.712 6.472a2.821 2.821 0 0 1 1.821-.533h-.007c.571 0 1.139.141 1.6.461.307.255.55.576.706.944l.006.016-1.245.533c-.107-.213-.248-.461-.461-.605a1.26 1.26 0 0 0-1.067-.141 1.338 1.338 0 0 0-.709.667l-.003.008c-.189.4-.24.851-.141 1.28.064.375.257.696.531.923l.002.002a1.239 1.239 0 0 0 1.359.138l-.007.003c.283-.141.427-.427.461-.709l-1.067-.037v-1.067h2.632c0 .571-.037 1.173-.285 1.672a2.21 2.21 0 0 1-1.265 1.169l-.015.005a3.003 3.003 0 0 1-1.869.102l.021.005a2.497 2.497 0 0 1-1.488-1.023l-.006-.009a3.04 3.04 0 0 1-.389-2.153l-.003.019c.086-.659.411-1.23.884-1.632l.004-.003zm-16.603-.427h1.315v2.027h1.92V21.12h1.352v5.155H22.24v-2.133h-1.885v2.133H19.04v-5.189zm5.12 0h1.315v2.843c0 .32 0 .712.248.997.179.213.464.283.747.283.251 0 .464-.141.605-.355.179-.213.179-.499.213-.781v-2.987h1.28v3.2c0 .496-.072 1.067-.427 1.421-.461.533-1.173.712-1.848.675-.64 0-1.352-.213-1.779-.709-.355-.427-.392-.997-.392-1.531v-3.056zm4.976 0h1.352l2.419 3.163v-3.163h1.349v5.155h-1.349l-2.419-3.128v3.128h-1.352zm11.379 0h2.88v1.136h-1.565v.891h1.493v1.136h-1.493v.891h1.565v1.136h-2.915v-5.189zm3.379 0h1.989l.049-.001c.417 0 .805.119 1.134.326l-.009-.005c.282.174.488.449.569.773l.002.009c.115.429.064.885-.144 1.28-.187.35-.519.601-.915.673l-.008.001 1.6 2.099h-1.672l-1.245-1.955v1.955H43.86zm1.349 1.067v1.243c.251 0 .533 0 .784-.141.32-.179.355-.64.107-.888-.213-.251-.571-.251-.891-.251zM9.475 16.995a5.902 5.902 0 0 1 6.066 3.625l.014.039c.273.66.432 1.427.432 2.23 0 2.245-1.238 4.2-3.068 5.221l-.03.016a5.86 5.86 0 0 1-2.818.711 5.936 5.936 0 0 1-.621-11.84l.026-.002zm.533 2.064c-.069 0-.069.069-.141.141l-.499.499c-.568.427-1.173.781-1.669 1.315a3.164 3.164 0 0 0-.32 3.733 3.203 3.203 0 0 0 2.713 1.504 3.194 3.194 0 0 0 2.613-1.353l.007-.01a3.198 3.198 0 0 0-.107-3.661c-.357-.499-.853-.853-1.352-1.173-.355-.285-.747-.533-1.032-.925 0-.069-.141-.107-.213-.069z"/></symbol><symbol id="world_vision_icon" viewBox="0 0 128 32"><path d="M85.235.179c.096.32.506.262.762.301 4.407.667 8.348 1.709 12.106 3.123l-.407-.134c11.111 4.182 20.392 11.073 27.343 19.887l.101.132a81.31 81.31 0 0 1 1.792 2.381c.262.384.531.947.909 1.19V.179H85.236z"/><path d="M118.214 1.958c0 .909-.058 2.106-.512 2.906-.877 1.555-3.072 1.6-4.634 1.6v.058c1.242 0 3.168.019 4.115.96.486.48.57 1.293.659 1.946.237 1.664.371 3.43.371 5.114h.051c.038-1.696.166-3.488.422-5.165.096-.64.173-1.472.659-1.946.896-.87 2.899-.909 4.064-.909v-.051c-1.504-.013-3.917-.102-4.659-1.702-.41-.89-.16-1.958-.538-2.81zM40.678 18.189v7.194h2.566V11.009h-2.566v7.181zm11.7-4.333c0 1.574-.019 2.861-.038 2.861a4.639 4.639 0 0 0-1.503-.684l-.033-.007a5.045 5.045 0 0 0-1.278-.161 5.144 5.144 0 0 0-2.862.864l.019-.012c-1.344.896-1.971 2.208-1.971 4.102 0 .742.019.896.154 1.344.135.507.348.951.629 1.344l-.008-.012a4.908 4.908 0 0 0 4.526 2.072l-.021.002a4.696 4.696 0 0 0 2.184-.842l-.014.01c.173-.122.333-.218.352-.218.026 0 .032.192.032.429v.435h2.4V11.009H52.38v2.848zm-1.421 3.149c.384.115.768.346 1.178.678l.243.192v5.651l-.269.237c-.442.365-.98.632-1.569.757l-.024.004c-1.293.192-2.394-.704-2.829-2.31-.085-.421-.133-.906-.133-1.402s.048-.98.141-1.449l-.008.047c.326-1.216 1.088-2.157 1.965-2.432.358-.115.896-.102 1.306.026zm23.43-5.197a1.41 1.41 0 0 0-.802 1.929l-.004-.009c.208.453.657.762 1.179.762l.039-.001h-.002c1.05 0 1.664-1.05 1.203-2.016a1.385 1.385 0 0 0-1.623-.663l.01-.003zm12.615.006c-.282.083-.64.403-.781.704a1.575 1.575 0 0 0 .01 1.271l-.004-.01c.282.531.915.826 1.504.691.787-.179 1.216-.96.992-1.792a1.391 1.391 0 0 0-.633-.758l-.007-.004c-.275-.141-.781-.192-1.088-.102h.006zM60.73 12.89l2.733 6.298 2.688 6.189h1.152l2.675-6.24 2.701-6.291c.013-.032-.275-.058-.685-.058h-.704l-1.888 4.422c-1.792 4.218-1.882 4.416-1.952 4.256l-1.856-4.403-1.786-4.243-1.555-.019c-1.472-.013-1.555 0-1.523.09zm-56.634-.026 4.602 12.493 1.427.032 1.478-3.84c.813-2.112 1.491-3.834 1.517-3.821.013.013.685 1.741 1.478 3.84l1.459 3.814h1.427l2.298-6.227c1.261-3.424 2.291-6.246 2.291-6.272 0-.019-.314-.038-.691-.038h-.704l-1.6 4.333c-.95 2.732-1.5 4.166-2.067 5.591l.442-1.258c-.013 0-.666-1.683-1.453-3.75l-1.421-3.757h-1.491l-1.421 3.731c-.787 2.048-1.44 3.738-1.466 3.75-.019.019-.166-.333-.32-.768l-1.536-4.326-1.248-3.546H5.599c-.826 0-1.498.006-1.498.013l-.006.006zm32.717 3.072a2.829 2.829 0 0 0-1.203.691l-.314.294.09-.896h-2.528v9.357h2.573l.006-3.821.019-3.827.243-.179c.218-.147.301-.173.634-.173.48 0 .8.154 1.664.819l.634.48.077-.186.512-1.165c-.023.095.121-.232.263-.56l.166-.432c0-.032-.64-.256-.941-.346a5.115 5.115 0 0 0-1.924-.054l.029-.004zm69.83 0a5.663 5.663 0 0 0-1.709.698 2.877 2.877 0 0 1-.449.249l-.018.007c-.032 0-.051-.192-.051-.429v-.435h-2.342v9.357h2.566v-7.558l.307-.23c1.35-1.024 2.778-.909 3.597.294.133.212.256.457.355.713l.01.029.154.429.038 6.323h2.56v-2.848c0-1.658-.019-2.995-.058-3.219a4.168 4.168 0 0 0-1.203-2.38h-.001a4.514 4.514 0 0 0-3.792-.993l.028-.005h.006zm-81.414.058a4.674 4.674 0 0 0-3.781 3.327l-.008.033a3.872 3.872 0 0 0-.134 1.363l-.001-.013c0 1.05.064 1.382.448 2.17a4.423 4.423 0 0 0 2.035 2.062l.026.011c.649.33 1.415.526 2.225.531h.002c2.534.115 4.48-1.19 5.12-3.424.115-.384.128-.589.128-1.35 0-1.037-.064-1.357-.454-2.163a4.628 4.628 0 0 0-3.066-2.464l-.031-.006c-.576-.147-1.914-.192-2.509-.077zm1.933 1.024c.346.173.704.57.928 1.018.704 1.408.704 3.923.006 5.325-.467.941-1.274 1.389-2.176 1.197-1.114-.237-1.728-1.267-1.907-3.168a8.218 8.218 0 0 1 .166-2.49c.224-.883.704-1.6 1.254-1.888a2.105 2.105 0 0 1 1.741.005l-.013-.005v.006zm53.017-1.024a4.212 4.212 0 0 0-1.591.612l.017-.01a2.723 2.723 0 0 0-1.017 1.148l-.007.017c-.179.358-.186.403-.186 1.069s.006.704.192 1.075c.211.448.691.928 1.229 1.235.302.157.709.342 1.124.511l.111.04c1.114.448 1.459.627 1.728.896.403.397.486.832.237 1.331-.326.672-1.235.89-2.259.544a3.734 3.734 0 0 1-1.507-1.02l-.003-.004-.467-.467-.352.787-.384.858c-.038.096.678.448 1.376.685.631.228 1.358.36 2.117.36.546 0 1.076-.068 1.582-.197l-.044.01c.659-.198.992-.384 1.44-.8.634-.602.896-1.331.864-2.349-.019-.461-.051-.608-.173-.877-.403-.832-1.024-1.254-2.893-1.997-.518-.198-1.075-.435-1.222-.525-.314-.173-.653-.518-.704-.736-.09-.371.179-.845.602-1.062.896-.467 2.022-.192 3.117.742.179.16.352.275.378.25.019-.026.186-.365.358-.762.237-.538.301-.73.25-.768-.141-.083-1.107-.39-1.613-.506-.678-.154-1.754-.192-2.298-.09zm14.221-.026a4.69 4.69 0 0 0-4.063 5.042l-.001-.017c.128 2.317 1.664 4.013 3.994 4.429.71.128 1.888.077 2.522-.096 2.042-.519 3.528-2.341 3.528-4.51l-.002-.143v.007l.001-.113a4.609 4.609 0 0 0-3.535-4.482l-.031-.006c-.538-.141-1.856-.192-2.413-.109zm1.856 1.075c.896.493 1.427 1.856 1.427 3.661 0 2.368-.877 3.872-2.272 3.891-.55 0-.922-.141-1.318-.512-.768-.717-1.082-1.875-1.018-3.712.038-1.005.128-1.485.384-2.125.218-.512.672-1.05 1.062-1.242.518-.256 1.229-.243 1.728.038h.006zm-23.053 3.661v4.678h2.566v-9.357h-2.566v4.678zm12.839 0v4.678h2.566v-9.357h-2.566v4.678z"/></symbol><symbol id="sergiy_prytula_icon" viewBox="0 0 204 32"><path d="M46.465 6.666c-.676.338-1.285.473-1.894.473-2.029 0-3.111-1.353-3.111-3.179S42.745.646 44.639.646c.676 0 1.285.203 1.623.338v.947c-.473-.271-.947-.406-1.623-.406-1.353 0-2.164 1.082-2.164 2.435s.812 2.367 2.164 2.367c.609 0 1.082-.203 1.488-.473l.271.812zM48.02.782h1.014V3.42h3.179V.715h1.014v6.358h-1.014V4.165h-3.179v2.841H48.02zm8.928-.067h.744l2.502 6.358h-1.082l-.609-1.623h-2.3l-.676 1.623h-1.014zm1.217 3.922-.541-1.488-.338-1.014-.338 1.014-.541 1.488zM61.547.782h1.556c.676 0 1.015 0 1.353.203.676.338.879.879.879 1.488 0 .879-.473 1.42-1.217 1.691.203.135.406.473.744 1.014l1.082 1.894h-1.15l-.947-1.691-.676-.879h-.676v2.57h-.947zm1.488 2.909c.338 0 .609 0 .812-.203.271-.135.473-.473.473-.879 0-.338-.135-.676-.406-.812a1.452 1.452 0 0 0-.812-.271h-.541V3.69h.473zM67.431.782h1.014v6.29h-1.014zm4.261.812h-1.894V.715h4.87l-.338.879h-1.691v5.411h-1.014zm5.614 2.976L75.074.715h1.15l1.488 2.908L79.268.715h1.082L78.253 4.57v2.502h-1.014zM84.272.782h3.382l-.338.812h-2.029V3.42h2.029v.744h-2.029v2.841h-1.014zm4.599 3.111c0-1.894 1.353-3.246 3.179-3.246S95.161 2 95.161 3.893s-1.353 3.246-3.111 3.246c-1.826 0-3.179-1.285-3.179-3.246zm5.208 0c0-1.353-.744-2.367-2.029-2.367-1.353 0-2.097.879-2.097 2.367s.812 2.435 2.029 2.435c1.353 0 2.097-.947 2.097-2.435zm2.976 1.962c-.135-.271-.203-.676-.203-1.15V.782h1.014v3.923c0 .338 0 .676.135.879.203.473.676.812 1.353.812s1.15-.338 1.353-.812c.135-.271.203-.541.203-.879V.715h1.014v4.058c0 .406-.135.812-.271 1.15-.338.812-1.15 1.217-2.3 1.217s-1.961-.406-2.3-1.285zm11.363 1.217-2.841-3.788-.744-1.014v4.802h-1.014V.714h1.014l2.705 3.585.812 1.082V.782h.947V7.14zm2.908-6.29h1.826c2.232 0 3.382 1.217 3.382 3.044 0 1.894-1.285 3.246-3.517 3.246h-1.691zm1.758 5.411c1.758 0 2.367-1.082 2.367-2.3 0-1.353-.744-2.3-2.435-2.3h-.676v4.599zm6.899-5.478h.812l2.502 6.358h-1.082l-.676-1.623h-2.3l-.676 1.623h-1.014l2.435-6.358zm1.285 3.922-.541-1.488-.338-1.014-.338 1.014-.541 1.488zm4.532-3.043h-1.826V.715h4.802l-.271.879h-1.758v5.411h-.947zm4.193-.812h1.014v6.29h-1.014zm2.705 3.111c0-1.894 1.353-3.246 3.179-3.246s3.111 1.353 3.111 3.246-1.353 3.246-3.111 3.246c-1.826 0-3.179-1.285-3.179-3.246zm5.276 0c0-1.353-.812-2.367-2.097-2.367-1.353 0-2.029.879-2.029 2.367s.744 2.435 2.029 2.435c1.217 0 2.029-.947 2.029-2.435zm7.372 3.179-2.841-3.788-.812-1.014v4.802h-.947V.714h.947l2.705 3.585.812 1.082V.782h1.014V7.14zM41.866 28.918c.676.541 1.826 1.015 3.111 1.015 1.488 0 2.705-.541 2.705-2.164 0-3.246-6.222-2.841-6.222-7.169 0-2.097 1.556-3.788 4.329-3.788 1.353 0 2.57.338 3.314.676v1.759c-1.014-.473-2.097-.812-3.246-.812s-2.367.541-2.367 1.961c0 3.044 6.29 2.705 6.29 7.237 0 2.502-2.029 3.99-4.734 3.99-1.691 0-3.044-.541-4.058-1.15l.879-1.556zm11.43-11.971H60.6l-.609 1.623h-4.734v4.599h4.734v1.691h-4.734v4.87h5.411v1.623h-7.372zm10.754 0h3.246a6.07 6.07 0 0 1 3.28.692l-.033-.016c1.285.676 1.826 2.029 1.826 3.314 0 2.029-1.082 3.246-2.908 3.788.473.271 1.014 1.082 1.758 2.367l2.57 4.261h-2.3l-2.367-3.99c-.676-1.217-1.217-1.894-1.623-2.029h-1.488v6.087H64.05zm3.246 6.831c.744 0 1.353-.135 1.894-.473.676-.338 1.15-1.15 1.15-2.164 0-.879-.338-1.556-.947-2.029a3.35 3.35 0 0 0-1.937-.61l-.096.001h.005-1.353v5.275zm9.401-6.831h1.894v6.155h7.575V16.88h1.961v14.406h-1.961v-6.561h-7.575v6.561h-1.894zm16.165 0h1.961v14.406h-2.029zm25.498 0h2.976c1.42 0 2.435.203 3.179.676 1.353.676 2.164 2.029 2.164 3.923 0 1.691-.676 3.246-2.502 4.058-.744.338-1.691.541-2.976.541h-.879v5.208h-1.894zm2.976 7.575c.879 0 1.488-.135 1.961-.338.947-.473 1.353-1.353 1.353-2.638 0-1.15-.406-2.029-1.285-2.57-.473-.271-1.15-.473-2.029-.473h-1.014v6.087h1.014zm8.522-7.575h3.246a6.059 6.059 0 0 1 3.212.692l-.033-.016c1.353.676 1.826 2.029 1.826 3.314 0 2.029-1.082 3.246-2.841 3.788.406.271.947 1.082 1.691 2.367l2.57 4.261h-2.232l-2.367-3.99c-.676-1.217-1.217-1.894-1.691-2.029h-1.488v6.087h-1.894zm3.246 6.831c.676 0 1.353-.135 1.826-.473.676-.338 1.217-1.15 1.217-2.164 0-.879-.338-1.556-.947-2.029a3.355 3.355 0 0 0-2.105-.608h.008-1.353v5.275zm11.904 1.826-4.734-8.657h2.029l3.788 6.831 3.585-6.831h2.097l-4.734 8.725v5.681h-1.961zm-42.339 0-4.734-8.657h2.029l3.72 6.831 3.585-6.831h2.164l-4.802 8.725v5.681h-1.961zm55.257-7.034H153.8v-1.556h10.686l-.676 1.623h-3.923v12.851h-1.961zm9.536 10.01c-.271-.676-.406-1.488-.406-2.435v-9.198h1.961v9.063c0 .676 0 1.353.271 1.961.541 1.285 1.623 1.961 3.314 1.961s2.773-.676 3.314-2.029c.203-.473.271-1.15.271-2.029v-8.86h2.029v9.198a6.88 6.88 0 0 1-.473 2.502c-.812 1.961-2.57 2.976-5.14 2.976s-4.396-1.082-5.14-2.976zm14.947-11.633h1.961V29.73h5.275v1.623h-7.237zm14.812-.068h1.42l5.614 14.474h-2.097l-1.42-3.788h-5.614l-1.353 3.788h-2.029zm2.909 9.131-1.353-3.788-.812-2.435-.879 2.435-1.353 3.788zM14.203.106v26.783h4.87V5.111h7.575v9.198h4.937V.106z"/><path d="M26.648 26.889v4.937h4.937v-12.58h-4.937zM26.648 14.309h-7.575v4.937h12.512v-4.937zM4.937 26.889v-7.643h9.266v-4.937H0v17.585h26.648v-4.937z"/></symbol><symbol id="trash_bucket_icon" viewBox="0 0 32 32"><path fill="none" style="stroke:var(--color1,#fff)" stroke-linejoin="round" stroke-linecap="round" stroke-width="2.667" d="M12 4h8M4 8h24m-2.667 0-.935 14.026c-.14 2.104-.21 3.156-.665 3.954a4.007 4.007 0 0 1-1.731 1.62c-.826.4-1.881.4-3.99.4h-4.025c-2.109 0-3.163 0-3.99-.4a4.001 4.001 0 0 1-1.731-1.62c-.455-.798-.525-1.85-.665-3.954L6.666 8m6.667 6v6.667M18.667 14v6.667"/></symbol></defs></svg>