<svg aria-hidden="true" style="width:0;height:0;position:absolute;overflow:hidden" xmlns="http://www.w3.org/2000/svg"><defs><symbol id="icon-Vector" viewBox="0 0 55 32"><path fill="#fff" style="fill:var(--color1,#fff)" d="M1.091 25.309 25.527.8c.291-.291.605-.495.945-.617S27.176 0 27.563 0s.751.061 1.091.183c.371.139.687.349.945.616L29.6.8l24.509 24.509c.678.678 1.018 1.527 1.018 2.545s-.364 1.891-1.091 2.618a3.486 3.486 0 0 1-2.535 1.091h-.011.001-.01a3.482 3.482 0 0 1-2.534-1.089l-.001-.002L27.564 9.09 6.182 30.472c-.678.678-1.513 1.018-2.508 1.018s-1.856-.364-2.583-1.091A3.486 3.486 0 0 1 0 27.864v-.011.001-.01c0-.998.418-1.897 1.089-2.534l.002-.001z"/></symbol></defs></svg>