<svg aria-hidden="true" style="position: absolute; width: 0; height: 0; overflow: hidden;" version="1.1" xmlns="http://www.w3.org/2000/svg" xmlns:xlink="http://www.w3.org/1999/xlink">
<defs>
<symbol id="icon-Vector" viewBox="0 0 55 32">
<path fill="#fff" style="fill: var(--color1, #fff)" d="M1.091 25.309l24.436-24.509c0.291-0.291 0.605-0.495 0.945-0.617s0.704-0.183 1.091-0.183 0.751 0.061 1.091 0.183c0.371 0.139 0.687 0.349 0.945 0.616l0.001 0.001 24.509 24.509c0.678 0.678 1.018 1.527 1.018 2.545s-0.364 1.891-1.091 2.618c-0.638 0.672-1.538 1.091-2.535 1.091-0.004 0-0.007 0-0.011-0h0.001c-0.003 0-0.007 0-0.010 0-0.998 0-1.897-0.418-2.534-1.089l-0.001-0.002-21.382-21.382-21.382 21.382c-0.678 0.678-1.513 1.018-2.508 1.018s-1.856-0.364-2.583-1.091c-0.672-0.638-1.091-1.538-1.091-2.535 0-0.004 0-0.007 0-0.011v0.001c0-0.003 0-0.007 0-0.010 0-0.998 0.418-1.897 1.089-2.534l0.002-0.001z"></path>
</symbol>
</svg>
