<svg xmlns="http://www.w3.org/2000/svg" width="53" height="32">
    <path d="M8 5c.4-1.1 1.2-2.1 2-2.8a7 7 0 0 1 2.9 6c1-1 2.5-1.7 4-1.8v.3c0 2.2-1 4-2.5 5.4l-1.3 1-1.9 1.3c-.3.2-.6.5-.8 1h-.5c-.2-.4-.4-.6-.7-.8-.5-.5-1.2-1-1.8-1.3l-2-1.5a7.2 7.2 0 0 1-2.1-5.4c1.5.1 2.9.8 4 1.8 0-1.1.2-2.3.6-3.3z"/><path fill="#707070" d="M38 8c.7 0 1.6.1 2.2.5.5.3 1 .9 1.2 1.5.3 1.1 0 2.4-.8 3.2a3 3 0 0 1-2.1.8c-.6 0-1.1-.1-1.6-.4-.5-.3-1-.7-1.2-1.2a3.2 3.2 0 0 1-.3-2.2c.1-.6.5-1.2 1-1.6.5-.3 1-.5 1.6-.6zm.1 1.4c-.4.1-.8.4-1 .8-.5.6-.2 1.5.3 2a1.6 1.6 0 0 0 1.6.3 1.6 1.6 0 0 0 1-2c-.3-.7-1.1-1.2-1.8-1zm-12.4-.9a3 3 0 0 1 1.9-.4c.3 0 .7.1 1 .3V10a1.6 1.6 0 0 0-2.1-.3c-.7.5-.8 1.5-.3 2.2.3.5 1 .7 1.6.5.3 0 .6-.3.8-.6v1.8l-.8.2a3 3 0 0 1-3.3-1.8c-.2-.6-.2-1.2 0-1.8a3 3 0 0 1 1.2-1.8zM21 8.2h1.6l2 5.6h-1.5l-.3-1h-2l-.4 1h-1.6l2.1-5.6zm.8 1.8-.6 1.7h1.2zM29 8.2h4v1.3h-1.4v4.3h-1.4V9.4h-1.2V8.2zm4.3 0H35v5.6h-1.5zm8.6 0h1.4l2.7 3.4V8.2h1.5v5.6H46l-2.7-3.5v3.5H42zm-17.4 7.2a3 3 0 0 1 1.8-.5c.5 0 1 .2 1.4.5.3.2.5.5.6.8l-1.2.5c0-.2-.2-.4-.4-.6a1.1 1.1 0 0 0-1.4.1 1.8 1.8 0 0 0-.3 2c0 .3.3.5.6.7a1.4 1.4 0 0 0 1 0c.3-.2.5-.4.5-.7h-1v-1h2.5l-.1 1.1c-.2.6-.6 1.1-1.2 1.4a2.8 2.8 0 0 1-2 .2h.1c-.6 0-1.2-.5-1.5-1a2.8 2.8 0 0 1-.3-2c.1-.7.4-1.2 1-1.5zm16.4.1c.3-.3.7-.5 1.2-.6h.2c.5 0 1 .2 1.5.4l-.5 1c-.2-.2-.6-.3-.9-.3-.2 0-.4.1-.5.3 0 .1 0 .3.2.3.2.3.6.3.8.4.4.1.8.3 1 .6v1c0 .5-.2.8-.5 1a2 2 0 0 1-1.6.4 3 3 0 0 1-1.4-.5l.6-1c.2.2.5.4.9.5.2 0 .5 0 .6-.2.2-.1.2-.3.1-.5l-.3-.3-1.1-.3a1 1 0 0 1-.5-.7v-.4c0-.4 0-.8.3-1zm-20.3-.4H22l1.8 4.8h-1.4l-.3-.8h-1.7l-.4.8h-1.3l2-4.8zm.2 3h1l-.5-1.5zm9.4-3h1.4l1.8 4.8h-1.3l-.4-.9h-1.7l-.3.8h-1.3zm.2 3h1l-.5-1.6zm3.2-3h1.2v4.8h-1.2zm1.8 0h1.2L39 18v-3h1.2V20H39l-2.3-3v3h-1.3V15zm8.8 0h3.3v1h-1V20h-1.3V16h-1zm-8.7 6.4a2.8 2.8 0 0 1 1.8-.5c.6 0 1.2.1 1.6.4.3.3.6.6.7 1l-1.2.5-.5-.6c-.3-.2-.7-.2-1-.1-.4.1-.6.4-.7.7A2 2 0 0 0 36 24c0 .4.3.7.5 1a1.2 1.2 0 0 0 1.4.1c.3-.1.4-.4.5-.7h-1.1v-1.1H40c0 .6 0 1.2-.3 1.7-.2.5-.7 1-1.2 1.1a3 3 0 0 1-2 .1h.1c-.6-.1-1.1-.5-1.5-1a3 3 0 0 1-.4-2.1c.1-.7.4-1.2.9-1.7zM19 21.1h1.3v2h2v-2h1.3v5.2h-1.4V24h-1.8v2.2H19V21zm5.1 0h1.3v2.8c0 .3 0 .7.3 1 .2.2.5.3.7.3.3 0 .5-.1.6-.3l.3-.8v-3h1.2v3.2c0 .5 0 1-.4 1.4-.5.5-1.2.7-1.8.7-.7 0-1.4-.2-1.8-.7-.4-.5-.4-1-.4-1.6v-3zm5 0h1.4l2.4 3.1v-3.1h1.3v5.1H33l-2.4-3v3H29zm11.4 0h2.9v1.1h-1.6v1h1.5v1h-1.5v1h1.6v1h-3v-5.1zm3.4 0h2c.4 0 .8.1 1.1.3.3.2.5.5.6.8.1.4 0 .9-.2 1.3-.1.3-.5.6-.9.6l1.6 2.1h-1.6l-1.3-2v2H44zm1.3 1v1.3l.8-.1c.3-.2.3-.7.1-1-.2-.2-.6-.2-.9-.2z"/><path fill="#005fb6" d="M9.5 17h.6c2.4 0 4.6 1.5 5.4 3.6.3.7.5 1.5.5 2.3a6 6 0 0 1-3 5.2h-.1A6 6 0 1 1 9.5 17zm.5 2-.1.2-.5.5L7.7 21a3.2 3.2 0 0 0 2.4 5.3c1 0 2-.6 2.6-1.4.7-1.1.7-2.6-.1-3.7-.4-.5-.8-.8-1.3-1.1-.4-.3-.8-.6-1-1H10z"/>
</svg>