<!-- Generated by IcoMoon.io -->
<svg version="1.1" xmlns="http://www.w3.org/2000/svg" width="32" height="32" viewBox="0 0 32 32">
<title>ibooks_icon</title>
<path fill="#000" d="M7.467 0h17.067c4.17 0 7.467 3.297 7.467 7.467v17.067c0 4.17-3.297 7.467-7.467 7.467h-17.067c-4.124 0-7.467-3.343-7.467-7.467v0-17.067c0-4.17 3.297-7.467 7.467-7.467z"></path>
<path fill="#fff" d="M15.515 25.988c-0.776-2.618-2.521-3.879-5.139-3.879-2.909 0-3.879 1.455-4.655 1.455-0.291 0-0.388-0.097-0.388-0.291v-12.315c0-1.455 1.939-2.909 5.139-2.909 3.297 0 5.139 2.424 5.139 4.073zM16.291 25.988v-13.867c0-1.649 1.842-4.17 5.139-4.17 3.2 0 5.139 1.552 5.139 3.006v12.315c0 0.194-0.194 0.291-0.485 0.291-0.776 0-1.745-1.455-4.558-1.455-2.618 0-4.364 1.261-5.236 3.879z"></path>
</svg>
