<svg xmlns="http://www.w3.org/2000/svg" width="91" height="32"><path d="M16.2.2c-.7.4-1.2 1-1.5 1.6-.3.7-.6 1.8-.6 2.4.1.8.4 1.5 1 2 0 .2.2.2.4.3h.3c.2.2.5 0 1.1-.7 1.4-1.6 1.7-3.2 1-4.7-.6-1-1-1.4-1.7-.9zm9.1 4.2a83.5 83.5 0 0 0-19.5 9.4l.4-.2c-1.1.7-2 1.6-1.7 1.6.2 0 .4.5.4 1 0 .3.3.4.5.2l.6-.6c.5-.2.7-.3.8-.2.2.1.4 0 1.4-.5 5.8-3.2 12-5.8 18.3-7.7l.7-.3V5.8l-.3-.9c-.3-.8-.4-.8-1.5-.5zM28.8 8 25 9.6a86 86 0 0 0-7.4 3l.5.5.6.6.7.8 1.2 1.4.6.8 1.7-1 4.5-2.5 2.8-1.6v-.5c0-.9-1-3-1.3-3h-.3zm2.3 6-9.3 3.1.4.7c.3.3.5.8.7 1.2l.2.7H27.8l1.6-.8c1.1-.5 2.8-1 4.5-1.6l.6-.2c.3-.4 0-3.4-.5-3.6-.2 0-1.1 0-2.9.6zm-20.4 2A77.6 77.6 0 0 0 1 22.3c-.2.7.4 2.8.7 2.8l1.2-.5L6.7 23l-2.6 1.6c-3.4 2.2-4 2.6-4 3-.2.6.5 2.4 1 2.8.1.2.8-.2 3-1.4l4.7-2.6c1.6-.7 2-1 2-1.2l1.1-3.7c.8-2.5 1.5-4.5 2.3-6.4l-.2.5.3-1.3-.1-.2-3.5 2zM17 20a84.6 84.6 0 0 1-3.4 8l.2-.6c-.2.7-.5 1-.5.6 0-.1 0-.1-.1 0-.2.2-1 .3-.8.1 0-.1-.5-.4-.7-.3h-.3l-.4-.3c-.2-.1-.4-.3-.4-.5v-.2c-.2 0-1.9 1.1-2 1.3-.5.5.2 3.3.8 3.3l3-1.8 5.3-3 2.4-1.4v-.4c-.3-1.7-1-3.6-1.9-4.7-.8-1-.8-1-1.2-.1zm6.6.8-1 4.2h.4c.5 0 .4.2.8-1.9l.2-1v3h.9l.5-1.5.7-1.4-.4 1.5-.3 1.4h.4c.5 0 .4.2 1-2.5l.2-1.7-.5-.1H26l-.7 1.4-.5 1.3v-2.7h-1.2zm4 .4-.4 2-.4 1.8H28c1 0 1.3 0 1.3-.2v-.4c0-.3 0-.3-.7-.3s-.6 0-.6-.2v-.3c0-.2.2-.2.6-.2.7 0 .7 0 .7-.4l.2-.4h-.7c-.5 0-.6-.2-.4-.6 0-.1.2-.2.8-.2.5 0 .7 0 .7-.2l.1-.5v-.3h-2.3v.3zm3-.3L30 23l-.4 2h1c1 0 1 0 1.4-.3.6-.5 1-1.4 1-2.4.1-.7 0-.8-.1-1.1-.3-.4-.3-.4-1.3-.4l-1.1.1zm1.6 1v.8c0 .7-.6 1.4-1 1.4h-.4l.2-1.3.3-1h.4l.5.1zm1.6-.7-.4 2L33 25h1.3c.9 0 1.2 0 1.2-.2v-.4c0-.3 0-.3-.6-.3s-.7 0-.7-.2v-.3c0-.2.2-.2.7-.2.7 0 .7 0 .7-.6.1-.3.1-.3-.4-.3-.7 0-.7 0-.6-.5 0-.1.2-.2.8-.2.7 0 .7 0 .8-.6l.1-.4H34v.3h-.2zm3.6-.2c-.9.6-1.5 2-1.4 3 .2.8 1 1.2 1.9 1 .4 0 .5 0 .5-.5l.2-.4H38c-.7.1-1 0-1-.7 0-1.1.7-1.8 1.6-1.7.4 0 .5 0 .5-.3v-.5l-.7-.1c-.4 0-.6 0-1 .2zm2.3-.1-.4 1.9-.4 2c0 .2 0 .2.4.2s.4 0 .6-.5l.7-3.6c0-.2-.8-.2-.9 0zm1.4.3-.4 2-.4 1.8h.8l.3-1.4.3-1.3.3 1.4.3 1.3h1l.5-2 .4-2c0-.2-.1-.3-.3-.2-.5 0-.5 0-.7 1L43 23l-.2.5-.2-1.3c-.3-1.6-.2-1.6-.9-1.6-.4 0-.5 0-.6.4zm4-.3c-.7.6-.7 1.2-.2 2.2.3.6.4.7.3.9H43.9v1h.6c1 .2 1.7-.4 1.5-1.4l-.2-.7c-.4-.6-.4-.8-.3-1 .2-.3.5-.3.8-.1.2 0 .2 0 .3-.4V21c-.4-.2-1.2-.1-1.5 0zm4.4 0-.4.3c-.5.5-.4 1 .1 1.9.3.5.3.7.2.9l-.7.1c-.5 0-.5 0-.5.4l-.1.4.7.2c1.3.1 2-1 1.2-2.3-.4-.7-.4-1 0-1h.5c.2 0 .3 0 .3-.4l.1-.5c0-.1-1.2-.2-1.4 0z"/><path d="m51.3 22.9-1.1 2h.4c.6 0 .6 0 .8-.4.3-.6.3-.6.9-.6h.5V25H54v-.6c-.2-.7-.3-3-.3-3.4 0-.2 0-.2-.6-.2h-.5l-1.2 2.1zm1.5 0h-.6l.3-.6.2-.6v1.1l.1.1zm2-1.7-.4 2L54 25h.9l.2-1.4.3-1.3v.5l.4 1.4.2.8h.5c.6 0 .6 0 .7-.5l.7-3.6c0-.1-.2-.2-.4-.1h-.4l-.3 1.3-.2 1.3-.4-1.3-.3-1.3h-.4c-.6 0-.6 0-.7.3zm4.2-.3c-.2 0-.4.2-.5.3-.4.5-.4 1 0 1.9.4.5.5.7.3.9l-.6.1c-.6 0-.5 0-.7.5v.4h.5c.8.2 1.2 0 1.5-.3.4-.5.4-1.3 0-1.9-.5-.7-.5-1 0-1h.4c.3 0 .3 0 .4-.3v-.6h-1.4zm3.6 0-.4 2.1-.4 2h.9l.2-.9.1-.7h.6c.6 0 .7 0 .7-.6l.1-.3h-.6c-.5 0-.5 0-.4-.3 0-.3 0-.3.6-.4.7 0 .7 0 .8-.3.1-.7.1-.7-1-.7-.8 0-1.1 0-1.2.2zm2.7 0-.4 1.8-.4 2.1c0 .2 0 .2.4.2h.4l.3-1c0-.6.2-1 .2-1l.2.7c.1 1.3.1 1.3.6 1.3h.5l-.1-.7c-.2-1-.2-1 .1-1.3.5-.3.8-1.3.6-1.8l-.4-.3h-2zm1.4.9c.2.1 0 .7-.2.7-.7.2-.7.2-.5-.6.1-.2.4-.3.7-.1zm2.4-.8c-.6.3-1 1-1.3 1.8-.2.8-.2 1 0 1.5.4 1 1.9 1 2.8.2 1-1 1.1-3 .2-3.5-.4-.3-1.2-.2-1.7 0zm1 .7.3.5c.2.8-.4 2-1.1 2-.4 0-.6-.3-.6-.8 0-1 .7-2 1.4-1.7zm1.9-.4-.4 2-.3 1.7h.8l.2-1.4.3-1.3.2 1c.4 2 .3 1.7 1 1.7h.5l.4-2 .4-2.1-.4-.1c-.3 0-.3 0-.5 1l-.3 1.3-.1.5-.6-2.8h-1l-.2.5zm3.5-.2c-.2.5-.1.7.3.7h.4l-.4 1.4-.3 1.5c0 .3 0 .3.4.3.5 0 .4.2 1-2l.2-1.1h.4c.4-.1.5-.2.5-.5V21c.2-.2 0-.2-1.1-.2h-1.3l-.1.3zm3 0-.5 2.1-.5 1.8h1l.4-2 .5-2c0-.2-.1-.2-.5-.2s-.4 0-.5.3zm1 1.7-.4 2.1 1.2.1h1.1l.2-.4V24h-1.5l.1-.3c.2-.4.2-.4.7-.4.6 0 .7 0 .7-.6l.1-.3h-.6c-.5 0-.6 0-.5-.4 0-.3.2-.3.8-.3.7 0 .7 0 .8-.4.2-.6.2-.6-1.1-.6h-1.2l-.4 2zm3.3-1.6-.4 2-.5 1.8h.5c.4 0 .4 0 .6-.5l.2-1.1.1-.6.3 2.2h1l-.1-1c-.2-.6-.2-.8 0-.8l.4-.5c.3-.4.3-.5.3-1 0-.8-.2-1-1.4-1-1 0-1 0-1 .4zm1.3.5c.2 0 .2.6 0 .8l-.4.2h-.4l.2-.4v-.6h.6zm1.4.9-.4 2c0 .4 0 .4 1 .4h1.3l.1-.4v-.4H87c-.7 0-.8-.1-.7-.6 0-.2.3-.2.7-.2.5 0 .7 0 .7-.3.1-.6.1-.7-.6-.6-.5 0-.5 0-.5-.2v-.5h.9c.6 0 .7 0 .8-.4.1-.6.1-.6-1.1-.6h-1.2l-.4 1.8zm3.6-1.6c-.5.2-.7.8-.6 1.3l.4.8c.4.7.4 1-.4 1-.5 0-.5 0-.7.3v.5c0 .2 1.1.3 1.5.1.9-.3 1-1.2.5-2.3-.3-.4-.4-.6-.3-.8.1-.2.5-.3.8-.1.2 0 .2 0 .3-.4l-.1-.5c-.2-.2-1.2-.1-1.4 0zm-66 6.2-.7.6c-.5.3-.6.3-.5.6h.7c.1-.2.1-.1.1 0s-.2.2-.5.2c-.4 0-.5 0-.5.3s0 .3.4.3.4 0 .3.3c0 .3 0 .4-.4.4-.3 0-.4 0-.5.2 0 .3 0 .3 2.7.3 2.3 0 2.7 0 2.7-.3.1-.2.1-.2-.3-.2-.3 0-.3 0-.3-.2v-.2l.5-.2c.4 0 .5 0 .6-.3 0-.3 0-.3-.5-.3-.3 0-.3 0-.3-.3 0-.2.1-.2.3-.3.3 0 .4 0 .4-.3s0-.2-1.9-.2h-1.9l.3-.3c.3-.2.3-.2 0-.2h-.4l-.4.2v-.1zm.8 1-.1.3-.3.1h-.3c0-.4.2-.6.5-.6.2 0 .2 0 .2.2zm1-.1c0 .4-.2.7-.4.5-.2 0-.2 0-.2-.2v-.3l.4-.2.2.1zm1 .2c0 .4-.5.5-.5.1s.1-.4.4-.4c.2 0 .2 0 .2.3zm-2.4 1.2c0 .2 0 .3-.3.4-.2 0-.2 0-.2-.3s.1-.4.3-.4c.2 0 .3 0 .2.3zm1.2 0v.2l-.4.2c-.1 0-.2 0-.2-.2s.2-.5.4-.5.2 0 .2.3zm1 0c0 .2 0 .3-.3.4-.2 0-.3 0-.2-.2v-.3l.3-.2c.2 0 .3 0 .2.3zm38.6-2.1c0 .7-.2.7-.7.7s-.5 0-.2-.4c.2-.2.1-.3-.2-.3-.3 0-.4 0-.5.3a6 6 0 0 1-1.2 1.4c-.2.1-.2.1 0 .3.3.3.3.3.8-.3.4-.5.5-.5 1.1-.5h.7l-.1.4-.1.4-1 .1c-.6 0-.8.1-.8.2 0 .2 0 .3.8.3h.8v.6l-.2.5h-1.2c-1.1 0-1.2 0-1.3.2v.3h5.5v-.3c0-.3 0-.3-1-.2h-1.2v-.7l.2-.4h.8c1 0 1 0 1-.3 0-.2 0-.2-.8-.2h-1v-.4l.2-.4 1.2-.1c1 0 1 0 1-.3 0-.2 0-.2-1-.2h-1v-.3l.1-.5c0-.1 0-.2-.3-.2-.4 0-.4 0-.4.3zm-19.6 0h-2.3l-.2 1-.2 1h.5c.5 0 .6 0 .4.1l-1 .4c-.7.2-.7.3-.5.5.1.2.1.2.8 0l.7-.3v.5l-1.4.7c-.3 0-.3 0-.1.3.1.2.2.2.7 0 .9-.3 1.3-.7 1.5-1.5V30c-.2 0-.2-.1 0-.3.5-.3.9-.3 1.2 0 .2.2.2.3.1.3s-.2.2-.4.9l-.2 1h.4c.4 0 .4 0 .4-.4 0 0 0-.4.2-.7V30l.7.3.6.3.2-.3.3-.3-.6-.2-.8-.4c-.3-.1-.3-.1.3-.1h.6v-.5l.3-1v-.6h-2.2zm-.5.5c0 .2-.1.2-.7.2s-.6 0-.5-.2c0-.1.2-.2.6-.2.5 0 .6 0 .6.2zm2 0c0 .2-.2.2-.6.2-.7 0-.9 0-.7-.2l.7-.2c.4 0 .6 0 .6.2zm-2.1 1H42.8c0-.3 0-.3.6-.3s.7 0 .7.2zm2 0h-1.4c.1-.4 1.4-.4 1.3 0h.1zm5.7-.6-.1 1H53c.8 0 1.3 0 1.3-.2l-.1-.1v-.2s0-.2-.2-.2h.1c.4-.1.4-.3-.1-.3-.2 0-.4 0-.3-.2h.4l.2-.2c0-.1-.1-.2-.4-.2h-.6.7c.5 0 .6-.1.6-.3 0-.2-.2-.2-1.3-.2h-1.2l-.2 1.1h-.1zm1-.4-.2.2c.2 0 .2 0 0 .1s-.1.3.2.3c.2 0 .2 0 0 .1-.3.1-.4.2-.3.3h-.2l.1-.7c0-.5.2-.6.4-.6s.2 0 0 .3zm.4.2-.2.2c-.2 0-.2 0 0-.2s.2-.2.2 0zm.4.7c.2.2.2.2-.2.2-.5 0-.5 0-.3-.2l.3-.2.2.2z"/><path d="m55.1 27.4-.3.3c-.2.1-.3.3-.2.3.1 0 .1.1 0 .1-.2 0-.1.3.2.5.3.2.3.2.2.3h-.4l-.2.2c0 .1.2.2.3.1.7 0 1.5 0 1.8.2h-2.4c-2.5 0-2.7 0-2.7.3 0 .2 0 .2 1 .2h.2-.8l-.1.6-.3 1.4s.6 0 .7-.2l1.7-.1 1.6.1.3.2c.3 0 .3 0 .5-1l.3-.9h-1c-.6 0-.6 0 .4-.1 1 0 1 0 1-.3V29l-.2-.1c-.5 0-.5-.2-.1-.4l.3-.3s0-.2.2-.3c.2 0 .3-.2.3-.3 0-.1-.3-.3-.4-.1l-.3.1-.1-.2c0-.3 0-.3-.7-.3-.5 0-.8 0-.8.2zm1 .4c0 .3 0 .3-.5.3H55l.3-.2c.3-.3.7-.4.8 0zm0 .7c0 .1-.5.2-.6 0h.6zm-2 1.4zm-1.1.5h-.4c-.3 0-.3 0 0 .3.2.1.2.1 0 .1s-.3 0-.3-.2c0-.3 0-.4.5-.4.2 0 .2 0 .1.1zm1.2 0c0 .3.1.4.5.4.7 0 1-.3.7-.4-.1-.1-.1-.2 0-.2s.2 0 .2.3 0 .3-1.3.3h-1.4l.5-.3c.5-.3.7-.4.8 0zm1 0h-.4s0-.2.2-.2.2 0 .1.2zm-.2.8zm-23.3-1.7-.5 2.2h5.3l.2-.4.4-2.2.4-1.7H32l-.4 2zm4-1.7v.3c.1.1 0 .2-.1.2-.2 0-.3-.1-.2-.2 0-.2 0-.3-.3-.3-.2 0-.4.1-.4.3s-.1.2-1 .2l-1 .1c0 .2.1.2 1 .2h1v.7c0 .7-.2 1-.4 1 0-.2 0-.2-.5 0h-1c-.5 0-.5 0-.5.2s0 .3 1.4 0h.1c-.2.1-.1.3.1.4l.6-.1c.3-.3.3-.3.5 0 .3.3.7.2.9-.2.2-.2.2-.3 0-.4h-.3c0 .2-.1.2-.2.2 0-.2 0-.3.3-.7.4-.6.4-.7.2-.7-.2-.2-.3-.1-.5.2l-.2.3v-.9h.6l.6-.1c0-.1 0-.2-.2-.3v-.3c-.2-.1-.2-.2.1-.2l.4.1-.6 2.8-.1.5h-2c-2 0-2 0-2-.2l.7-3 1.5-.1h1.4z"/><path d="M32.7 29.5v.5h.7c.8 0 .8 0 .8-.3l.2-.6c0-.2 0-.2-.7-.2h-.9v.6zm1.1 0h-.5c0-.2.1-.3.3-.3s.2.1.2.3zM21.7 31l-.5.4.2.2c.3.1.3.1.7-.3.5-.4.7-.7.4-.7h-.2l-.6.4zm2.8-.4c-.2 0-.2 0-.2.6.1.6.1.5.4.5.2-.1.3-.2.3-.5 0-.5-.1-.6-.5-.6zm1.3 0c-.2 0-.2.2 0 .5.2.2.2.4.2.5s.1.1.3 0c.5-.2.5-.2.2-.7-.2-.4-.5-.5-.7-.3zm-2.8.2v.5c-.1.4 0 .4.2.4.4 0 .4-.2.4-.7 0-.4 0-.4-.2-.4s-.4 0-.4.2z"/></svg>