<svg xmlns="http://www.w3.org/2000/svg" width="65" height="32"><path d="M17 .6V2h1.6v-.7c0-.9.1-.8-.8-.8h-.7zM32.3 1l-.1.9v.8h-.4c-.5 0-.5 0-.5.8v.7c.2.2.2.2.5.2h.4v1.8l.1 2.2a7.5 7.5 0 0 0 1.5 0V4.2h.5c.5 0 .5.1.5-.7 0-.9 0-.9-.5-.9h-.4V1.1h-.1c-.1-.2-.2-.2-.8-.2l-.7.1zM3.3 2.7c-.3 0-.7.2-.8.4l-.2.1v-.1l-.1-.3H.6v7.8h1.6V7.8l.2.1.4.3c.7.4 1.7.3 2.4 0C6.5 7.3 7 5.5 6.3 4.1c-.4-.8-1-1.3-1.8-1.5a3 3 0 0 0-1.2 0zm1 1.6.5.7c.2.3.2.8 0 1.1 0 .3-.3.6-.6.7l-.6.1c-.5 0-.7 0-1-.3-.5-.5-.5-1.5 0-2 .3-.3.6-.4 1-.4l.6.1zM12.7 2.6a3 3 0 0 0-2.2 2c0 .4-.1 1.2 0 1.6a3 3 0 0 0 1 1.7c.3.3.9.5 1.2.6h1.4l.7-.3a3 3 0 0 0 1.4-1.6c.3-.8.2-1.8-.3-2.6l-.4-.6a3 3 0 0 0-1.3-.7 4 4 0 0 0-1.5 0zm1.1 1.7.7.5c.2.4.2 1.1 0 1.6-.4.4-1.1.6-1.7.4-.6-.3-.9-1-.6-1.7.2-.7 1-1 1.6-.8zM21.6 2.6a3 3 0 0 0-1.4.8 3 3 0 0 0 0 4.4 3 3 0 0 0 2.1.7c.6 0 1 0 1.4-.3.5-.2 1-.7 1.2-1.1v-.3h-1.5l-.2.1c-.3.2-.5.3-.9.3-.3 0-.6-.1-.8-.3l-.4-.6h2c2.2 0 2 0 2-.5.1-.7-.1-1.6-.6-2.2-.3-.4-.8-.7-1.4-.9a4 4 0 0 0-1.5 0zm1 1.5c.4.1.7.4.8.8h-2.3l.3-.5c.3-.3.8-.4 1.2-.3zM27.8 2.6c-1.2.3-2 1.1-2.3 2.2v1.6c.3.8.8 1.5 1.6 1.8a3 3 0 0 0 3.7-.7l.4-1c0-.2 0-.3-.8-.3h-.8l-.2.3c-.3.3-.5.4-1 .4-.7 0-1.3-.6-1.2-1.4 0-.5.2-.9.7-1 .2-.2.2-.2.6-.2h.5l.4.4.2.2h.8c.8 0 .9 0 .8-.3 0 0 0-.3-.2-.5-.3-.6-1-1.2-1.7-1.4a4 4 0 0 0-1.5 0zM10 2.7c-.3 0-.6.2-.7.4l-.3.3v.2-.4c0-.5 0-.5-.9-.5l-.8.1v5.4c0 .2 0 .2.8.2h.7L9 6.7 9 5.2c.2-.4.5-.6 1-.7.4 0 .4 0 .4-.9l-.1-.9h-.4zM17 2.8v3l-.1 3c0 .2-.2.3-.5.4-.3 0-.3 0-.3.8v.8h.5c1 0 1.5-.4 1.8-1 .3-.6.3-.6.3-4v-3H17zM25.3 11.6a10 10 0 1 0 10.4 13c.3-1 .4-1.7.4-2.8a9.6 9.6 0 0 0-2.9-7.3 9.8 9.8 0 0 0-7.9-2.9zM24 15.1c1.7.3 2.6 1.5 2.9 3.6v2.1c-.2.3-.6.4-1 .3-.3-.2-.3-.3-.3-1.2l-.1-.8c-.3-.5-1.1-.4-1.2.2a37.3 37.3 0 0 0-.1 4.2c-.2.2-.5.3-.8.1-.2-.1-.2-.1-.2-2V20c-.2 0-.2 0-.2 2.2v2.2c-.3.4-.8.4-1 0V22c0-2.1-.1-2.2-.2-2.2v2c0 1.8 0 1.8-.2 2-.2.3-.7.4-.9 0v-2l-.1-2h-.1v2.8h-.2c-.1.2-.3.3-.5.3s-.3-.1-.4-.3v-2.2l.1-3c.4-1.4 1.3-2.2 2.7-2.4H24zm6.3 3.4c.3.2.3 0 .3 2.5V23c.2 0 .2 0 .2-2v-2c.3-.3.8-.3 1 0v4h.2v-1.3l.1-1.5c.2-.3.8-.3 1 0v2c0 2.7 0 3.2-.4 4a2 2 0 0 1-.5.7c-.5.5-.8.7-1.5.8-1 .3-2.4.2-3.2-.2-1-.5-1.6-1.5-1.8-3-.1-.5-.2-2-.1-2.2 0-.3.3-.5.7-.5.2 0 .4 0 .5.3l.1.9.1.9c.2.3.7.4 1 .1.2-.1.2-.1.2-2.3v-2.1c.3-.5.9-.5 1.1 0v1.8l.1 1.6h.1a70.7 70.7 0 0 0 .1-4.4c.1-.2.5-.3.7-.2zM1 12l-.3.1c-.1.2-.1-.3-.1 9.4A86.4 86.4 0 0 0 .9 31h3.7c.3-.1.3.1.3-4v-3.6h5.5V27c0 4 0 3.8.2 4h3.9l.1-.2V12.3l-.2-.3h-3.7l-.2.2-.1 3.5v3.4H4.9v-3.4l-.1-3.5-.2-.2H2.8A10 10 0 0 0 1 12zM38.5 12l-.3.1c-.1.2-.1-.3-.1 9.4a97.5 97.5 0 0 0 .3 9.5H42l.2-.2v-3l.1-2.7h2c1.8 0 1.8 0 2.3-.2a6 6 0 0 0 1.6-.5c.7-.4 1.1-.7 1.7-1.3a6.2 6.2 0 0 0 2-4.6c0-.7-.1-1-.3-1.6-.6-2.3-2.4-4.1-4.6-4.7-1-.2-.8-.2-4.8-.2h-3.8zm7.3 4.1c.4.1.8.3 1 .6.4.4.6.7.7 1.2v1.5c-.2.6-.7 1-1.2 1.3-.5.3-.6.3-2.3.3h-1.6v-5H44l1.8.1zM53.4 12l-.3.3v9.2a210.5 210.5 0 0 0 .2 9.5h10.9c.2-.2.3-.3.3-2v-1.7L64 27h-6.6v-3.4h2.9l3-.1.2-.2.1-1.8v-1.7c-.2-.3 0-.3-3.3-.3h-3v-3.2h3.3c3.5 0 3.3 0 3.5-.2.2-.2.2-.4.2-2v-1.7L64 12h-5.3a69 69 0 0 0-5.3 0z"/></svg>