<svg xmlns="http://www.w3.org/2000/svg" width="153" height="32">
<path stroke="none" d="m41.9 13-.2.2-.3.1H41c-.1-.2-.3-.2-.4-.3l-.6-.3h-.7c-.4-.1-.7 0-1 .2a1 1 0 0 0-.4.8l.3.6c.1.2.3.2.5.3.3.1.5.3.8.3l.8.3c.7.2 1.2.5 1.7 1 .2.1.4.4.5.7a3.4 3.4 0 0 1 0 2.6c-.4.9-1 1.6-2 2-.8.2-1.7.3-2.6 0-.3 0-.6 0-1-.2-.6-.2-1.1-.6-1.6-1L36 19l.3-.2.3-.1.4.1.5.3c.2.1.4.3.7.3.2.2.5.2.8.2.4 0 .8-.1 1-.3a1.1 1.1 0 0 0 .5-1l-.3-.6-.5-.4-.8-.2-.8-.3-1-.3-.7-.6c-.2-.3-.4-.5-.5-.9-.2-.4-.2-.8-.2-1.2a3 3 0 0 1 1-2.2 4 4 0 0 1 2.6-1c1 0 1.8.2 2.6.6l.7.5zm7 8.6-.4-.1a.7.7 0 0 1-.2-.3l-.2-.5-1 .7-.6.2h-.7a3 3 0 0 1-1 0l-.6-.4-.5-.7a2 2 0 0 1 0-1.7l.7-.7a4 4 0 0 1 1.3-.6 7 7 0 0 1 2.2-.2v-.4c0-.3-.1-.7-.3-1a1 1 0 0 0-.8-.2h-.6a2 2 0 0 0-.4.2l-.4.2-.5.1-.4-.1a1 1 0 0 1-.2-.3l-.4-.7a4.7 4.7 0 0 1 3.2-1.2c.4 0 .8 0 1.2.3.4 0 .7.3.9.6.3.3.4.6.6 1l.2 1.1v4.7h-1zm-2.4-1.4.7-.1.6-.5v-1h-1c-.3 0-.5.2-.7.3-.2 0-.3.1-.4.3v.3c-.1.2 0 .4.1.6a1 1 0 0 0 .7.1zm9 1.4h-2l-3-7.5h1.9l.4.1.2.3 1 3.3.2.8.2.8.2-.8.3-.8 1-3.3.2-.3a.6.6 0 0 1 .4 0h1.8zm6.7-7.6c.4 0 .9 0 1.3.2l1 .7.7 1 .3 1.5v.4l-.1.3-.2.1h-4.5c0 .5.2 1 .6 1.4.3.3.7.4 1.1.4h.7l.5-.3.4-.2h.4l.4.1.6.8c-.2.2-.4.5-.7.6a4.5 4.5 0 0 1-2.4.7l-1.5-.3c-1-.3-1.6-1-2-2a4.6 4.6 0 0 1 0-3.2 3.5 3.5 0 0 1 3.4-2.2zm0 1.6c-.3 0-.7 0-1 .3-.2.3-.4.7-.4 1h2.7v-.5c-.1-.3-.3-.6-.6-.7-.3-.1-.5-.2-.7-.1zm10 6h-.9c-.5-.3-.9-.7-1-1.2l-.2-.8v-3.9h-.6a.4.4 0 0 1-.4-.4v-1l1.1-.2.5-1.8c0-.2.2-.4.5-.3h1.1v2.2h1.8v1.5h-1.8v3.7l.1.4.4.2h.2l.1-.1h.4l.2.1.6 1c-.3.3-.6.4-1 .6h-1zm3.1 0V10.8h2.2v4a3 3 0 0 1 2-.8c.4 0 .8 0 1.1.2l.8.6a3 3 0 0 1 .6 2v4.8h-2.2v-4.7c0-.3 0-.6-.2-1a.9.9 0 0 0-.7-.2c-.3 0-.5 0-.7.2-.2 0-.5.2-.6.4v5.3zM86.8 14c.4 0 .9 0 1.3.2s.8.4 1 .7l.7 1 .3 1.5v.4l-.1.3-.2.1h-4.5c0 .6.3 1 .6 1.4.3.3.7.4 1.2.4h.6l.5-.3.4-.2.4-.1c.2 0 .3 0 .4.2l.6.8a3 3 0 0 1-.7.6c-.5.3-1 .5-1.6.6-.8.2-1.6 0-2.3-.2-.9-.3-1.6-1-2-2a4.7 4.7 0 0 1 0-3.2 3.5 3.5 0 0 1 3.3-2.2zm0 1.6c-.3 0-.7 0-1 .3-.2.3-.4.7-.4 1H88v-.5l-.2-.4c-.1-.2-.3-.3-.4-.3-.3-.1-.5-.2-.7-.1zm14.8 3.2h.1l.2.1 1 1c-.5.6-1 1-1.6 1.4a5.8 5.8 0 0 1-4.6 0 5 5 0 0 1-2.6-2.9 6.4 6.4 0 0 1 0-4.5c.3-.6.7-1.2 1.2-1.7s1-.9 1.7-1V11a6.1 6.1 0 0 1 4.4 0 3.9 3.9 0 0 1 1.5 1l-.8 1.2-.2.1-.3.1h-.2l-.3-.2-.3-.2-.8-.3H99.1c-1.3 0-2.4.8-2.7 2a4.6 4.6 0 0 0 0 3v-.1c0 .4.3.7.5 1 .5.6 1.2 1 2 1h.6l.6-.2.4-.2.5-.4h.1zm2.4 2.8V10.8h2.2v4a3 3 0 0 1 2-.8c.3 0 .7 0 1 .2l.8.6a3 3 0 0 1 .7 2v4.8h-2.2v-4.7l-.3-1a.9.9 0 0 0-.6-.2h-.1c-.3 0-.5 0-.7.2-.2 0-.4.2-.6.4v5.3zm10.9-9.5-.1.5c-.3.5-.8.8-1.3.8a1 1 0 0 1-.5-.1l-.4-.3a1 1 0 0 1-.3-.4 1 1 0 0 1 0-.5v-.5c0-.2.2-.3.3-.4l.4-.3a1 1 0 0 1 1 0c.3.1.6.4.7.7l.2.5zm-.3 2v7.5h-2.2v-7.5zm4.2-3.3v10.8h-2.2V10.8zm7 10.8-.3-.1-.2-.3-.2-.6-.5.5-.5.3a2.7 2.7 0 0 1-2.4 0c-.3-.1-.6-.4-.8-.7l-.5-1.1a5.9 5.9 0 0 1 0-3.3c.1-.4.4-.8.7-1.2.2-.3.6-.6 1-.8l1.2-.3c.7 0 1.3.2 1.7.6v-3.8h2.2v10.8zm-2.2-1.6c.4 0 .8-.1 1-.4.2 0 .3-.2.4-.3V16l-.6-.4a1.6 1.6 0 0 0-1.2 0 1 1 0 0 0-.4.4l-.3.7a5.9 5.9 0 0 0 0 2.1l.2.6.4.4.5.1zm5.3 1.6V14h1.6l.2.1.1.2v.2l.2.7c.2-.4.5-.7.9-1 .3-.2.7-.3 1-.3h.1c.3 0 .6 0 .8.2l-.3 1.7-.1.2h-.9c-.6 0-1 .3-1.4 1v4.5zm8.9-7.6c.5 0 .9 0 1.3.2s.8.4 1 .7c.4.3.6.7.8 1l.2 1.5v.4l-.1.3-.2.1h-4.4c0 .5.2 1 .5 1.4.3.3.8.4 1.2.4h.7l.4-.3.4-.2h.4l.4.1.7.8c-.2.2-.5.5-.8.6a4.5 4.5 0 0 1-2.4.7c-.5 0-1-.1-1.4-.3-1-.3-1.7-1-2-2a4.6 4.6 0 0 1 0-3.2c.3-.8 1-1.5 1.8-1.9a4 4 0 0 1 1.5-.3zm0 1.6c-.4 0-.7 0-1 .3-.2.3-.4.7-.4 1h2.7v-.5l-.2-.4-.4-.3c-.2-.1-.4-.2-.7-.1zm4.7 6V14h1.4l.3.1.2.3.2.4.4-.4c.2 0 .3-.2.5-.3l.5-.2h.7c.4 0 .8 0 1 .2.4.1.7.3.9.6l.5.9.1 1v4.8H147V17c0-.4 0-.7-.2-1a.9.9 0 0 0-.7-.2c-.3 0-.5 0-.7.2-.3 0-.5.2-.6.4v5.3z"/><path fill="#da291c" d="M27.4 8c1.3-1.6 1.9-2.3 1.8-2.7-.2-.4-.5-.7-.9-.8-.5-.2-1.1-.2-1.5 0l-.7.7-.4.5c-2-2.1-4.8-3.6-7.8-4h-.1A4.3 4.3 0 0 0 14 0c-1.2.3-2.2 1-2.8 2-2.8.9-5.2 2.4-7 4.5-.5-.1-1.4 0-2 .4a1 1 0 0 0-.6.6c0 .2 0 .5.8 1.3C.5 12-.3 15.5 0 19a14.4 14.4 0 0 0 7.8 11.3 16.7 16.7 0 0 0 16.1-.7c.3-.2.5-.7.3-1v-.2c-.9-1.9-3.4-7.5-2-12.6.6-2.1 2.3-4.4 3.7-6.2a14 14 0 0 1 2.1 8c0 2.8-1 5.3-2.5 7.3v.3l.2.3c0 .2.2.3.3.2l.1-.1c4.1-5.1 4.6-12.3 1.2-17.7zM9.5 20c-.5 2.8-.6 5.7-.3 8.5-3.9-2-6.7-5.7-7.5-10v-.1L1.5 16c0-2.3.6-4.5 1.6-6.4v.1l1.9 2c1.6 1.6 3.6 3.5 4.5 4.9.5.7.4 1.7 0 3.4zM24.1 7.3c-3 3.2-6 5-8.6 5.1-2.3.1-4.5-.5-6.4-1.8A24 24 0 0 1 5 7.3c1.4-1.7 3.4-3 5.5-3.6a6.6 6.6 0 0 0-.1 2.7c.2 1.6 1 3 2.2 4a4 4 0 0 0 5.6-.7l.2-.3c1-1.5 1.4-3.5.8-5.3 2 .7 3.6 1.8 5 3.2z"/><path d="M151 20.3V20l.2-.4.2-.2.2-.2.3-.1a1 1 0 0 1 .7 0l.3.1.2.2.2.3.1.3V20.9l-.3.3-.2.2h-.3l-.4.1h-.3l-.3-.1-.2-.2-.2-.3-.1-.3v-.3zm.2 0 .1.4.2.3c.2.2.4.3.7.3h.4l.3-.3.2-.3.1-.4V20l-.1-.3-.2-.2-.2-.1-.2-.1h-.3a1 1 0 0 0-.3 0h-.2a1 1 0 0 0-.3.4l-.2.3v.3zm.9.2v.6h-.4v-1.5h1v.7l-.2.1v.2l.4.5h-.4l-.3-.5h-.1zm0-.3H152.5V19.8h-.3z"/></svg>