<svg aria-hidden="true" style="position: absolute; width: 0; height: 0; overflow: hidden;" version="1.1" xmlns="http://www.w3.org/2000/svg" xmlns:xlink="http://www.w3.org/1999/xlink">
   
    <defs>

        <!-- header icons  -->
        <symbol id="logo-icon" viewBox="0 0 32 32">
            <path fill="#f6f6f6" style="fill: var(--color2, #f6f6f6)" d="M0 0l16.343 16.172 15.657 15.828v-32h-32z"></path>
            <path fill="#f6f6f6" style="fill: var(--color2, #f6f6f6)" d="M4.457 4.228l11.943 11.829 11.257 11.485h-23.2v-23.315z"></path>
            <path fill="#4f2ee8" style="fill: var(--color3, #4f2ee8)" d="M27.733 27.619l-11.944-11.829-11.256-11.485h23.2v23.315z"></path>
            <path fill="#4f2ee8" style="fill: var(--color3, #4f2ee8)" d="M9.257 9.028l13.6 13.601h-13.6v-13.6z"></path>
            <path fill="#f6f6f6" style="fill: var(--color2, #f6f6f6)" d="M9.257 9.028l13.6 13.601v-13.6h-13.6z"></path>
        </symbol>

        <symbol id="shopping-bag-icon" viewBox="0 0 32 32">
            <path d="M25.333 9.333h-4v-1.333c0-2.945-2.388-5.333-5.333-5.333s-5.333 2.388-5.333 5.333v0 1.333h-4c-0 0-0.001 0-0.002 0-0.736 0-1.333 0.597-1.333 1.333 0 0.001 0 0.001 0 0.002v-0 14.666c0 2.209 1.791 4 4 4v0h13.334c2.209 0 4-1.791 4-4v0-14.666c0-0 0-0.001 0-0.002 0-0.736-0.597-1.333-1.333-1.333-0.001 0-0.001 0-0.002 0h0zM13.333 8c0-1.473 1.194-2.667 2.667-2.667s2.667 1.194 2.667 2.667v1.333h-5.334v-1.333zM24 25.333c0 0 0 0.001 0 0.002 0 0.736-0.597 1.333-1.333 1.333h-13.334c-0.736 0-1.333-0.597-1.333-1.333 0-0.001 0-0.001 0-0.002v0-13.333h2.667v1.333c0 0.736 0.597 1.333 1.333 1.333s1.333-0.597 1.333-1.333v0-1.333h5.334v1.333c0.036 0.708 0.619 1.269 1.333 1.269s1.297-0.561 1.333-1.266l0-0.003v-1.333h2.667v13.333z"></path>
        </symbol>


        <!-- shopping list icons -->
        <symbol id="trash_bucket_icon" viewBox="0 0 32 32">
            <path fill="none" stroke="#fff" style="stroke: var(--color1, #fff)" stroke-linejoin="round" stroke-linecap="round" stroke-miterlimit="4" stroke-width="2.6667" d="M12 4h8M4 8h24M25.333 8l-0.935 14.026c-0.14 2.104-0.21 3.156-0.665 3.954-0.4 0.702-1.004 1.267-1.731 1.62-0.826 0.4-1.881 0.4-3.99 0.4h-4.025c-2.109 0-3.163 0-3.99-0.4-0.727-0.353-1.331-0.917-1.731-1.62-0.455-0.798-0.525-1.85-0.665-3.954l-0.935-14.026M13.333 14v6.667M18.667 14v6.667"></path>
        </symbol>




        <!-- mobile menu icons -->
        <symbol id="arrow_narrow_right_icon" viewBox="0 0 43 32">
            <path fill="none" stroke="#eac645" style="stroke: var(--color4, #eac645)" stroke-linejoin="round" stroke-linecap="round" stroke-miterlimit="4" stroke-width="5.3333" d="M3.555 16h35.556M39.111 16l-13.333-13.333M39.111 16l-13.333 13.333"></path>
        </symbol>

        <symbol id="mobile_menu_icon" viewBox="0 0 32 32">
            <path stroke-linejoin="round" stroke-linecap="round" stroke-miterlimit="4" stroke-width="2.2857" d="M22.667 13.333h-18.667"></path>
            <path stroke-linejoin="round" stroke-linecap="round" stroke-miterlimit="4" stroke-width="2.2857" d="M28 8h-24"></path>
            <path stroke-linejoin="round" stroke-linecap="round" stroke-miterlimit="4" stroke-width="2.2857" d="M28 18.667h-24"></path>
            <path stroke-linejoin="round" stroke-linecap="round" stroke-miterlimit="4" stroke-width="2.2857" d="M22.667 24h-18.667"></path>
        </symbol>


         <!-- autorization window icons-->
        <symbol id="mail_icon" viewBox="0 0 32 32">
            <path stroke-linejoin="round" stroke-linecap="round" stroke-miterlimit="4" stroke-width="2.2857" d="M28.666 24l-8.857-8M12.191 16l-8.857 8M2.666 9.334l10.887 7.621c0.881 0.617 1.322 0.926 1.802 1.045 0.423 0.106 0.866 0.106 1.289 0 0.48-0.119 0.921-0.427 1.802-1.045l10.887-7.621M9.066 26.666h13.867c2.24 0 3.36 0 4.216-0.435 0.756-0.391 1.358-0.992 1.738-1.726l0.011-0.022c0.434-0.855 0.434-1.976 0.434-4.216v-8.533c0-2.24 0-3.36-0.434-4.217-0.391-0.756-0.992-1.357-1.726-1.737l-0.022-0.011c-0.857-0.435-1.977-0.435-4.217-0.435h-13.865c-2.24 0-3.36 0-4.216 0.435-0.756 0.391-1.358 0.992-1.738 1.726l-0.010 0.022c-0.434 0.855-0.434 1.975-0.434 4.216v8.533c0 2.24 0 3.36 0.434 4.217 0.391 0.756 0.992 1.357 1.726 1.737l0.022 0.011c0.856 0.435 1.977 0.435 4.217 0.435z"></path>
        </symbol>

        <symbol id="password_icon" viewBox="0 0 32 32">
            <path stroke-linejoin="round" stroke-linecap="round" stroke-miterlimit="4" stroke-width="2.2857" d="M22.666 14.666v-4c0-3.682-2.985-6.666-6.666-6.666s-6.666 2.985-6.666 6.666v0 4M10.4 28h11.2c2.24 0 3.36 0 4.216-0.435 0.756-0.391 1.358-0.992 1.738-1.726l0.011-0.022c0.435-0.856 0.435-1.976 0.435-4.216v-0.534c0-2.24 0-3.36-0.435-4.216-0.391-0.756-0.992-1.358-1.726-1.738l-0.022-0.011c-0.856-0.434-1.976-0.434-4.216-0.434h-11.2c-2.24 0-3.36 0-4.216 0.434-0.756 0.391-1.358 0.992-1.738 1.726l-0.011 0.022c-0.435 0.857-0.435 1.977-0.435 4.217v0.533c0 2.24 0 3.36 0.435 4.216 0.391 0.756 0.992 1.358 1.726 1.738l0.022 0.011c0.856 0.435 1.976 0.435 4.216 0.435z"></path>
        </symbol>

        <symbol id="x_close_icon" viewBox="0 0 32 32">
            <path stroke-linejoin="round" stroke-linecap="round" stroke-miterlimit="4" stroke-width="3.4286" d="M24 8l-16 16M8 8l16 16"></path>
        </symbol>

        
        <!-- support Ukraine icons -->
        <symbol id="ukrainian_gerb_icon" viewBox="0 0 20 32">
            <path fill="#fff" style="fill: var(--color1, #fff)" d="M9.005 30.888c-1.738-1.269-2.974-3.137-3.405-5.296l-0.009-0.055h-5.591v-23.117c2.991 1.443 5.153 4.6 5.388 7.876l0.845 6.493-0.407-0.045c-0.893 0-1.676 0.812-1.676 1.608 0 0.752 0.595 1.383 1.379 1.548l1.018 0.226c1.675-3.051 2.63-6.042 2.63-8.973 0-2.646-0.36-5.291-0.422-7.997 0-1.202 0.485-2.3 1.253-3.156 0.783 0.857 1.253 1.954 1.253 3.156 0 2.706-0.423 5.351-0.423 7.997 0 2.93 0.955 5.922 2.631 8.973l1.018-0.226c0.783-0.165 1.378-0.811 1.378-1.548 0-0.811-0.783-1.608-1.675-1.608l-0.423 0.060 0.845-6.493c0.423-3.277 2.398-6.448 5.388-7.876v23.117h-5.576c-0.422 2.18-1.613 4.148-3.414 5.35-0.423 0.286-0.783 0.632-1.018 1.098-0.22-0.466-0.58-0.812-0.987-1.112zM2.647 17.556c0.235-0.857 0.893-1.609 1.738-2.075l-0.658-5.35c-0.246-1.699-0.975-3.195-2.043-4.382l0.007 0.008v11.783h0.956v0.015zM5.466 23.929c0-0.812 0.125-1.548 0.298-2.3l-0.784-0.18c-1.143-0.346-2.036-1.203-2.333-2.3h-0.957v4.78h3.775zM9.178 23.929c0-0.977-0.783-1.834-1.801-1.954-0.173 0.63-0.298 1.262-0.298 1.954h2.099zM9.178 25.552h-1.864c0.298 1.262 0.955 2.42 1.864 3.397v-3.397zM11.808 20.547c-0.72-1.263-1.377-2.585-1.8-3.968-0.423 1.383-1.080 2.705-1.801 3.968 0.72 0.165 1.315 0.631 1.8 1.157 0.486-0.526 1.082-0.992 1.802-1.157zM12.952 23.929c0-0.692-0.125-1.323-0.297-1.954-1.018 0.12-1.801 0.977-1.801 1.954h2.098zM12.717 25.552h-1.863v3.397c0.908-0.992 1.566-2.135 1.863-3.397zM18.34 23.929v-4.78h-0.956c-0.297 1.097-1.206 1.954-2.333 2.3l-0.783 0.18c0.172 0.752 0.297 1.488 0.297 2.3h3.775zM18.34 17.556v-11.8c-1.080 1.203-1.864 2.706-2.036 4.375l-0.658 5.35c0.846 0.466 1.504 1.203 1.738 2.075h0.956z"></path>
        </symbol>

        <symbol id="action_against_hunger_icon" viewBox="0 0 50 32">
            <path fill="#fff" style="fill: var(--color1, #fff)" d="M0 0h50.286v32h-50.286v-32z"></path>
        </symbol>

        <symbol id="cherity_foundation_prytula_icon" viewBox="0 0 102 32">
            <path style="fill: var(--color1, #fff)" d="M0 0h102.222v32h-102.222v-32z"></path>
        </symbol>

        <symbol id="international_med_corps_icon" viewBox="0 0 118 32">
            <path style="fill: var(--color1, #fff)" d="M2.286 0h115.429v32h-115.429z"></path>
        </symbol>

        <symbol id="medecins-sans-frontieres_icon" viewBox="0 0 91 32">
            <path d="M0 0h90.553v32h-90.553v-32z"></path>
        </symbol>

        <symbol id="project_hope_icon" viewBox="0 0 60 32">
            <path style="fill: var(--color1, #fff)" d="M0 0h60.121v32h-60.121z"></path>
        </symbol>

        <symbol id="razom_icon" viewBox="0 0 94 32">
            <path style="fill: var(--color1, #fff)" d="M0 0h93.714v32h-93.714z"></path>
        </symbol>

        <symbol id="save_the_children_icon" viewBox="0 0 129 32">
            <path style="fill: var(--color1, #fff)" d="M-2 0h131v32h-131z"></path>
        </symbol>

        <symbol id="united24_icon" viewBox="0 0 318 32">
            <path d="M0 0h317.867v32h-317.867v-32z"></path>
        </symbol>

        <symbol id="world_vision_icon" viewBox="0 0 66 32">
            <path d="M0 0h66.462v32h-66.462v-32z"></path>
        </symbol>

        <symbol id="trash_bucket_icon" viewBox="0 0 32 32">
            <path fill="none" style="stroke: var(--color1, #fff)" stroke-linejoin="round" stroke-linecap="round" stroke-miterlimit="4" stroke-width="2.6667" d="M12 4h8M4 8h24M25.333 8l-0.935 14.026c-0.14 2.104-0.21 3.156-0.665 3.954-0.4 0.702-1.004 1.267-1.731 1.62-0.826 0.4-1.881 0.4-3.99 0.4h-4.025c-2.109 0-3.163 0-3.99-0.4-0.727-0.353-1.331-0.917-1.731-1.62-0.455-0.798-0.525-1.85-0.665-3.954l-0.935-14.026M13.333 14v6.667M18.667 14v6.667"></path>
        </symbol>

        <symbol id="icon_scroll_up" viewBox="0 0 32 32">
<path d="M15.053 17.867c0.124 0.125 0.271 0.224 0.434 0.292s0.337 0.103 0.513 0.103c0.176 0 0.35-0.035 0.513-0.103s0.31-0.167 0.434-0.292l6.107-6.12c0.124-0.125 0.272-0.224 0.434-0.292s0.337-0.103 0.513-0.103 0.35 0.035 0.513 0.103c0.162 0.068 0.31 0.167 0.434 0.292 0.248 0.25 0.388 0.588 0.388 0.94s-0.139 0.69-0.388 0.94l-6.12 6.12c-0.75 0.749-1.767 1.17-2.827 1.17s-2.077-0.421-2.827-1.17l-6.12-6.12c-0.246-0.248-0.385-0.584-0.387-0.933-0.001-0.175 0.033-0.349 0.099-0.512s0.164-0.31 0.288-0.435c0.124-0.125 0.271-0.224 0.434-0.292s0.337-0.103 0.513-0.103c0.176 0 0.35 0.035 0.513 0.103s0.31 0.167 0.434 0.292l6.107 6.12z"></path>
</symbol>

    </defs>

</svg>