<svg aria-hidden="true" style="position: absolute; width: 0; height: 0; overflow: hidden;" version="1.1" xmlns="http://www.w3.org/2000/svg" xmlns:xlink="http://www.w3.org/1999/xlink">
   
    <defs>

        <!-- header icons  -->
        <symbol id="logo-icon" viewBox="0 0 32 32">
            <path fill="#f6f6f6" style="fill: var(--color2, #f6f6f6)" d="M0 0l16.343 16.172 15.657 15.828v-32h-32z"></path>
            <path fill="#f6f6f6" style="fill: var(--color2, #f6f6f6)" d="M4.457 4.228l11.943 11.829 11.257 11.485h-23.2v-23.315z"></path>
            <path fill="#4f2ee8" style="fill: var(--color3, #4f2ee8)" d="M27.733 27.619l-11.944-11.829-11.256-11.485h23.2v23.315z"></path>
            <path fill="#4f2ee8" style="fill: var(--color3, #4f2ee8)" d="M9.257 9.028l13.6 13.601h-13.6v-13.6z"></path>
            <path fill="#f6f6f6" style="fill: var(--color2, #f6f6f6)" d="M9.257 9.028l13.6 13.601v-13.6h-13.6z"></path>
        </symbol>

        <symbol id="shopping-bag-icon" viewBox="0 0 32 32">
            <path d="M25.333 9.333h-4v-1.333c0-2.945-2.388-5.333-5.333-5.333s-5.333 2.388-5.333 5.333v0 1.333h-4c-0 0-0.001 0-0.002 0-0.736 0-1.333 0.597-1.333 1.333 0 0.001 0 0.001 0 0.002v-0 14.666c0 2.209 1.791 4 4 4v0h13.334c2.209 0 4-1.791 4-4v0-14.666c0-0 0-0.001 0-0.002 0-0.736-0.597-1.333-1.333-1.333-0.001 0-0.001 0-0.002 0h0zM13.333 8c0-1.473 1.194-2.667 2.667-2.667s2.667 1.194 2.667 2.667v1.333h-5.334v-1.333zM24 25.333c0 0 0 0.001 0 0.002 0 0.736-0.597 1.333-1.333 1.333h-13.334c-0.736 0-1.333-0.597-1.333-1.333 0-0.001 0-0.001 0-0.002v0-13.333h2.667v1.333c0 0.736 0.597 1.333 1.333 1.333s1.333-0.597 1.333-1.333v0-1.333h5.334v1.333c0.036 0.708 0.619 1.269 1.333 1.269s1.297-0.561 1.333-1.266l0-0.003v-1.333h2.667v13.333z"></path>
        </symbol>

        <symbol id="burger-menu-icon" viewBox="0 0 32 32">
            <path stroke-linejoin="round" stroke-linecap="round" stroke-miterlimit="4" stroke-width="2.2857" d="M22.667 13.333h-18.667"></path>
            <path stroke-linejoin="round" stroke-linecap="round" stroke-miterlimit="4" stroke-width="2.2857" d="M28 8h-24"></path>
            <path stroke-linejoin="round" stroke-linecap="round" stroke-miterlimit="4" stroke-width="2.2857" d="M28 18.667h-24"></path>
            <path stroke-linejoin="round" stroke-linecap="round" stroke-miterlimit="4" stroke-width="2.2857" d="M22.667 24h-18.667"></path>
        </symbol>

        <symbol id="x-close-icon" viewBox="0 0 32 32">
            <path stroke-linejoin="round" stroke-linecap="round" stroke-miterlimit="4" stroke-width="3.4286" d="M24 8l-16 16M8 8l16 16"></path>
        </symbol>




        <symbol id="arrow-narrow-right-icon" viewBox="0 0 32 32">
            <path stroke-linejoin="round" stroke-linecap="round" stroke-miterlimit="4" stroke-width="3.2" d="M5.333 16h21.333M26.667 16l-8-8M26.667 16l-8 8"></path>
        </symbol>


        <!-- shopping list icons -->


        <!-- mobile menu icons -->
        
        <symbol id="arrow_narrow_right_icon" viewBox="0 0 43 32">
            <path fill="none" stroke="#eac645" style="stroke: var(--color4, #eac645)" stroke-linejoin="round" stroke-linecap="round" stroke-miterlimit="4" stroke-width="5.3333" d="M3.555 16h35.556M39.111 16l-13.333-13.333M39.111 16l-13.333 13.333"></path>
        </symbol>

        <symbol id="mobile_menu_icon" viewBox="0 0 32 32">
            <path stroke-linejoin="round" stroke-linecap="round" stroke-miterlimit="4" stroke-width="2.2857" d="M22.667 13.333h-18.667"></path>
            <path stroke-linejoin="round" stroke-linecap="round" stroke-miterlimit="4" stroke-width="2.2857" d="M28 8h-24"></path>
            <path stroke-linejoin="round" stroke-linecap="round" stroke-miterlimit="4" stroke-width="2.2857" d="M28 18.667h-24"></path>
            <path stroke-linejoin="round" stroke-linecap="round" stroke-miterlimit="4" stroke-width="2.2857" d="M22.667 24h-18.667"></path>
        </symbol>


         <!-- autorization window icons-->
        <symbol id="mail_icon" viewBox="0 0 41 32">
<path fill="none" stroke="#111111" style="stroke: var(--color1, #111111)" stroke-linejoin="round" stroke-linecap="round" stroke-miterlimit="4" stroke-width="3.4286" d="M36.857 26.286l-11.387-10.286M15.673 16l-11.387 10.286M3.429 7.429l13.998 9.799c1.134 0.793 1.701 1.189 2.315 1.342 0.544 0.137 1.115 0.137 1.659 0 0.617-0.153 1.182-0.549 2.315-1.342l13.998-9.799M11.657 29.714h17.829c2.88 0 4.32 0 5.419-0.56 0.969-0.494 1.755-1.28 2.249-2.249 0.56-1.097 0.56-2.537 0.56-5.419v-10.971c0-2.88 0-4.32-0.56-5.419-0.502-0.973-1.275-1.746-2.218-2.236l-0.029-0.014c-1.102-0.56-2.542-0.56-5.422-0.56h-17.829c-2.88 0-4.32 0-5.419 0.56-0.973 0.503-1.746 1.276-2.236 2.22l-0.014 0.029c-0.56 1.097-0.56 2.537-0.56 5.419v10.971c0 2.88 0 4.32 0.56 5.419 0.494 0.969 1.28 1.755 2.249 2.249 1.097 0.56 2.537 0.56 5.419 0.56z"></path>
</symbol>

        <symbol id="password_icon" viewBox="0 0 32 32">
<path fill="none" stroke="#111111" style="stroke: var(--color1, #111111)" stroke-linejoin="round" stroke-linecap="round" stroke-miterlimit="4" stroke-width="3" d="M23.5 14.5v-4.5c0-4.142-3.358-7.5-7.5-7.5s-7.5 3.358-7.5 7.5v0 4.5M9.7 29.5h12.6c2.52 0 3.78 0 4.742-0.49 0.848-0.432 1.536-1.12 1.968-1.968 0.49-0.96 0.49-2.22 0.49-4.742v-0.6c0-2.52 0-3.78-0.49-4.742-0.44-0.851-1.117-1.528-1.943-1.956l-0.025-0.012c-0.96-0.49-2.22-0.49-4.742-0.49h-12.6c-2.52 0-3.78 0-4.742 0.49-0.851 0.44-1.528 1.117-1.956 1.943l-0.012 0.025c-0.49 0.96-0.49 2.22-0.49 4.742v0.6c0 2.52 0 3.78 0.49 4.742 0.432 0.848 1.12 1.536 1.968 1.968 0.96 0.49 2.22 0.49 4.742 0.49z"></path>
</symbol>

        <symbol id="close_icon" viewBox="0 0 32 32">
<path fill="none" stroke="#111111" style="stroke: var(--color1, #111111)" stroke-linejoin="round" stroke-linecap="round" stroke-miterlimit="4" stroke-width="5.3333" d="M29.333 2.667l-26.667 26.667M2.667 2.667l26.667 26.667"></path>
</symbol>

        
        <!-- internet platformas icons -->
        <symbol id="amazon-icon" viewBox="0 0 64 32">
            <path d="M38.42 21.708c-3.093 2.284-7.591 3.504-11.459 3.504-5.423 0-10.306-2.005-13.999-5.342-0.29-0.262-0.030-0.62 0.318-0.416 3.986 2.32 8.915 3.715 14.005 3.715 3.434 0 7.211-0.71 10.684-2.185 0.525-0.223 0.963 0.343 0.45 0.724zM39.709 20.235c-0.395-0.507-2.613-0.239-3.617-0.121-0.304 0.037-0.35-0.228-0.077-0.418 1.771-1.247 4.677-0.887 5.017-0.469s-0.088 3.333-1.753 4.724c-0.256 0.213-0.499 0.1-0.386-0.183 0.373-0.933 1.212-3.025 0.815-3.533z"></path>
            <path d="M36.166 10.894c0 0.181 0.14 0.304 0.314 0.304h2.829l-3.257 4.671c-0.197 0.3-0.199 0.636-0.199 0.834v1.228c0 0.176 0.197 0.381 0.386 0.278 1.845-0.98 4.062-0.884 5.732-0.009 0.205 0.107 0.4-0.1 0.4-0.276v-1.293c-0.021-0.174-0.075-0.351-0.288-0.471-0.947-0.534-2.049-0.69-3.094-0.664l2.811-4.014c0.259-0.36 0.406-0.588 0.409-0.762v-1.037c0-0.181-0.14-0.307-0.314-0.307h-5.425c-0.003-0-0.006-0-0.009-0-0.165 0-0.299 0.134-0.299 0.299 0 0.003 0 0.006 0 0.008v1.212zM16.361 18.451c0.176 0 0.318-0.137 0.318-0.307v-4.491c0-0.98-0.046-2.336 1.14-2.336 1.173 0 1.017 1.391 1.017 2.336l0.002 4.491c0 0.163 0.13 0.295 0.297 0.307h1.653c0.176 0 0.318-0.137 0.318-0.307v-4.491c0-0.481-0.017-1.195 0.153-1.623s0.587-0.694 0.987-0.694c0.478 0 0.848 0.161 0.971 0.729 0.078 0.339 0.046 1.23 0.046 1.588v4.496c0 0.163 0.137 0.295 0.297 0.307h1.653c0.176 0 0.318-0.137 0.318-0.307l0.004-5.347c0-0.908 0.107-1.943-0.416-2.656-0.462-0.641-1.219-0.926-1.91-0.926-0.973 0-1.88 0.499-2.28 1.57-0.465-1.070-1.11-1.57-2.143-1.57-1.017 0-1.771 0.499-2.173 1.57h-0.030v-1.107c-0.012-0.153-0.14-0.276-0.3-0.283h-1.539c-0.176 0-0.318 0.134-0.318 0.304v8.471c0.012 0.151 0.137 0.269 0.295 0.281h1.65zM46.878 9.227c2.449 0 3.775 2.103 3.775 4.778 0 2.584-1.465 4.634-3.775 4.634-2.4 0-3.715-2.103-3.715-4.724 0-2.637 1.326-4.693 3.715-4.693zM46.892 10.95c-1.216 0-1.293 1.658-1.293 2.691s-0.016 3.245 1.279 3.245c1.279 0 1.34-1.783 1.34-2.869 0-0.715-0.030-1.57-0.245-2.247-0.186-0.59-0.555-0.82-1.079-0.82zM53.823 18.457c0.177 0 0.321-0.137 0.323-0.307v-4.562c0-0.571 0.030-1.087 0.262-1.604 0.189-0.408 0.558-0.677 0.96-0.677 1.14 0 1.033 1.356 1.033 2.283v4.601c0.016 0.144 0.141 0.255 0.292 0.267h1.652c0.162 0 0.299-0.117 0.318-0.267v-5.333c0-0.82 0-1.96-0.427-2.637-0.465-0.732-1.18-0.998-1.927-0.998-1.14 0-1.788 0.553-2.25 1.711h-0.030v-1.296c-0.033-0.132-0.151-0.23-0.295-0.237h-1.531c-0.167 0-0.304 0.121-0.318 0.276l0.002 8.474c0 0.163 0.137 0.295 0.297 0.307h1.644zM31.835 14.403v-0.357c-1.195 0-2.456 0.255-2.456 1.662 0 0.713 0.372 1.196 1.005 1.196 0.462 0 0.88-0.286 1.142-0.75 0.325-0.577 0.309-1.107 0.309-1.75zM33.499 18.427c-0.109 0.098-0.267 0.105-0.389 0.039-0.548-0.455-0.647-0.667-0.947-1.1-0.906 0.924-1.548 1.2-2.721 1.2-1.39 0-2.47-0.857-2.47-2.572 0-1.34 0.724-2.252 1.76-2.698 0.896-0.395 2.147-0.464 3.104-0.573v-0.213c0-0.393 0.030-0.857-0.203-1.196-0.199-0.304-0.585-0.429-0.926-0.429-0.629 0-1.189 0.323-1.326 0.992-0.028 0.149-0.137 0.295-0.288 0.302l-1.6-0.172c-0.134-0.030-0.285-0.139-0.245-0.347 0.367-1.941 2.123-2.526 3.691-2.526 0.803 0 1.853 0.213 2.486 0.821 0.803 0.75 0.726 1.75 0.726 2.839v2.572c0 0.773 0.32 1.112 0.622 1.531 0.105 0.149 0.128 0.327-0.007 0.439l-1.262 1.101-0.002-0.005zM10.196 14.409v-0.357c-1.193 0-2.453 0.255-2.453 1.662 0 0.713 0.369 1.196 1.003 1.196 0.465 0 0.88-0.286 1.142-0.75 0.325-0.577 0.309-1.107 0.309-1.75zM11.86 18.432c-0.109 0.098-0.267 0.105-0.389 0.039-0.548-0.455-0.64-0.667-0.947-1.1-0.906 0.924-1.547 1.2-2.721 1.2-1.388 0.001-2.469-0.856-2.469-2.571 0-1.34 0.726-2.252 1.76-2.698 0.896-0.395 2.147-0.464 3.104-0.573v-0.213c0-0.393 0.030-0.857-0.199-1.196-0.203-0.304-0.587-0.429-0.926-0.429-0.629 0-1.191 0.323-1.333 0.992-0.028 0.149-0.137 0.295-0.285 0.302l-1.602-0.172c-0.134-0.030-0.283-0.139-0.245-0.347 0.369-1.941 2.123-2.526 3.691-2.526 0.803 0 1.853 0.213 2.486 0.821 0.803 0.75 0.726 1.75 0.726 2.839v2.572c0 0.773 0.32 1.112 0.622 1.531 0.107 0.149 0.13 0.327-0.005 0.439l-1.259 1.094-0.005-0.005z"></path>
        </symbol>

        <symbol id="ibooks_icon" viewBox="0 0 32 32">
            <path d="M7.467 0h17.067c4.17 0 7.467 3.297 7.467 7.467v17.067c0 4.17-3.297 7.467-7.467 7.467h-17.067c-4.124 0-7.467-3.343-7.467-7.467v0-17.067c0-4.17 3.297-7.467 7.467-7.467z"></path>
            <path d="M15.515 25.988c-0.776-2.618-2.521-3.879-5.139-3.879-2.909 0-3.879 1.455-4.655 1.455-0.291 0-0.388-0.097-0.388-0.291v-12.315c0-1.455 1.939-2.909 5.139-2.909 3.297 0 5.139 2.424 5.139 4.073zM16.291 25.988v-13.867c0-1.649 1.842-4.17 5.139-4.17 3.2 0 5.139 1.552 5.139 3.006v12.315c0 0.194-0.194 0.291-0.485 0.291-0.776 0-1.745-1.455-4.558-1.455-2.618 0-4.364 1.261-5.236 3.879z"></path>
        </symbol>


        <!-- support Ukraine icons -->
        <symbol id="ukrainian_gerb_icon" viewBox="0 0 20 32">
            <path fill="#fff" style="fill: var(--color1, #fff)" d="M9.005 30.888c-1.738-1.269-2.974-3.137-3.405-5.296l-0.009-0.055h-5.591v-23.117c2.991 1.443 5.153 4.6 5.388 7.876l0.845 6.493-0.407-0.045c-0.893 0-1.676 0.812-1.676 1.608 0 0.752 0.595 1.383 1.379 1.548l1.018 0.226c1.675-3.051 2.63-6.042 2.63-8.973 0-2.646-0.36-5.291-0.422-7.997 0-1.202 0.485-2.3 1.253-3.156 0.783 0.857 1.253 1.954 1.253 3.156 0 2.706-0.423 5.351-0.423 7.997 0 2.93 0.955 5.922 2.631 8.973l1.018-0.226c0.783-0.165 1.378-0.811 1.378-1.548 0-0.811-0.783-1.608-1.675-1.608l-0.423 0.060 0.845-6.493c0.423-3.277 2.398-6.448 5.388-7.876v23.117h-5.576c-0.422 2.18-1.613 4.148-3.414 5.35-0.423 0.286-0.783 0.632-1.018 1.098-0.22-0.466-0.58-0.812-0.987-1.112zM2.647 17.556c0.235-0.857 0.893-1.609 1.738-2.075l-0.658-5.35c-0.246-1.699-0.975-3.195-2.043-4.382l0.007 0.008v11.783h0.956v0.015zM5.466 23.929c0-0.812 0.125-1.548 0.298-2.3l-0.784-0.18c-1.143-0.346-2.036-1.203-2.333-2.3h-0.957v4.78h3.775zM9.178 23.929c0-0.977-0.783-1.834-1.801-1.954-0.173 0.63-0.298 1.262-0.298 1.954h2.099zM9.178 25.552h-1.864c0.298 1.262 0.955 2.42 1.864 3.397v-3.397zM11.808 20.547c-0.72-1.263-1.377-2.585-1.8-3.968-0.423 1.383-1.080 2.705-1.801 3.968 0.72 0.165 1.315 0.631 1.8 1.157 0.486-0.526 1.082-0.992 1.802-1.157zM12.952 23.929c0-0.692-0.125-1.323-0.297-1.954-1.018 0.12-1.801 0.977-1.801 1.954h2.098zM12.717 25.552h-1.863v3.397c0.908-0.992 1.566-2.135 1.863-3.397zM18.34 23.929v-4.78h-0.956c-0.297 1.097-1.206 1.954-2.333 2.3l-0.783 0.18c0.172 0.752 0.297 1.488 0.297 2.3h3.775zM18.34 17.556v-11.8c-1.080 1.203-1.864 2.706-2.036 4.375l-0.658 5.35c0.846 0.466 1.504 1.203 1.738 2.075h0.956z"></path>
        </symbol>

        <symbol id="icon_scroll_up" viewBox="0 0 32 32">
            <path d="M15.053 17.867c0.124 0.125 0.271 0.224 0.434 0.292s0.337 0.103 0.513 0.103c0.176 0 0.35-0.035 0.513-0.103s0.31-0.167 0.434-0.292l6.107-6.12c0.124-0.125 0.272-0.224 0.434-0.292s0.337-0.103 0.513-0.103 0.35 0.035 0.513 0.103c0.162 0.068 0.31 0.167 0.434 0.292 0.248 0.25 0.388 0.588 0.388 0.94s-0.139 0.69-0.388 0.94l-6.12 6.12c-0.75 0.749-1.767 1.17-2.827 1.17s-2.077-0.421-2.827-1.17l-6.12-6.12c-0.246-0.248-0.385-0.584-0.387-0.933-0.001-0.175 0.033-0.349 0.099-0.512s0.164-0.31 0.288-0.435c0.124-0.125 0.271-0.224 0.434-0.292s0.337-0.103 0.513-0.103c0.176 0 0.35 0.035 0.513 0.103s0.31 0.167 0.434 0.292l6.107 6.12z"></path>
        </symbol>

           
        <symbol id="safe_children_icon" viewBox="0 0 153 32">
            <path stroke="none" d="M41.878 12.97c-0.051 0.112-0.126 0.205-0.221 0.275l-0.002 0.001c-0.082 0.056-0.182 0.090-0.291 0.092h-0.001c-0.146 0-0.261-0.038-0.361-0.13-0.13-0.061-0.268-0.123-0.437-0.238l-0.545-0.245c-0.23-0.077-0.468-0.115-0.706-0.1-0.383-0.031-0.744 0.077-1.035 0.291-0.23 0.199-0.353 0.499-0.337 0.805 0 0.192 0.054 0.383 0.222 0.56 0.161 0.169 0.33 0.261 0.552 0.353 0.253 0.115 0.483 0.23 0.767 0.276l0.859 0.284c0.634 0.204 1.18 0.528 1.637 0.946l-0.003-0.003c0.222 0.207 0.414 0.491 0.537 0.798 0.151 0.372 0.238 0.804 0.238 1.256 0 0.474-0.096 0.925-0.27 1.336l0.008-0.022c-0.349 0.888-1.042 1.575-1.91 1.91l-0.023 0.008c-0.844 0.307-1.749 0.36-2.623 0.153-0.345-0.054-0.683-0.153-1.005-0.291-0.614-0.215-1.173-0.568-1.641-1.028l0.759-1.151c0.056-0.092 0.127-0.169 0.212-0.229l0.002-0.002c0.107-0.054 0.222-0.077 0.337-0.077 0.153 0 0.291 0.046 0.43 0.123l0.491 0.322c0.215 0.1 0.407 0.215 0.652 0.291 0.268 0.13 0.575 0.146 0.867 0.146 0.383 0.023 0.744-0.077 1.051-0.307 0.237-0.212 0.386-0.518 0.386-0.86 0-0.027-0.001-0.053-0.003-0.080l0 0.004c0-0.23-0.077-0.437-0.23-0.598-0.133-0.182-0.316-0.32-0.529-0.396l-0.008-0.002-0.767-0.284-0.874-0.253c-0.299-0.1-0.591-0.215-0.882-0.345-0.276-0.153-0.537-0.337-0.767-0.568-0.23-0.245-0.407-0.537-0.537-0.851-0.138-0.414-0.207-0.844-0.215-1.281 0-0.836 0.353-1.634 0.959-2.201 0.698-0.619 1.623-0.997 2.636-0.997 0.017 0 0.034 0 0.052 0l-0.003-0c0.92 0 1.825 0.23 2.639 0.667 0.238 0.123 0.43 0.291 0.637 0.46zM48.988 21.576c-0.153 0-0.307-0.023-0.453-0.077-0.129-0.084-0.228-0.205-0.282-0.348l-0.002-0.005-0.161-0.414c-0.302 0.262-0.638 0.5-0.997 0.705l-0.031 0.016-0.575 0.192c-0.215 0.046-0.468 0.046-0.69 0.046-0.291 0-0.621-0.023-0.92-0.123-0.273-0.102-0.509-0.237-0.719-0.403l0.005 0.004c-0.192-0.169-0.345-0.384-0.437-0.644-0.23-0.537-0.215-1.151 0.031-1.687 0.161-0.307 0.407-0.575 0.69-0.767 0.373-0.261 0.808-0.464 1.276-0.585l0.028-0.006c0.533-0.141 1.145-0.222 1.776-0.222 0.112 0 0.223 0.003 0.333 0.008l-0.016-0.001v-0.33c0.023-0.337-0.054-0.69-0.268-0.974-0.188-0.19-0.448-0.307-0.736-0.307-0.011 0-0.022 0-0.032 0.001l0.002-0c-0.004-0-0.009-0-0.014-0-0.222 0-0.436 0.034-0.637 0.096l0.015-0.004c-0.153 0.046-0.284 0.115-0.422 0.192-0.13 0.084-0.261 0.123-0.383 0.192-0.129 0.052-0.28 0.083-0.437 0.084h-0.001c-0.138 0-0.268-0.031-0.383-0.115-0.1-0.077-0.184-0.169-0.245-0.276l-0.407-0.69c0.437-0.383 0.92-0.69 1.473-0.897 0.575-0.184 1.151-0.299 1.749-0.299 0.407 0 0.821 0.054 1.189 0.23 0.36 0.121 0.664 0.331 0.895 0.603l0.002 0.003c0.253 0.284 0.445 0.591 0.591 0.943 0.123 0.383 0.176 0.767 0.176 1.189v4.656h-0.982zM46.457 20.218c0.264-0.002 0.517-0.047 0.753-0.128l-0.017 0.005c0.257-0.131 0.473-0.303 0.65-0.511l0.002-0.003v-1.020c-0.361 0-0.729 0.038-1.089 0.084-0.253 0.031-0.46 0.115-0.69 0.222-0.146 0.066-0.264 0.172-0.343 0.303l-0.002 0.003c-0.046 0.115-0.115 0.23-0.115 0.353-0.023 0.192 0.069 0.422 0.23 0.568 0.136 0.084 0.3 0.133 0.477 0.133 0.048 0 0.096-0.004 0.142-0.011l-0.005 0.001zM55.431 21.576h-1.987l-2.876-7.471h1.833c0.138 0 0.268 0.023 0.383 0.115 0.115 0.061 0.161 0.169 0.215 0.268l1.012 3.352c0.077 0.284 0.169 0.537 0.215 0.805l0.192 0.767 0.192-0.767 0.261-0.805 1.043-3.352c0.037-0.117 0.117-0.211 0.22-0.267l0.002-0.001c0.099-0.072 0.224-0.116 0.358-0.116 0.009 0 0.018 0 0.026 0.001l-0.001-0h1.749zM62.158 13.99c0.476 0 0.897 0.092 1.342 0.23 0.383 0.13 0.744 0.361 1.035 0.667 0.307 0.307 0.552 0.667 0.683 1.074 0.159 0.429 0.252 0.924 0.253 1.441v0.001c0 0.13 0 0.276-0.038 0.43 0 0.077-0.023 0.153-0.077 0.238-0.031 0.061-0.092 0.107-0.153 0.13-0.092 0.038-0.169 0.038-0.253 0.038h-4.249c0.023 0.499 0.207 0.997 0.56 1.358 0.337 0.268 0.744 0.43 1.181 0.407 0.231-0 0.456-0.028 0.671-0.081l-0.019 0.004c0.161-0.061 0.33-0.138 0.483-0.23 0.146-0.077 0.284-0.13 0.422-0.215 0.107-0.054 0.245-0.077 0.384-0.077 0.153 0 0.299 0.046 0.399 0.192l0.637 0.79c-0.21 0.25-0.453 0.463-0.724 0.637l-0.013 0.008c-0.506 0.299-1.058 0.499-1.641 0.583-0.22 0.040-0.474 0.062-0.733 0.062-0.541 0-1.059-0.099-1.537-0.279l0.030 0.010c-0.916-0.346-1.624-1.060-1.956-1.956l-0.007-0.023c-0.197-0.497-0.312-1.073-0.312-1.676 0-0.531 0.089-1.042 0.253-1.517l-0.010 0.033c0.494-1.341 1.761-2.281 3.247-2.281 0.050 0 0.1 0.001 0.15 0.003l-0.007-0zM62.219 15.555c-0.353-0.038-0.698 0.1-0.982 0.353-0.268 0.307-0.437 0.667-0.46 1.051h2.761c0-0.169-0.038-0.36-0.061-0.522-0.089-0.345-0.318-0.625-0.622-0.779l-0.007-0.003c-0.207-0.077-0.422-0.107-0.637-0.1zM72.267 21.691c-0.337 0-0.644-0.046-0.936-0.161-0.514-0.192-0.92-0.606-1.089-1.143-0.083-0.239-0.132-0.515-0.132-0.802 0-0.028 0-0.056 0.001-0.084l-0 0.004v-3.835h-0.637c-0.005 0-0.010 0-0.015 0-0.22 0-0.399-0.179-0.399-0.399 0-0 0-0 0-0v0-0.92l1.181-0.23 0.437-1.81c0.046-0.222 0.253-0.383 0.483-0.337h1.15v2.178h1.787v1.534h-1.787v3.712c0 0.161 0.023 0.291 0.13 0.407 0.084 0.102 0.211 0.168 0.353 0.169h0c0.092 0 0.146 0 0.192-0.031 0.069-0.023 0.115-0.023 0.146-0.061l0.1-0.054c0.038-0.023 0.092-0.023 0.138-0.023 0.054 0 0.115 0 0.169 0.054l0.13 0.138 0.667 1.051c-0.307 0.23-0.606 0.384-0.966 0.514-0.353 0.077-0.736 0.123-1.112 0.123zM75.335 21.576v-10.753h2.209v3.973c0.523-0.483 1.223-0.782 1.993-0.79h0.002c0.361 0 0.744 0.054 1.066 0.23 0.312 0.135 0.575 0.327 0.788 0.565l0.002 0.002c0.408 0.517 0.655 1.178 0.655 1.897 0 0.045-0.001 0.090-0.003 0.134l0-0.006v4.732h-2.201v-4.709c0.031-0.291-0.084-0.598-0.253-0.859-0.16-0.19-0.398-0.309-0.664-0.309-0.023 0-0.046 0.001-0.068 0.003l0.003-0c-0.261 0-0.476 0.069-0.683 0.184-0.23 0.1-0.445 0.253-0.614 0.407v5.308zM86.763 13.99c0.476 0 0.897 0.092 1.342 0.23 0.406 0.142 0.751 0.371 1.026 0.666l0.001 0.001c0.307 0.307 0.552 0.667 0.69 1.074 0.159 0.429 0.252 0.924 0.253 1.441v0.001c0 0.13 0 0.276-0.038 0.43 0 0.077-0.023 0.153-0.077 0.238-0.038 0.061-0.092 0.107-0.169 0.13-0.084 0.038-0.161 0.038-0.253 0.038h-4.219c0.020 0.529 0.236 1.004 0.576 1.358l-0.001-0.001c0.322 0.268 0.729 0.43 1.166 0.407 0.23 0 0.445-0.023 0.66-0.077l0.491-0.23c0.123-0.077 0.268-0.13 0.406-0.215 0.123-0.054 0.253-0.077 0.383-0.077 0.169 0 0.291 0.046 0.406 0.192l0.629 0.79c-0.215 0.253-0.46 0.476-0.744 0.644-0.499 0.307-1.051 0.499-1.634 0.583-0.752 0.138-1.519 0.077-2.24-0.192-0.92-0.337-1.634-1.074-1.956-1.994-0.189-0.492-0.298-1.061-0.298-1.656 0-0.538 0.089-1.055 0.254-1.537l-0.010 0.033c0.494-1.341 1.761-2.28 3.246-2.28 0.037 0 0.074 0.001 0.111 0.002l-0.005-0zM86.817 15.555c-0.345-0.038-0.706 0.1-0.974 0.353-0.276 0.307-0.445 0.667-0.468 1.051h2.761c0-0.169-0.031-0.36-0.054-0.522-0.046-0.161-0.123-0.307-0.215-0.453-0.113-0.138-0.254-0.25-0.415-0.327l-0.007-0.003c-0.199-0.077-0.414-0.107-0.629-0.1zM101.551 18.792c0.054 0 0.1 0 0.153 0.023 0.061 0.023 0.13 0.054 0.169 0.115l0.982 1.051c-0.419 0.55-0.96 0.985-1.585 1.27l-0.026 0.011c-0.67 0.285-1.45 0.45-2.268 0.45-0.797 0-1.557-0.157-2.251-0.442l0.040 0.014c-1.246-0.571-2.198-1.603-2.651-2.872l-0.011-0.035c-0.225-0.635-0.355-1.367-0.355-2.13 0-0.819 0.15-1.603 0.424-2.326l-0.015 0.045c0.281-0.677 0.67-1.255 1.151-1.742l-0.001 0.001c0.475-0.491 1.057-0.876 1.709-1.117l0.032-0.010c1.074-0.422 2.247-0.522 3.375-0.307 0.337 0.054 0.683 0.153 0.989 0.307 0.291 0.1 0.575 0.261 0.844 0.437 0.253 0.169 0.499 0.361 0.69 0.575l-0.859 1.15c-0.046 0.077-0.107 0.13-0.176 0.176-0.087 0.056-0.193 0.090-0.306 0.092h-0.001c-0.084 0-0.169-0.031-0.245-0.061l-0.253-0.13-0.299-0.192c-0.249-0.153-0.539-0.272-0.848-0.342l-0.019-0.004c-0.222-0.054-0.437-0.054-0.683-0.054-0.023-0.001-0.050-0.001-0.077-0.001-1.281 0-2.364 0.844-2.725 2.006l-0.005 0.020c-0.147 0.434-0.231 0.934-0.231 1.453s0.085 1.019 0.241 1.487l-0.010-0.033c0.138 0.384 0.33 0.767 0.598 1.081 0.472 0.542 1.164 0.883 1.935 0.883 0.021 0 0.042-0 0.062-0.001l-0.003 0c0.215 0 0.406 0 0.598-0.023 0.169-0.023 0.353-0.054 0.514-0.115 0.169-0.054 0.307-0.13 0.476-0.215 0.166-0.097 0.31-0.209 0.437-0.337l0-0c0.046-0.054 0.107-0.092 0.176-0.115zM103.983 21.576v-10.753h2.201v3.973c0.523-0.483 1.223-0.782 1.993-0.79h0.002c0.353 0 0.736 0.054 1.058 0.23 0.315 0.134 0.581 0.326 0.796 0.566l0.002 0.002c0.408 0.516 0.655 1.177 0.655 1.894 0 0.046-0.001 0.092-0.003 0.137l0-0.006v4.732h-2.201v-4.709c0.023-0.291-0.092-0.598-0.261-0.859-0.163-0.189-0.403-0.309-0.67-0.309-0.021 0-0.041 0.001-0.061 0.002l0.003-0c-0.253 0-0.468 0.069-0.675 0.184-0.23 0.1-0.445 0.253-0.614 0.407v5.308zM114.851 12.096c0 0.153-0.015 0.322-0.1 0.499-0.236 0.469-0.708 0.787-1.256 0.798l-0.001 0c-0.169 0-0.337-0.038-0.483-0.115-0.153-0.061-0.299-0.153-0.406-0.268-0.123-0.112-0.22-0.25-0.281-0.407l-0.002-0.007c-0.077-0.153-0.107-0.33-0.1-0.506 0-0.153 0.023-0.361 0.1-0.499 0.061-0.153 0.153-0.307 0.284-0.414 0.115-0.115 0.253-0.207 0.406-0.268 0.147-0.080 0.321-0.127 0.506-0.127s0.36 0.047 0.512 0.13l-0.006-0.003c0.314 0.13 0.56 0.383 0.698 0.683 0.115 0.138 0.13 0.307 0.13 0.506zM114.606 14.144v7.471h-2.186v-7.486zM118.824 10.815v10.761h-2.224v-10.753zM125.827 21.576c-0.123 0-0.245-0.023-0.361-0.077-0.1-0.046-0.169-0.161-0.192-0.276l-0.169-0.583c-0.123 0.169-0.291 0.307-0.46 0.453-0.161 0.13-0.314 0.253-0.506 0.322-0.359 0.188-0.785 0.299-1.236 0.299-0.414 0-0.807-0.093-1.158-0.26l0.016 0.007c-0.338-0.182-0.62-0.427-0.839-0.722l-0.005-0.007c-0.239-0.345-0.428-0.746-0.546-1.177l-0.006-0.028c-0.126-0.459-0.199-0.986-0.199-1.53 0-0.575 0.081-1.131 0.232-1.657l-0.010 0.042c0.153-0.48 0.381-0.896 0.673-1.258l-0.006 0.007c0.253-0.337 0.598-0.606 0.997-0.836 0.422-0.192 0.859-0.307 1.281-0.307 0.639 0.002 1.224 0.234 1.676 0.617l-0.004-0.003v-3.781h2.201v10.761zM123.587 20.004c0.018 0.001 0.039 0.001 0.060 0.001 0.399 0 0.761-0.155 1.030-0.408l-0.001 0.001c0.115-0.092 0.192-0.192 0.291-0.307v-3.16c-0.13-0.169-0.322-0.307-0.537-0.383-0.174-0.071-0.375-0.112-0.587-0.112s-0.413 0.041-0.597 0.116l0.011-0.004c-0.181 0.087-0.329 0.218-0.435 0.379l-0.002 0.004c-0.126 0.198-0.227 0.429-0.288 0.674l-0.003 0.016c-0.066 0.335-0.104 0.719-0.104 1.113 0 0.33 0.027 0.654 0.078 0.97l-0.005-0.035c0.054 0.23 0.107 0.445 0.245 0.66 0.077 0.146 0.215 0.284 0.345 0.36 0.169 0.061 0.33 0.13 0.499 0.13zM128.918 21.576v-7.471h1.319c0.092 0 0.192 0 0.268 0.023l0.207 0.092 0.1 0.169c0.031 0.077 0.054 0.169 0.054 0.253l0.115 0.683c0.25-0.383 0.548-0.71 0.889-0.983l0.008-0.006c0.33-0.253 0.698-0.368 1.081-0.368 0.019-0.001 0.040-0.001 0.062-0.001 0.291 0 0.56 0.096 0.778 0.257l-0.003-0.002-0.284 1.641c-0.008 0.087-0.051 0.163-0.114 0.214l-0.001 0c-0.054 0.054-0.13 0.054-0.215 0.054-0.077 0-0.192 0-0.261-0.031-0.138-0.023-0.276-0.023-0.422-0.023-0.575 0-1.035 0.307-1.35 0.936v4.564zM137.8 13.99c0.46 0 0.89 0.092 1.342 0.23 0.403 0.143 0.745 0.372 1.019 0.666l0.001 0.002c0.307 0.307 0.552 0.667 0.69 1.074 0.156 0.426 0.245 0.918 0.245 1.431 0 0.004 0 0.008 0 0.011v-0.001c0 0.13 0 0.276-0.023 0.43 0 0.077-0.031 0.153-0.092 0.238-0.035 0.059-0.088 0.105-0.151 0.13l-0.002 0.001c-0.092 0.038-0.169 0.038-0.253 0.038h-4.219c0.023 0.499 0.215 0.997 0.56 1.358 0.33 0.268 0.736 0.43 1.173 0.407 0.002 0 0.004 0 0.006 0 0.229 0 0.452-0.028 0.665-0.081l-0.019 0.004 0.499-0.23c0.13-0.077 0.268-0.13 0.406-0.215 0.123-0.054 0.253-0.077 0.383-0.077 0.169 0 0.299 0.046 0.414 0.192l0.629 0.79c-0.222 0.253-0.46 0.476-0.744 0.644-0.506 0.299-1.058 0.499-1.641 0.583-0.268 0.031-0.506 0.054-0.79 0.054-0.483 0-0.982-0.092-1.434-0.253-0.925-0.339-1.64-1.058-1.964-1.964l-0.007-0.023c-0.19-0.488-0.3-1.053-0.3-1.644 0-0.543 0.093-1.064 0.264-1.549l-0.010 0.033c0.331-0.89 0.994-1.59 1.834-1.963l0.022-0.009c0.46-0.192 0.982-0.307 1.496-0.307zM137.846 15.555c-0.030-0.003-0.066-0.004-0.101-0.004-0.338 0-0.643 0.136-0.865 0.357l0-0c-0.284 0.307-0.453 0.667-0.476 1.051h2.738c0-0.169-0.038-0.36-0.069-0.522-0.038-0.161-0.115-0.314-0.215-0.453-0.109-0.137-0.245-0.248-0.4-0.327l-0.007-0.003c-0.192-0.077-0.399-0.107-0.606-0.1zM142.517 21.576v-7.471h1.358c0.115 0 0.253 0.023 0.353 0.092 0.115 0.046 0.169 0.161 0.192 0.268l0.13 0.445 0.445-0.383c0.169-0.115 0.322-0.23 0.491-0.307 0.164-0.078 0.357-0.144 0.557-0.188l0.018-0.003c0.215-0.061 0.437-0.092 0.652-0.061 0.361 0 0.744 0.061 1.058 0.23 0.315 0.136 0.581 0.331 0.796 0.573l0.002 0.002c0.215 0.284 0.383 0.591 0.499 0.897 0.1 0.335 0.159 0.72 0.161 1.119v4.741h-2.209v-4.679c0.023-0.307-0.092-0.614-0.253-0.867-0.165-0.189-0.407-0.308-0.677-0.308-0.018 0-0.036 0.001-0.054 0.002l0.002-0c-0.261 0-0.46 0.069-0.683 0.184-0.23 0.109-0.427 0.245-0.599 0.407l0.001-0.001v5.308z"></path>
            <path stroke="none" d="M27.42 7.939c1.304-1.549 1.879-2.263 1.741-2.684-0.153-0.361-0.468-0.614-0.844-0.721-0.491-0.192-1.166-0.276-1.496-0.084-0.268 0.215-0.514 0.514-0.744 0.767l-0.407 0.483c-2.047-2.126-4.762-3.596-7.807-4.070l-0.078-0.010c-0.793-0.923-1.961-1.504-3.265-1.504-0.182 0-0.362 0.011-0.538 0.033l0.021-0.002c-1.209 0.206-2.22 0.915-2.828 1.9l-0.010 0.018c-2.796 0.886-5.166 2.453-6.997 4.51l-0.014 0.016c-0.437-0.123-1.365 0.031-1.971 0.361-0.269 0.122-0.472 0.35-0.558 0.629l-0.002 0.007c-0.031 0.192 0.046 0.476 0.767 1.335-1.879 3.014-2.7 6.581-2.301 10.124 0.399 3.528 2.079 6.796 4.732 9.158 0.92 0.821 1.956 1.511 3.045 2.048 2.183 1.098 4.758 1.741 7.482 1.741 3.163 0 6.123-0.866 8.657-2.374l-0.078 0.043c0.407-0.253 0.552-0.736 0.36-1.151l-0.054-0.153c-0.828-1.818-3.29-7.432-1.918-12.533 0.575-2.125 2.24-4.387 3.659-6.197 1.534 2.401 2.286 5.216 2.171 8.061-0.078 2.721-1.008 5.21-2.531 7.226l0.023-0.032c-0.077 0.077-0.077 0.192-0.046 0.307l0.161 0.353c0.077 0.13 0.261 0.222 0.384 0.13 0.038-0.015 0.077-0.046 0.107-0.077 4.065-5.139 4.564-12.318 1.174-17.656zM9.549 20.004c-0.537 2.807-0.652 5.676-0.337 8.521-3.896-2.023-6.695-5.697-7.488-10.069l-0.013-0.086c-0.14-0.718-0.219-1.544-0.219-2.389 0-2.302 0.593-4.465 1.634-6.345l-0.034 0.067c0.537 0.591 1.204 1.243 1.887 1.918 1.657 1.68 3.582 3.605 4.502 4.955 0.545 0.767 0.383 1.764 0.077 3.428zM24.145 7.348c-3.068 3.16-5.998 4.878-8.644 5.070-2.278 0.092-4.525-0.537-6.404-1.818-1.549-0.991-2.896-2.078-4.11-3.297l-0.077-0.077c1.519-1.657 3.451-2.869 5.591-3.521-0.132 0.5-0.208 1.073-0.208 1.665 0 0.36 0.028 0.713 0.082 1.058l-0.005-0.038c0.229 1.614 1.055 3.001 2.243 3.956l0.012 0.009c0.672 0.538 1.534 0.863 2.473 0.863 1.283 0 2.424-0.608 3.15-1.552l0.007-0.009 0.153-0.23c1.074-1.572 1.373-3.559 0.79-5.369 1.94 0.756 3.59 1.878 4.934 3.292l0.005 0.006z"></path>
            <path stroke="none" d="M151.023 20.288c0-0.115 0.023-0.222 0.054-0.337l0.123-0.307c0.046-0.092 0.107-0.176 0.184-0.253s0.161-0.13 0.253-0.192c0.092-0.054 0.192-0.084 0.291-0.1 0.097-0.033 0.209-0.052 0.326-0.052s0.229 0.019 0.333 0.054l-0.007-0.002 0.299 0.1c0.077 0.061 0.161 0.115 0.253 0.207 0.077 0.077 0.13 0.161 0.176 0.253 0.054 0.061 0.092 0.176 0.115 0.291 0.031 0.115 0.054 0.222 0.054 0.337-0.007 0.12-0.026 0.233-0.056 0.341l0.003-0.011c-0.023 0.115-0.084 0.192-0.115 0.307-0.046 0.077-0.1 0.169-0.192 0.245-0.077 0.092-0.161 0.13-0.238 0.192-0.092 0.054-0.192 0.092-0.299 0.115-0.107 0.031-0.215 0.046-0.33 0.054-0.107 0-0.215-0.023-0.322-0.054-0.123-0.023-0.199-0.092-0.307-0.115-0.077-0.054-0.161-0.1-0.253-0.192-0.077-0.077-0.13-0.161-0.176-0.253-0.069-0.077-0.077-0.184-0.115-0.299-0.031-0.107-0.054-0.222-0.054-0.33zM151.238 20.288c0 0.123 0.031 0.268 0.092 0.407 0.054 0.146 0.1 0.23 0.215 0.337 0.156 0.188 0.39 0.307 0.651 0.307 0.011 0 0.022-0 0.033-0.001l-0.002 0c0.13 0 0.261-0.023 0.383-0.077 0.119-0.074 0.221-0.15 0.318-0.233l-0.003 0.003c0.107-0.084 0.185-0.2 0.221-0.333l0.001-0.004c0.061-0.13 0.084-0.253 0.084-0.407 0-0.092 0-0.192-0.023-0.284-0.031-0.092-0.069-0.176-0.115-0.253-0.054-0.077-0.077-0.13-0.169-0.222l-0.176-0.161c-0.073-0.043-0.157-0.080-0.246-0.106l-0.008-0.002c-0.077-0.023-0.169-0.023-0.268-0.023-0.115 0-0.192 0-0.284 0.023-0.077 0.031-0.153 0.054-0.23 0.107-0.153 0.092-0.268 0.23-0.361 0.384-0.061 0.084-0.084 0.176-0.115 0.253-0.023 0.092 0 0.192 0 0.284zM152.058 20.502v0.552h-0.345v-1.473h0.514c0.192 0 0.353 0.023 0.43 0.1 0.081 0.079 0.131 0.19 0.131 0.312 0 0.009-0 0.018-0.001 0.026l0-0.001c0 0.115-0.015 0.192-0.077 0.253-0.054 0.077-0.13 0.13-0.245 0.169 0.031 0.023 0.054 0.023 0.054 0.046 0.023 0.031 0.023 0.054 0.061 0.077l0.299 0.514h-0.337c-0.046 0-0.077-0.038-0.1-0.061l-0.253-0.453-0.015-0.023h-0.115zM152.058 20.218h0.13c0.061 0 0.123 0 0.138-0.023l0.092-0.054 0.046-0.077v-0.176l-0.023-0.054c-0.023-0.023-0.054-0.023-0.077-0.023h-0.307z"></path>
        </symbol>

        <symbol id="project_hope_icon" viewBox="0 0 65 32">
            <path stroke="none" d="M17.067 0.551c-0.071 0.071-0.080 0.124-0.080 0.72v0.658l0.107 0.071c0.098 0.080 0.124 0.080 0.773 0.071 0.587-0.009 0.684-0.018 0.738-0.080 0.062-0.053 0.071-0.142 0.071-0.72 0-0.844 0.062-0.791-0.853-0.791-0.631 0-0.684 0.009-0.756 0.071z"></path>
            <path stroke="none" d="M32.293 0.996c-0.089 0.071-0.089 0.080-0.098 0.907l-0.009 0.844h-0.364c-0.524 0-0.498-0.036-0.516 0.773l-0.009 0.676 0.089 0.089c0.089 0.089 0.116 0.098 0.453 0.098h0.347v1.867c0 1.849 0.009 2.036 0.124 2.116 0.027 0.009 0.364 0.027 0.756 0.027 0.693 0 0.711-0.009 0.764-0.080 0.053-0.080 0.053-0.329 0.053-2.009v-1.92h0.373c0.551 0 0.533 0.018 0.533-0.818 0-0.844 0.018-0.818-0.533-0.818h-0.373v-1.671l-0.098-0.071c-0.089-0.071-0.142-0.080-0.747-0.080-0.596 0-0.667 0.009-0.747 0.071z"></path>
            <path stroke="none" d="M3.298 2.658c-0.302 0.071-0.649 0.249-0.844 0.418-0.098 0.089-0.187 0.151-0.196 0.151s-0.027-0.071-0.027-0.169c0-0.116-0.018-0.187-0.071-0.24-0.071-0.071-0.116-0.071-0.756-0.071s-0.693 0-0.756 0.071c-0.080 0.080-0.080 0.124-0.080 3.893 0 3.653 0.009 3.822 0.071 3.876 0.098 0.098 1.387 0.098 1.511 0.009l0.080-0.062v-1.316c0-0.72 0.018-1.316 0.036-1.316s0.080 0.062 0.151 0.133c0.071 0.071 0.231 0.187 0.373 0.258 0.711 0.382 1.68 0.347 2.4-0.080 1.307-0.773 1.804-2.569 1.12-4.036-0.364-0.756-1.013-1.316-1.769-1.502-0.338-0.089-0.924-0.098-1.244-0.018zM4.213 4.338c0.284 0.142 0.507 0.373 0.622 0.667 0.116 0.302 0.116 0.836-0.009 1.129-0.107 0.276-0.364 0.56-0.622 0.684-0.196 0.098-0.249 0.107-0.622 0.107-0.471 0-0.64-0.062-0.916-0.32-0.542-0.498-0.56-1.511-0.036-2.027 0.276-0.284 0.578-0.391 1.040-0.373 0.258 0.018 0.347 0.036 0.542 0.133z"></path>
            <path stroke="none" d="M12.747 2.649c-1.067 0.249-1.876 0.978-2.213 2.009-0.124 0.391-0.16 1.12-0.080 1.529 0.151 0.702 0.56 1.36 1.084 1.751 0.293 0.222 0.818 0.471 1.164 0.542 0.391 0.098 1.031 0.089 1.422-0.009 0.16-0.044 0.444-0.16 0.631-0.249 0.613-0.302 1.182-0.933 1.413-1.573 0.32-0.889 0.24-1.831-0.24-2.658-0.080-0.124-0.276-0.364-0.453-0.542-0.356-0.347-0.747-0.587-1.244-0.738-0.329-0.107-1.129-0.142-1.484-0.062zM13.849 4.32c0.213 0.080 0.471 0.284 0.604 0.471 0.293 0.444 0.284 1.138-0.027 1.591-0.311 0.462-1.049 0.658-1.591 0.418-0.613-0.276-0.898-1.004-0.667-1.724 0.204-0.649 0.987-0.996 1.68-0.756z"></path>
            <path stroke="none" d="M21.644 2.649c-0.587 0.124-1.102 0.4-1.493 0.791-1.173 1.173-1.138 3.236 0.071 4.347 0.56 0.516 1.244 0.756 2.124 0.756 0.569 0.009 0.978-0.080 1.404-0.302 0.48-0.24 1.004-0.791 1.12-1.191 0.036-0.124 0.036-0.16-0.027-0.222-0.062-0.071-0.098-0.071-0.756-0.062l-0.684 0.009-0.204 0.142c-0.302 0.204-0.489 0.258-0.853 0.258-0.373 0-0.649-0.089-0.889-0.302-0.16-0.142-0.427-0.569-0.373-0.613 0.009-0.009 0.898-0.018 1.956-0.018 2.258 0 2.062 0.036 2.098-0.436 0.071-0.756-0.187-1.636-0.64-2.196-0.347-0.436-0.782-0.72-1.351-0.898-0.329-0.107-1.129-0.142-1.502-0.062zM22.578 4.124c0.444 0.089 0.738 0.356 0.862 0.764l0.027 0.089h-1.182c-0.649 0-1.191-0.018-1.2-0.027-0.044-0.044 0.204-0.462 0.347-0.578 0.311-0.24 0.738-0.338 1.147-0.249z"></path>
            <path stroke="none" d="M27.804 2.649c-1.173 0.276-1.964 1.049-2.258 2.196-0.098 0.382-0.089 1.12 0.018 1.52 0.222 0.836 0.764 1.511 1.511 1.876 1.289 0.622 2.871 0.284 3.689-0.773 0.204-0.276 0.427-0.738 0.453-0.942 0.027-0.258 0-0.276-0.862-0.276h-0.756l-0.222 0.24c-0.276 0.284-0.507 0.382-0.924 0.382-0.8 0-1.342-0.596-1.28-1.396 0.036-0.498 0.267-0.862 0.684-1.067 0.222-0.107 0.267-0.124 0.596-0.124 0.311 0 0.373 0.018 0.56 0.107 0.124 0.062 0.276 0.178 0.347 0.258 0.071 0.089 0.169 0.178 0.213 0.204 0.053 0.027 0.302 0.044 0.782 0.044 0.844 0 0.898-0.009 0.862-0.284-0.018-0.098-0.089-0.311-0.178-0.471-0.347-0.693-0.978-1.218-1.733-1.431-0.364-0.107-1.164-0.142-1.502-0.062z"></path>
            <path stroke="none" d="M9.947 2.684c-0.24 0.062-0.533 0.222-0.684 0.373-0.062 0.062-0.16 0.213-0.222 0.32l-0.107 0.204v-0.347c0-0.507 0.018-0.489-0.836-0.489-0.613 0-0.684 0.009-0.764 0.071l-0.089 0.071-0.009 2.613c0 1.431 0 2.649 0.009 2.693 0.044 0.187 0.089 0.196 0.836 0.196 0.533 0 0.702-0.009 0.756-0.053 0.071-0.053 0.071-0.124 0.098-1.511 0.018-1.431 0.018-1.467 0.098-1.653 0.178-0.382 0.507-0.596 0.978-0.64 0.4-0.027 0.382 0.018 0.382-0.933 0-0.818 0-0.827-0.089-0.898-0.098-0.080-0.107-0.080-0.356-0.018z"></path>
            <path stroke="none" d="M17.076 2.8c-0.062 0.053-0.062 0.133-0.089 2.978-0.018 2.764-0.018 2.933-0.089 3.067-0.089 0.187-0.222 0.284-0.471 0.329-0.338 0.062-0.347 0.080-0.347 0.853 0 0.667 0 0.667 0.098 0.747 0.080 0.062 0.124 0.071 0.427 0.053 0.933-0.062 1.511-0.4 1.804-1.031 0.267-0.56 0.267-0.551 0.267-3.902v-3.004l-0.089-0.071c-0.080-0.062-0.151-0.071-0.764-0.071-0.524 0-0.684 0.009-0.747 0.053z"></path>
            <path stroke="none" d="M25.307 11.627c-2.818 0.267-5.369 1.733-7.076 4.053-0.231 0.311-0.631 0.96-0.844 1.378-0.311 0.613-0.658 1.6-0.818 2.356-0.951 4.48 1.218 9.004 5.289 11.031 2.107 1.049 4.551 1.298 6.827 0.72 3.271-0.836 5.911-3.307 6.978-6.551 0.302-0.933 0.436-1.724 0.471-2.8 0.044-1.707-0.258-3.138-1.004-4.676-0.462-0.96-1.111-1.858-1.884-2.64-1.662-1.662-3.778-2.658-6.089-2.871-0.48-0.044-1.378-0.044-1.849 0zM23.982 15.129c1.689 0.293 2.649 1.476 2.88 3.529 0.018 0.178 0.036 0.711 0.036 1.173 0 0.8 0 0.844-0.080 0.996-0.151 0.293-0.56 0.418-0.853 0.276-0.338-0.178-0.4-0.347-0.4-1.236 0-0.613 0-0.667-0.080-0.8-0.284-0.507-1.084-0.382-1.209 0.187-0.018 0.080-0.036 1.031-0.036 2.124 0 1.92-0.009 1.991-0.080 2.107-0.142 0.24-0.507 0.311-0.738 0.151-0.258-0.169-0.258-0.142-0.258-2.018 0-1.387-0.009-1.68-0.053-1.689-0.124-0.053-0.133 0.027-0.133 2.16 0 1.929 0 2.107-0.062 2.222-0.187 0.373-0.693 0.4-0.924 0.044l-0.080-0.124v-2.116c0-2.16-0.009-2.24-0.133-2.187-0.053 0.009-0.053 0.338-0.053 1.893 0 1.884 0 1.884-0.080 2.044-0.204 0.382-0.729 0.4-0.933 0.036-0.080-0.116-0.080-0.204-0.089-2.044-0.009-1.591-0.018-1.92-0.062-1.929-0.027-0.018-0.071 0-0.089 0.018-0.027 0.036-0.044 0.533-0.044 1.387l-0.018 1.342-0.089 0.098c-0.151 0.16-0.293 0.222-0.48 0.196-0.196-0.018-0.32-0.116-0.418-0.284-0.062-0.124-0.062-0.258-0.062-2.213 0-2.124 0.018-2.498 0.142-3.013 0.347-1.333 1.271-2.124 2.729-2.347 0.364-0.053 1.413-0.044 1.751 0.018zM30.329 18.524c0.258 0.16 0.249 0.036 0.267 2.436 0.018 2.124 0.018 2.151 0.098 2.151 0.071 0 0.071-0.027 0.089-1.947 0.018-1.573 0.027-1.964 0.071-2.027 0.204-0.311 0.711-0.329 0.916-0.027 0.062 0.089 0.071 0.222 0.089 2.053l0.018 1.947 0.080 0.009 0.080 0.018 0.009-1.351c0.018-1.236 0.018-1.36 0.080-1.458 0.222-0.329 0.747-0.32 0.942 0.027 0.062 0.107 0.062 0.276 0.071 1.973 0.018 2.658-0.036 3.218-0.427 3.991-0.142 0.302-0.222 0.409-0.507 0.693-0.462 0.462-0.818 0.658-1.476 0.827-1.040 0.267-2.444 0.169-3.209-0.222-1.022-0.524-1.644-1.511-1.858-2.969-0.080-0.524-0.124-2.044-0.062-2.249 0.089-0.32 0.329-0.507 0.658-0.507 0.222 0 0.409 0.098 0.533 0.284 0.089 0.107 0.089 0.16 0.107 0.898 0.018 0.729 0.027 0.782 0.107 0.916 0.213 0.356 0.684 0.427 1.013 0.151 0.213-0.187 0.213-0.151 0.213-2.347 0-1.324 0.018-2.036 0.036-2.107 0.187-0.489 0.827-0.489 1.031 0 0.036 0.071 0.044 0.569 0.044 1.769 0 1.618 0 1.671 0.071 1.671 0.036 0 0.080-0.027 0.089-0.062 0.009-0.027 0.018-0.996 0.018-2.151 0-2.044 0.009-2.107 0.080-2.222 0.142-0.231 0.489-0.311 0.729-0.169z"></path>
            <path stroke="none" d="M0.969 12.009c-0.080 0.027-0.178 0.080-0.222 0.116-0.187 0.169-0.178-0.338-0.178 9.413 0 9.049 0 9.093 0.080 9.236 0.044 0.098 0.124 0.178 0.222 0.222 0.133 0.080 0.213 0.080 1.867 0.080s1.724 0 1.867-0.080c0.293-0.142 0.267 0.142 0.293-3.964l0.018-3.662 5.458-0.018v3.644c0 4.027-0.018 3.804 0.231 3.982 0.116 0.080 0.124 0.080 1.884 0.089 1.724 0.009 1.769 0.009 1.92-0.071 0.107-0.053 0.169-0.116 0.222-0.24 0.062-0.151 0.062-0.347 0.062-9.289l-0.018-9.138-0.080-0.107c-0.044-0.053-0.124-0.133-0.196-0.178-0.124-0.071-0.196-0.071-1.867-0.071s-1.742 0-1.867 0.071c-0.071 0.044-0.16 0.124-0.196 0.178-0.080 0.107-0.080 0.124-0.098 3.511l-0.018 3.404h-5.44l-0.018-3.404c-0.018-3.387-0.018-3.404-0.098-3.511-0.044-0.053-0.133-0.133-0.204-0.178-0.116-0.071-0.196-0.071-1.804-0.080-1.351-0.009-1.707 0-1.822 0.044z"></path>
            <path stroke="none" d="M38.462 12.009c-0.080 0.027-0.178 0.080-0.213 0.116-0.196 0.169-0.187-0.338-0.187 9.396 0 8.862 0.009 9.093 0.080 9.244 0.044 0.116 0.107 0.178 0.222 0.231 0.142 0.080 0.196 0.080 1.876 0.080 1.618 0 1.742 0 1.858-0.071 0.071-0.036 0.16-0.124 0.204-0.196 0.071-0.116 0.071-0.204 0.089-2.924l0.018-2.809 1.902-0.018c1.884-0.027 1.92-0.027 2.356-0.124 0.649-0.133 1.076-0.284 1.662-0.578 0.693-0.347 1.12-0.658 1.698-1.244 0.844-0.853 1.333-1.671 1.662-2.8 0.169-0.596 0.222-1.013 0.222-1.769 0.009-0.747-0.036-1.067-0.187-1.671-0.587-2.267-2.382-4.071-4.649-4.667-0.889-0.24-0.729-0.231-4.773-0.24-3.084-0.009-3.716 0-3.84 0.044zM45.831 16.133c0.373 0.089 0.72 0.293 1.040 0.613 0.329 0.32 0.507 0.649 0.631 1.147 0.107 0.436 0.080 1.040-0.062 1.467-0.187 0.596-0.622 1.12-1.147 1.378-0.444 0.222-0.596 0.24-2.338 0.24h-1.564v-4.898h1.609c1.289 0 1.636 0.009 1.831 0.053z"></path>
            <path stroke="none" d="M53.44 12.009c-0.169 0.062-0.267 0.151-0.356 0.293-0.053 0.107-0.062 0.836-0.062 9.191 0 7.467 0.009 9.111 0.053 9.218 0.027 0.080 0.107 0.187 0.178 0.249l0.133 0.098h10.702l0.133-0.098c0.222-0.178 0.231-0.213 0.231-1.964 0-0.871-0.009-1.618-0.036-1.68-0.036-0.151-0.231-0.356-0.382-0.4-0.089-0.018-1.298-0.036-3.404-0.036h-3.262v-3.413l2.933-0.009c2.809-0.018 2.933-0.018 3.049-0.080 0.062-0.044 0.151-0.133 0.187-0.213 0.080-0.133 0.080-0.187 0.080-1.742 0-1.6 0-1.618-0.080-1.76-0.178-0.302 0.018-0.284-3.253-0.284h-2.916v-3.191l3.244-0.009c3.493-0.009 3.316 0 3.529-0.204 0.169-0.16 0.187-0.329 0.169-2.036-0.009-1.547-0.009-1.556-0.089-1.689-0.053-0.080-0.151-0.169-0.222-0.204-0.133-0.071-0.356-0.071-5.28-0.080-4.276-0.009-5.164 0-5.28 0.044z"></path>
        </symbol>

        <symbol id="united24_icon" viewBox="0 0 146 32">
            <path stroke="none" d="M43.063 11.282h7.3v10.561h-7.3v-10.561zM12.876 15.733c0 1.518-0.876 2.198-2.779 2.198-1.893 0-2.789-0.688-2.789-2.198v-4.451h-7.31v4.694c0 4.451 2.638 6.016 10.099 6.016s10.089-1.565 10.089-6.016v-4.694h-7.31v4.451zM51.138 15.193h6.122v6.649h7.31v-6.649h6.112v-3.911h-19.544v3.911zM34.917 16.758l-5.729-5.476h-8.055v10.561h7.209v-5.476l5.709 5.476h8.075v-10.561h-7.209v5.476zM127.298 13.48c0-2.84-2.719-4.209-8.438-4.209-6.182 0-8.79 1.565-8.79 5.233h5.759c0-1.275 0.936-1.713 2.829-1.713 1.833 0 2.406 0.297 2.406 0.735 0 0.634-0.201 0.634-4.833 1.666-5.125 1.126-6.706 3.372-6.706 5.523v1.126h17.369v-3.426h-10.159c0.614-0.54 2.346-0.688 6.192-1.416 2.568-0.438 4.37-1.275 4.37-3.52v0zM71.457 21.843h16.634v-3.176h-9.646v-0.884h6.857v-2.495h-6.857v-0.884h9.646v-3.129h-16.634v10.561zM145.845 16.218v3.52h-2.618v2.104h-5.941v-2.104h-9.797v-3.567l7.028-6.454h8.709v6.501h2.618zM137.286 12.745l-3.746 3.473h3.746v-3.473zM109.758 16.562c0 3.52-2.376 5.28-7.3 5.28h-13.432v-10.561h13.432c4.914 0 7.3 1.713 7.3 5.28zM102.64 16.562c0-1.173-0.715-1.76-2.205-1.76h-4.269v3.52h4.269c1.48 0 2.205-0.587 2.205-1.76z"></path>
        </symbol>

        <symbol id="international_medical_corp_icon" viewBox="0 0 133 32">
            <path stroke="none" d="M50.2 4.1h2v9.9h-2v-10zM54 7.8v-0.8l1.6-0.5c0.2 0.3 0.3 0.6 0.3 1l0.2-0.3h0.2l0.2-0.2h0.2l0.6-0.3 0.7-0.1c0.4 0 0.8 0 1 0.3 0.4 0.1 0.6 0.4 0.7 0.7 0.1 0.4 0.2 0.7 0.1 1v5.4h-1.8v-4.8l-0.1-0.8c-0.092-0.127-0.24-0.209-0.406-0.209-0.033 0-0.065 0.003-0.097 0.009l0.003-0.001-0.6 0.1-0.7 0.5v5h-1.9v-6zM65 6.6l-0.5 1.4h-1.2v3.6l0.1 1c0.1 0.2 0.4 0.2 0.7 0.2h0.3l0.4-0.2 0.2 1.1c-0.5 0.2-1 0.4-1.5 0.4-0.4 0-0.9-0.1-1.2-0.3-0.4-0.2-0.6-0.4-0.7-0.8l-0.1-0.2c-0.1-0.1 0-0.1 0-0.2v-4.8h-0.8v-1h0.7v-1l0.1-0.7 1.9-0.5v1l-0.1 1.2h1.7zM70.6 11.9l0.7 1.1c-0.8 0.7-1.7 1-2.7 1-0.5 0-1 0-1.4-0.2l-1-0.8c-0.4-0.3-0.6-0.7-0.7-1.1-0.139-0.464-0.219-0.998-0.219-1.55s0.080-1.086 0.229-1.59l-0.010 0.040c0.241-0.874 0.819-1.583 1.583-1.992l0.017-0.008c0.357-0.134 0.769-0.212 1.2-0.212s0.843 0.078 1.224 0.22l-0.024-0.008c0.3 0 0.6 0.2 0.9 0.5s0.6 0.8 0.7 1.2l0.2 2v0.3h-4.1c0 0.5 0.1 1 0.4 1.4 0.3 0.3 0.7 0.4 1.1 0.4 0.7 0 1.4-0.3 1.9-0.7zM67.3 9.5h2.2v-0.8l-0.3-0.4c-0.184-0.244-0.474-0.4-0.8-0.4v0c-0.326 0-0.616 0.156-0.798 0.398l-0.002 0.002c-0.189 0.3-0.301 0.664-0.301 1.054 0 0.016 0 0.032 0.001 0.048l-0-0.002zM72.3 7.8c0-0.3 0-0.5-0.2-0.8l1.7-0.5c0.2 0.3 0.3 0.7 0.3 1 0.257-0.376 0.593-0.68 0.985-0.893l0.015-0.007h1.4l-0.6 1.7-0.5-0.1c-0.4 0-0.9 0.2-1.1 0.6v5h-1.9v-6zM77.3 7.8l-0.1-0.8 1.6-0.5c0.2 0.3 0.3 0.6 0.3 1l0.3-0.3h0.1l0.2-0.2h0.2l0.6-0.3 0.7-0.1c0.4 0 0.8 0 1 0.3 0.4 0.2 0.6 0.4 0.7 0.7 0.1 0.4 0.2 0.7 0.1 1v5.4h-1.8v-4.8l-0.1-0.8c-0.092-0.127-0.24-0.209-0.406-0.209-0.033 0-0.065 0.003-0.097 0.009l0.003-0.001-0.6 0.1-0.7 0.5v5h-1.9v-6zM84.5 7.5c0.2 0 0.2-0.1 0.3-0.2l0.6-0.2 0.3-0.2c0.565-0.253 1.225-0.401 1.92-0.401 0.028 0 0.056 0 0.084 0.001l-0.004-0 1.5 0.3c0.3 0.2 0.6 0.6 0.8 1v0.4l0.1 0.4v3.8l0.3 0.3c0 0.2 0.2 0.2 0.3 0.3l-1 1.2c-0.2 0-0.4-0.2-0.6-0.4l-0.4-0.5-0.2 0.3-0.2 0.1c-0.4 0.3-1 0.4-1.4 0.4-0.8 0-1.4-0.2-1.8-0.6s-0.7-1-0.7-1.6c0-0.9 0.3-1.5 0.9-1.9s1.4-0.6 2.5-0.6h0.5v-0.3c0-0.3 0-0.5-0.2-0.8-0.1-0.1-0.3-0.2-0.7-0.2l-1 0.2c-0.3 0.1-0.7 0.3-1 0.6l-0.9-1.4zM88.2 10.7c-0.7 0-1.2 0-1.4 0.2s-0.4 0.4-0.4 0.9c0 0.2 0 0.5 0.2 0.6l0.6 0.3 0.5-0.1 0.5-0.4v-1.5zM95.4 6.7l-0.5 1.2h-1.2v3.7l0.1 0.9c0.1 0.2 0.4 0.2 0.7 0.2h0.3l0.4-0.2 0.2 1.2c-0.443 0.187-0.958 0.297-1.499 0.3h-0.001c-0.4 0-0.9 0-1.2-0.3-0.4-0.1-0.6-0.4-0.7-0.7v-0.3l-0.1-0.2v-4.5h-0.9v-1.3h0.7v-1l0.3-0.7 1.9-0.5-0.1 1v1.2h1.7zM96.3 3.9c0.2-0.2 0.5-0.3 0.8-0.3s0.6 0 0.8 0.3c0.2 0.2 0.4 0.5 0.4 0.8 0 0.6-0.5 1.2-1.2 1.2-0.326 0-0.616-0.156-0.798-0.397l-0.002-0.003c-0.2-0.2-0.3-0.5-0.3-0.8s0-0.6 0.3-0.8zM96.2 6.9l1.8-0.4v7.5h-1.8v-7zM99.3 8.8c0.2-0.4 0.4-0.9 0.7-1.2 0.2-0.3 0.6-0.6 1-0.8l1.3-0.2c1 0 1.8 0.3 2.4 1l0.6 1.2c0.13 0.45 0.205 0.966 0.205 1.5s-0.075 1.050-0.214 1.54l0.010-0.040c-0.252 0.869-0.827 1.574-1.583 1.991l-0.017 0.009c-0.329 0.135-0.712 0.214-1.112 0.214-0.101 0-0.201-0.005-0.3-0.015l0.012 0.001c-0.5 0-1 0-1.3-0.3-0.4-0.1-0.8-0.4-1-0.7-0.3-0.3-0.5-0.7-0.7-1.2-0.128-0.42-0.201-0.903-0.201-1.403 0-0.034 0-0.068 0.001-0.102l-0 0.005c0-0.5 0-1 0.2-1.5zM102.3 8c-0.2 0-0.4 0-0.6 0.2-0.2 0-0.3 0.3-0.4 0.5v0.7l-0.1 0.9c0 0.8 0 1.4 0.2 1.8 0 0.2 0.2 0.3 0.4 0.4l0.6 0.2c0.4 0 0.7-0.2 0.9-0.6l0.2-1.8c0-1-0.1-1.6-0.3-2-0.183-0.194-0.442-0.315-0.728-0.315-0.061 0-0.12 0.005-0.178 0.016l0.006-0.001zM106.7 7.8l-0.2-0.8 1.6-0.5c0.2 0.3 0.3 0.6 0.3 1l0.3-0.3h0.1l0.2-0.2h0.2l0.6-0.3 0.7-0.1c0.4 0 0.8 0 1 0.3 0.4 0.1 0.6 0.4 0.7 0.7l0.2 1v5.4h-1.9v-4.8l-0.1-0.8c-0.092-0.127-0.24-0.209-0.406-0.209-0.033 0-0.065 0.003-0.097 0.009l0.003-0.001-0.6 0.1-0.7 0.5v5h-1.9v-6zM113.8 7.5c0.2 0 0.3-0.1 0.3-0.2l0.6-0.2 0.3-0.2c0.565-0.253 1.225-0.401 1.92-0.401 0.028 0 0.056 0 0.084 0.001l-0.004-0 1.5 0.3c0.3 0.2 0.6 0.6 0.8 1v0.4l0.1 0.4v3.9l0.6 0.6-1 1.1-0.6-0.3-0.4-0.6-0.2 0.3-0.2 0.1c-0.4 0.3-1 0.4-1.4 0.4-0.8 0-1.4-0.2-1.8-0.6s-0.7-0.9-0.7-1.6c0-0.8 0.3-1.5 0.9-1.9s1.4-0.6 2.5-0.6h0.5v-0.2c0-0.3 0-0.6-0.2-0.9-0.1-0.1-0.3-0.2-0.7-0.2l-1 0.2-1 0.6-0.9-1.4zM117.5 10.7c-0.7 0-1.2 0-1.4 0.2-0.3 0.2-0.4 0.4-0.4 0.9 0 0.2 0 0.5 0.2 0.6l0.6 0.3 0.5-0.1 0.5-0.4v-1.5zM122.9 3.5v8.2c0.011 0.218 0.047 0.423 0.105 0.618l-0.005-0.018 0.1 0.2 0.4 0.2h0.2l0.3 1.1-1.1 0.2c-0.4 0-0.8 0-1-0.3-0.4-0.1-0.6-0.4-0.7-0.7v-0.3l-0.1-0.2v-7.5l-0.1-1 1.9-0.5zM50.7 19.1h2.5l1.2 4.8 0.2 0.5v0.3l0.1 0.3v0.4l0.4-1.6 1.3-4.8h2.6l0.9 9.7h-2l-0.3-5.2v-1.5l-0.2 0.4v0.3l-0.2 0.8-1.6 5.3h-1.6l-1.4-5.1v-0.5l-0.2-0.5c0-0.2 0-0.4-0.2-0.7v1.8l-0.4 5h-2l1-9.7zM66 26.9l0.8 1c-0.8 0.7-1.7 1-2.7 1-0.5 0-1 0-1.4-0.2s-0.8-0.4-1.1-0.8l-0.7-1.1c-0.139-0.464-0.219-0.998-0.219-1.55s0.080-1.086 0.229-1.59l-0.010 0.040c0.241-0.874 0.819-1.583 1.583-1.992l0.017-0.008c0.357-0.134 0.769-0.212 1.2-0.212s0.843 0.078 1.224 0.22l-0.024-0.008c0.4 0 0.7 0.3 1 0.5l0.7 1.3 0.2 1.8v0.5h-4.1c0 0.5 0 1 0.4 1.3 0.2 0.3 0.6 0.5 1 0.4 0.8 0 1.4-0.2 2-0.6zM62.7 24.4h2.3v-0.7l-0.2-0.5c-0.184-0.244-0.474-0.4-0.8-0.4v0c-0.029-0.003-0.063-0.005-0.097-0.005-0.328 0-0.619 0.158-0.802 0.402l-0.002 0.003c-0.191 0.301-0.305 0.668-0.305 1.061 0 0.049 0.002 0.097 0.005 0.145l-0-0.006zM74.1 18.7v9.3c0.047 0.265 0.117 0.5 0.208 0.723l-0.008-0.023h-1.6l-0.2-0.4c-0.4 0.4-1 0.6-1.6 0.6-0.4 0-0.8 0-1.2-0.2l-1-0.8-0.5-1.1c-0.2-0.5-0.2-1-0.2-1.5s0-1 0.2-1.6l0.6-1.2c0.6-0.6 1.4-1 2.2-1 0.5 0 1 0.1 1.3 0.4v-3.5l1.8 0.3zM72.2 23.5c-0.2-0.3-0.6-0.5-1-0.5s-0.7 0.2-0.9 0.6c-0.2 0.3-0.3 0.9-0.3 1.7v1l0.3 0.6 0.4 0.3 0.6 0.1 0.6-0.1 0.4-0.3v-3.4zM75.9 18.8c0.2-0.2 0.5-0.3 0.8-0.3s0.6 0 0.8 0.3c0.3 0.2 0.4 0.5 0.4 0.8s-0.1 0.6-0.4 0.9c-0.2 0.2-0.5 0.3-0.8 0.3s-0.6-0.1-0.8-0.3l-0.3-0.9c0-0.3 0-0.6 0.3-0.8zM75.8 21.8l1.8-0.4v7.4h-1.6v-7zM83.7 21.9l0.4 0.3-1 1.2c-0.142-0.157-0.307-0.29-0.49-0.395l-0.010-0.005h-0.6c-0.010-0-0.022-0.001-0.034-0.001-0.368 0-0.69 0.199-0.864 0.496l-0.003 0.005c-0.184 0.574-0.29 1.235-0.29 1.921 0 0.381 0.033 0.755 0.096 1.118l-0.006-0.039c0 0.2 0.1 0.5 0.3 0.7s0.5 0.4 0.8 0.4c0.512-0.035 0.967-0.258 1.3-0.6l0.1-0.1 0.9 1.1-0.4 0.3c-0.277 0.262-0.611 0.468-0.981 0.594l-0.019 0.006-1 0.1c-1 0-1.8-0.3-2.3-1-0.5-0.6-0.8-1.5-0.8-2.7 0-0.7 0.1-1.4 0.4-2s0.6-1 1-1.3l0.9-0.4 1-0.2 0.7 0.1 0.6 0.3 0.3 0.2zM85.2 22.4l0.3-0.2 0.6-0.2 0.3-0.2c0.565-0.253 1.225-0.401 1.92-0.401 0.028 0 0.056 0 0.084 0.001l-0.004-0c0.5 0 1 0.1 1.4 0.3s0.7 0.6 0.8 1l0.1 0.2c0.1 0 0 0.1 0 0.2v3.9l0.2 0.3c0 0.2 0 0.3 0.2 0.4l0.3 0.2-1 1.2-0.6-0.4-0.4-0.5-0.2 0.3h-0.2c-0.4 0.4-1 0.5-1.4 0.5-0.8 0-1.4-0.2-1.8-0.6s-0.7-1-0.7-1.6c0-0.9 0.3-1.5 0.9-2s1.4-0.5 2.5-0.5h0.5v-0.3c0-0.3 0-0.6-0.2-0.8-0.1-0.2-0.3-0.2-0.7-0.2l-1 0.2c-0.3 0.1-0.7 0.3-1 0.6l-0.9-1.4zM88.9 25.6h-0.1c-0.7 0-1.1 0-1.4 0.2-0.2 0.2-0.3 0.5-0.3 0.9 0 0.2 0 0.5 0.2 0.6l0.6 0.3 0.5-0.1 0.5-0.4v-1.5zM94.1 18.4v8.2c0.006 0.251 0.042 0.492 0.105 0.721l-0.005-0.021 0.1 0.1 0.4 0.2h0.2l0.3 1.1-1.1 0.2c-0.4 0-0.8 0-1-0.3-0.4-0.1-0.6-0.4-0.7-0.7v-0.2l-0.1-0.3v-7.5l-0.1-1 1.9-0.5zM105.9 19c0.5 0.1 0.8 0.3 1.1 0.6l-0.8 1.3c-0.5-0.3-1-0.5-1.6-0.5-0.036-0.002-0.078-0.004-0.121-0.004-0.32 0-0.623 0.075-0.891 0.209l0.012-0.005c-0.2 0.2-0.5 0.4-0.6 0.7-0.4 0.5-0.6 1.3-0.6 2.5l0.1 1.6 0.3 1c0.351 0.606 0.997 1.007 1.736 1.007 0.058 0 0.115-0.002 0.171-0.007l-0.007 0c0.5 0 1-0.1 1.5-0.4l0.2-0.2 0.9 1.3c-0.4 0.3-0.8 0.5-1.3 0.6-0.4 0.2-1 0.3-1.4 0.3-1.4 0-2.4-0.5-3.2-1.4s-1.2-2-1.2-3.4c0-1 0.2-2.1 0.7-3.1 0.3-0.7 0.9-1.2 1.5-1.6 0.7-0.4 1.5-0.6 2.2-0.6l1.3 0.1zM107.9 23.7c0-0.4 0.3-0.9 0.6-1.2l1-0.8 1.3-0.2c1 0 1.8 0.3 2.4 1l0.7 1.2c0.13 0.45 0.205 0.966 0.205 1.5s-0.075 1.050-0.214 1.54l0.010-0.040c-0.275 0.884-0.886 1.593-1.681 1.991l-0.019 0.009c-0.329 0.135-0.712 0.214-1.112 0.214-0.101 0-0.201-0.005-0.3-0.015l0.012 0.001c-0.4 0-0.9 0-1.3-0.2l-1-0.8c-0.3-0.3-0.5-0.7-0.6-1.2-0.168-0.443-0.275-0.955-0.3-1.489l-0-0.011c0-0.5 0-1 0.2-1.5zM110.9 22.8l-0.6 0.2c-0.2 0.2-0.4 0.4-0.4 0.6l-0.1 0.6v1c0 0.8 0 1.4 0.2 1.8 0 0.2 0.2 0.3 0.4 0.4l0.5 0.2c0.4 0 0.8-0.2 1-0.6l0.2-1.9c0-1-0.2-1.5-0.4-1.9-0.2-0.2-0.6-0.4-0.9-0.4zM115.1 22.8l-0.2-1 1.7-0.4c0.2 0.3 0.2 0.7 0.3 1 0.257-0.376 0.593-0.68 0.985-0.893l0.015-0.007h1.3l-0.5 1.7-0.5-0.1c-0.5 0-0.9 0.2-1.2 0.6v5h-1.8v-4.7l-0.1-1.3zM120.1 23v-0.8l-0.1-0.4 1.7-0.3v0.6l0.8-0.5c0.3 0 0.7-0.2 1-0.1h0.8c0.4 0.2 0.8 0.5 1.1 0.9 0.357 0.408 0.606 0.919 0.698 1.483l0.002 0.017 0.1 1v1.1c-0.058 0.561-0.236 1.070-0.509 1.516l0.009-0.016c-0.315 0.514-0.757 0.923-1.282 1.192l-0.018 0.008-1 0.2c-0.007 0-0.016 0-0.025 0-0.577 0-1.12-0.148-1.592-0.409l0.017 0.009v2.9l-1.8 0.4v-8.2l0.1-0.6zM121.9 27l0.5 0.3 0.6 0.1c0.4 0 0.7-0.1 1-0.5s0.2-1 0.2-1.7v-1c0-0.2 0-0.4-0.2-0.6-0.092-0.348-0.404-0.6-0.775-0.6-0.009 0-0.018 0-0.027 0l0.001-0c-0.5 0-1 0.2-1.3 0.5v3.5zM131.6 21.6l1 0.5-0.6 1.2c-0.496-0.314-1.1-0.5-1.747-0.5-0.019 0-0.037 0-0.056 0l0.003-0c-0.1 0-0.4 0-0.6 0.2l-0.2 0.5c0 0.2 0 0.3 0.2 0.5l0.7 0.2 0.8 0.3 0.6 0.1 0.3 0.2 0.3 0.3s0.2 0 0.2 0.2c0.3 0.3 0.4 0.8 0.4 1.2s0 0.7-0.2 1l-0.6 0.8c-0.284 0.218-0.617 0.39-0.979 0.495l-0.021 0.005c-0.357 0.122-0.769 0.194-1.197 0.2l-0.003 0c-1 0-1.9-0.3-3-0.8l0.8-1.4 0.4 0.3 0.6 0.2 0.7 0.2h0.6l0.7-0.1 0.3-0.6-0.3-0.6-0.9-0.3-0.8-0.1c-0.3 0-0.5-0.2-0.7-0.3-0.3-0.1-0.4-0.3-0.6-0.5l-0.3-0.6-0.1-0.6c0-0.4 0-0.7 0.2-1l0.5-0.7c0.3-0.3 0.6-0.4 0.9-0.5 0.326-0.112 0.702-0.184 1.092-0.2l0.008-0c0.6 0 1 0 1.6 0.2zM28 0.1c0.1 0 0.2 0 0.2 0.2v1.6c-0.4 0.2-0.9 0.3-1 0.7-0.3 0.3-0.2 1-0.2 1v3.5c1.2 0.2 2.3 0.5 3.3 1.1h0.2l2.7-2v-0.2c0.1-0.5 0.2-1 0.1-1.6 0-0.2 0-0.3 0.4-0.3h8.5c0.3 0 0.3 0.2 0.3 0.4v1.6c0 0.2-0.5 0.2-0.7 0.4-0.3 0.123-0.523 0.379-0.599 0.693l-0.001 0.007 0.2 1 1.2 4.3 1.1 4.2 2.8 9.3c0.1 0.4 0.3 0.8 0.7 1 0.1 0.2 0.2 0.4 0.1 0.6v0.9c0 0.1-0.1 0.3-0.3 0.3h-8.7c-0.4 0-0.5-0.1-0.5-0.3v-1.3c0-0.2 0.2-0.3 0.4-0.3h0.4c0.2-0.2 0.8-0.5 0.8-1l-0.2-0.7-1.7-7-1.4-5.1c0-0.2 0-0.4-0.2-0.4h-0.2l-1 0.7v0.5l-0.2 0.2h-1.3c0-0.3-0.2-0.6-0.4-1v-0.3h1.4v-0.1h-1.2c-0.2 0-0.4 0-0.5-0.3l-0.4-1h1.5c0.1-0.2 0-0.2 0-0.2h-1.7l-1-1.2 0.1-0.1h1.3c0-0.2 0-0.2-0.2-0.2h-1.5l-1.3-1.2h1.2v-0.4h-0.7c-0.5 0-1 0-1.4-0.2-0.1-0.2-0.5 0-0.4-0.4l0.1-0.2c-1-0.3-2-0.3-3-0.4h-0.3v0.3c-0.2 0.1-0.3-0.1-0.4-0.2 0-0.3-0.4-0.5-0.6-0.7-0.5-0.4-1.3-0.7-1.4-1.5l0.2-0.7-0.1-0.2c-0.3 0-0.3 0.3-0.4 0.4-0.3 0.4-0.2 0.8 0 1.2l1 0.8c0.2 0.2 0.5 0.3 0.6 0.6l-2.4 0.1c-0.3 0.2-0.7 0-1 0.2-0.4 0-0.7 0.2-1 0.4l-1 0.7h-1.4v0.1h0.8c-0.4 0.4-1 0.8-1.3 1.3h-1.7l-0.2 0.1h1.5v0.2c-0.2 0.4-0.5 0.9-0.9 1.3h-1.8v0.2h1.6s0.1 0 0 0.1l-0.2 0.5c0 0.3-0.1 0.5-0.3 0.6l-1.9 0.1v0.2h1.9l-0.2 1.2h-1.7c-0.2-0.1-0.1-0.4-0.1-0.5 0-0.3 0.1-0.7-0.3-0.9-0.1 0-0.3-0.3-0.5-0.2-0.3 0.5-0.4 1.2-0.6 1.7l-1.5 5.7-1 3.3-0.7 2.6c-0.2 0.6 1 1 1.5 1.2l0.1 0.1v1.6l-0.1 0.1h-9c-0.2 0-0.2-0.1-0.2-0.3v-1.4c0-0.4 0.4-0.4 0.6-0.7 0.3-0.3 0.3-0.6 0.4-1l1.3-4.1 2.6-8.8 0.9-3 0.7-2.5c0-0.3-0.2-0.4-0.3-0.6-0.3-0.3-0.8-0.5-1.2-0.5s0-1.7 0-1.8l0.1-0.1h8.9c0.1 0 0.3 0 0.3 0.2v1.6c0.6 0.5 1 1 1.7 1.4l1 0.9c1-0.6 2-1 3-1l0.2-0.2v-3.8c0-0.2-0.6-1.1-1-1.2h-0.1v-1.7c0-0.2 0-0.2 0.2-0.2zM24 1c0-0.4-0.5-0.4-0.7-0.3-0.6 0.4 0.3 0.8 0 1.3v4l0.5 0.3v-3.6c0-0.3 0.2-0.7 0-1 0.2-0.3 0.4-0.5 0.3-0.7zM22.8 1l-0.2-0.2h-0.3l-1.3 0.8c-0.2 0.1-0.4 0.1-0.5 0.3v0.1h0.6c0.3 0.1 0 0.3 0 0.4 0.3 0.3 0.4-0.2 0.7-0.2 0.2 0.1 0 0.3 0 0.4 0.3 0 0.5-0.2 0.7-0.3l0.2 0.1c0 0.1 0.1 0 0.2 0 0-0.1 0.1-0.3 0-0.4h-1l-0.6-0.1-0.3-0.1c0.3-0.4 0.8-0.5 1.2-0.8h0.2c0 0.3-0.2 0.4-0.3 0.6h0.3c0.2-0.3 0.3 0 0.5 0l0.2-0.3-0.3-0.3zM26.2 1.4l-0.6-0.5c-0.6-0.3-0.8 0.5-1.2 0.4-0.2 0-0.1 0.2-0.2 0.3 0.2 0.2 0 0.4 0 0.5h0.3c0.3-0.1-0.1-0.3 0-0.5 0.3-0.4 0.5 0.3 0.8 0.3v-0.2l0.3-0.1-0.1-0.4 0.1-0.1 0.8 0.7v0.2c-0.3 0-0.7 0-1 0.3-0.1 0.2-0.4 0-0.6-0.1v0.3c0.3 0 0.5 0.2 0.7 0.3 0.3 0.2 0.1-0.2 0.3-0.2h0.7v-0.3h0.1l0.1-0.3c0.2 0.1 0.3 0 0.4 0v0c-0.4 0-0.6-0.4-1-0.5zM25.4 4.5c0-0.2-0.2-0.4-0.4-0.5l-0.2 0.1c-0.1 0.2 0 0.3 0.1 0.4 0.2 0.5-0.1 0.8-0.4 1.1-0.2 0.2-0.4 0.3-0.5 0.6v0.2l0.8-0.5c0.3-0.4 0.9-0.8 0.6-1.4z"></path>
            <path stroke="none" d="M23.8 1.3s0 0.3-0.2 0.2c0-0.2-0.2-0.4 0-0.5 0.3-0.2 0.2 0.2 0.2 0.3zM25.2 4.3c-0.2 0.1-0.2 0-0.2 0 0-0.2 0.2-0.1 0.2 0zM22.3 4.4v0.1h-0.1c0-0.2 0.1-0.2 0.1 0zM22 7.6l-0.2 0.6h-0.5v-0.2l0.7-0.5v0.1zM20.5 7.6c0 0.3-0.3 0.3-0.5 0.4l-0.4 0.3h-0.6c0-0.2 0-0.2 0.2-0.2s0.4-0.3 0.6-0.4l0.7-0.1zM21.4 7.6c-0.2 0.4-0.5 0.4-0.8 0.7h-0.6c0-0.4 0.4-0.4 0.7-0.5l0.5-0.2zM24 8.1v0.1l-0.4-0.1v-0.5c0.3 0 0.2 0.4 0.4 0.5zM24.2 7.8h-0.2s0.1-0.2 0.1 0zM19.1 8.6c0 0.2-0.3 0.2-0.4 0.3l-1 0.8h-0.8c-0.1 0 0 0 0-0.1l1.4-1.1c0.2 0 0.6-0.1 0.8 0zM20.4 8.5c0 0.1 0 0.2-0.2 0.3h-0.3c-0.2 0-0.4 0.3-0.6 0 0-0.5 0.7-0.3 1-0.3zM24 8.6l-0.1 0.5c-0.2-0.1-0.2-0.3-0.2-0.5v-0.1l0.3 0.1zM24.7 8.6v0.2l-0.2-0.1v-0.2c0.1 0 0.2 0 0.2 0.2zM23.4 8.8v0.9h-0.9v-0.4c0.2-0.3 0.2-0.7 0.6-0.8 0.1 0 0.3 0.1 0.3 0.3zM22.2 8.9h0.3l-0.2 0.8h-0.8c-0.2-0.3 0-0.5 0-0.8 0.2-0.1 0.3-0.4 0.5-0.4 0.1 0.1 0 0.4 0.2 0.4zM21 9c-0.1 0.3-0.3 0-0.5 0.1l-0.4 0.5c-0.1 0-0.2 0-0.2-0.2 0-0.3 0.4-0.3 0.6-0.6 0.2 0 0.2-0.3 0.4-0.2v0.4zM28.7 8.8l-0.1 0.2c-0.149-0.035-0.265-0.151-0.299-0.297l-0.001-0.003v-0.1c0.2 0 0.3 0 0.4 0.2zM29.5 9l0.5 0.4-0.4 0.2h-0.3l0.3-0.1-0.2-0.1h-0.2c-0.1 0-0.2-0.2-0.1-0.3 0-0.2 0.3 0 0.4 0zM23.2 10c0 0.3-0.2 0.6 0 0.9l-0.1 0.3h-1c-0.1-0.1 0-0.3 0-0.4l0.3-0.9c0.2 0.1 0.5 0 0.8 0zM30.4 9.9c0.4 0.2 0.7 0.6 1 1v0.3h-1l-0.2-0.4-0.7-0.7v-0.3h1zM22.1 9.9c0 0.5-0.2 0.9-0.3 1.3h-1.3c-0.1 0 0-0.1 0-0.2 0.1-0.3 0.4-0.3 0.6-0.4v-0.6l0.2-0.1h0.8zM17.3 10.1l-0.5 1-0.2 0.2h-1c-0.2 0 0-0.2 0-0.2 0.2-0.4 0.5-0.8 0.9-1.1h0.8zM23.9 10.6v0.1h-0.1s0-0.2 0.1 0zM24.4 10.7v0.2l-0.3-0.2c0-0.2 0.3-0.2 0.3 0zM17.6 11c0 0.1 0 0.2-0.2 0.3l-0.4-0.1c0-0.2 0-0.3 0.2-0.3 0.1 0 0.4-0.1 0.4 0.1zM31.7 11.4l0.6 1v0.2h-1.3c-0.161-0.155-0.27-0.363-0.299-0.595l-0-0.005c0.1-0.2-0.5-0.3-0.1-0.6h1.1zM21.7 11.5l-0.2 1.1c-0.2 0.2-0.6 0.1-1 0.1 0-0.2-0.3-0.2-0.5-0.3h-0.2c-0.1-0.3 0-0.5 0-0.8h0.3s0 0.1 0.1 0l0.2-0.1h1.3zM22.9 11.5l-0.3 0.7c-0.1 0.1 0 0.5-0.3 0.5h-0.6l0.2-1.2h1zM17.2 11.5l-0.1 1-0.1 0.2h-0.7c0-0.4 0.2-0.7 0.3-1s0.4-0.2 0.6-0.2zM16.4 11.5c0.2 0.2-0.2 0.4-0.2 0.7 0 0.2 0 0.4-0.2 0.6h-1.2v-0.3l0.4-1h1.2zM30.6 12.5c0 0.2-0.2 0.2-0.3 0.2l-0.2-0.8s-0.2-0.1-0.2-0.3h0.2l0.5 1zM27.3 12.1c0.2 0.2 0.6 0.1 0.5 0.5l-0.1 0.1h-1c0-0.2-0.2-0.3-0.1-0.5 0.1-0.1 0-0.3 0.3-0.4 0.2 0 0.2 0.3 0.4 0.3zM19.6 12c0.1 0.2-0.3 0.3-0.2 0.5 0 0 0.2 0 0.2 0.2h-0.1c-0.3 0.2-0.3-0.2-0.6 0l-0.2-0.1c-0.2-0.1 0-0.3 0-0.4 0-0.3 0.4-0.2 0.6-0.3h0.3zM29.1 12.4s0.2 0.1 0.1 0.3h-0.6c-0.128-0.036-0.221-0.152-0.221-0.289 0-0.040 0.008-0.078 0.022-0.113l-0.001 0.002 0.3-0.3c0.2 0 0.2 0.3 0.4 0.4zM32.5 13.1v0.2c-0.4-0.2-0.8 0-1-0.4 0.4 0 1-0.3 1 0.2zM30.6 12.9l0.1 0.2s-0.3 0.1-0.2 0.3c0.2 0.3 0.7 0.2 0.7 0.6h-0.3c-0.2-0.2-0.5 0-0.7-0.4 0-0.1 0-0.2-0.2-0.3l-0.3-0.1v-0.3h1zM29.5 13l0.2 1c0 0.2-0.2 0.1-0.4 0.1h-0.8c-0.2-0.1 0-0.4-0.2-0.6v-0.3c0.3 0 0.3-0.3 0.5-0.3s0.6-0.2 0.7 0.1zM27.9 13l0.2 1v0.2h-1.2v-0.2l-0.2-1v-0.2h1.1zM22.5 13c0.1 0.3 0.4 0.5 0.7 0.6 0.1 0 0.2 0.3 0.1 0.4l-0.1 0.2h-1.6v-1.2h1zM21.5 13l-0.1 1.2c-0.4 0.2-0.6-0.3-0.9-0.5s-0.3-0.4-0.6-0.4l-0.5 0.2c0-0.1-0.2-0.3-0.1-0.4s0.2-0.2 0.4-0.1l0.1 0.1 0.1-0.1h1.6zM17 13c0 0.3 0.3 0.5 0.6 0.5v0.8h-1.5v-1.3h0.9zM16 13l-0.1 1.2h-1.5v-0.2l0.1-1h1.5zM26.5 13.5v0.6c-0.1 0.1-0.3 0-0.4 0s-0.1-0.1 0-0.2 0-0.5 0.3-0.5v0.1zM19.2 14v0.2h-1.2c-0.2 0-0.1-0.4-0.1-0.6h0.1c0.5 0 1 0 1.2 0.4zM32.1 13.9l-0.1 0.2c-0.3 0-0.7 0.2-0.8-0.2l0.2-0.2c0.2 0 0.5 0 0.7 0.2zM30.1 14v0.1s-0.3 0.1-0.3-0.1v-0.3c0.2-0.1 0.3 0.3 0.4 0.3zM24 14v0.2h-0.3v-0.3h0.3zM34.6 14.3v0.6l-0.1 0.7h-1.5l0.2-0.8v-0.5h1.3zM31.3 14.3s0.1 0.1 0 0.2c-0.2 0.5-0.8 0.6-1 1.1-0.2 0-0.3 0.1-0.4 0 0.1-0.4 0-0.9 0.2-1.3h1.2zM29.8 14.4v1.2h-1.3v-1.2h1.3zM28.2 14.4c0.2 0.2 0 0.6 0 1v0.3h-1.3c-0.2-0.1 0-0.4 0-0.5v-0.9h1.3zM26.7 14.4c0 0.3 0.2 0.8-0.3 1v0.2c-0.1 0-0.2 0.2-0.3 0v-0.3c0.3-0.3-0.2-0.7 0.2-1h0.4zM23.5 14.5v1.2h-1.7c-0.2-0.3-0.1-0.8-0.1-1.3h1.7v0.1zM24.2 14.6c0.2 0.3 0 0.7 0 1l-0.5 0.1v-1.3h0.3l0.2 0.2zM21.5 14.5v0.4l-0.2-0.5h0.2zM19.3 14.5v0.8c0 0.1 0.3 0.4 0 0.4h-1c-0.1-0.3-0.2-0.6-0.1-1 0-0.1-0.2-0.2 0-0.3h1zM17.9 14.5c0 0.4 0 0.7 0.2 1v0.3h-1.5l-0.2-0.5-0.2-0.8h1.6zM16.1 14.5l0.1 0.7 0.1 0.6h-1.4c-0.3-0.3-0.3-0.7-0.4-1.1 0-0.1 0-0.2 0.2-0.2h1.3zM14.3 14.5c0.1 0.1 0 0.2 0 0.4v0.2c0.2 0.2 0.2 0.5 0.3 0.7h-1.8s-0.2 0-0.2-0.2v-1c0-0.2 0.3 0 0.5 0l1.2-0.1zM34.3 15.8v0.3c0 0.3-0.3 0.7-0.5 1h-1.3v-0.1c0.2-0.3 0.4-0.6 0.4-1 0.2-0.2 0.5 0 0.7-0.1h0.7zM30.2 15.9v0.5l0.9-0.2v0.1c0 0.3 0 0.7-0.4 0.9h-1.2v-0.2l0.3-1.2h0.4zM29.7 15.9l-0.5 1.2h-1.2l0.1-0.5 0.2-0.7h1.3zM28 16v0.5l-0.3 0.7h-1.3l0.3-1.2h1.3zM24 16c0.3 0.4 0.4 0.8 0.7 1v0.3h-1c-0.2 0-0.1-0.3-0.1-0.5v-0.8h0.5zM23.4 16l-0.1 1.3h-1.3c-0.4-0.2-0.3-0.6-0.3-1v-0.3h1.6zM26.4 16.1l-0.2 1.2h-1.2v-0.3l0.8-1h0.7zM19.8 16.3c0.1 0.2 0 0.5 0.3 0.7v0.3h-1.2l-0.5-1s-0.2-0.2 0-0.2c0.5 0 1.1-0.3 1.4 0.2zM18 16c0.3 0.4 0.3 0.8 0.5 1.2h-1.3c-0.3-0.2-0.5-0.7-0.7-1.1l1.5-0.1zM16.4 16.2c0 0.3 0.3 0.6 0.4 0.9v0.2h-1.1c-0.3-0.2-0.5-0.5-0.6-0.8 0-0.2-0.3-0.3-0.1-0.5h1.3l0.1 0.2zM32.5 16.2l-0.5 1h-1l0.3-0.8h0.2v0.2c0.4-0.1 0.6-0.5 1-0.6v0.1zM14.6 16l0.2 0.2 0.4 1v0.1h-2c-0.3-0.4-0.3-0.8-0.5-1.1v-0.2h2zM21.6 17.2h-0.6l0.1-0.6c0.2 0 0.1-0.2 0.3-0.3v0.9zM33.6 17.4v0.2l-1 1h-1c-0.1 0-0.2-0.1-0.1-0.2l0.7-1c0.3-0.2 0.7 0 1.1 0h0.3zM31.8 17.4v0.1c-0.2 0.4-0.5 0.8-0.8 1l-0.9 0.1v-0.2l0.7-1 0.2-0.1h0.8zM30.5 17.4v0.1l-0.9 1.1h-1c-0.1-0.1 0-0.3 0.1-0.4l0.5-0.9h1.3zM28.9 17.4c0.1 0 0 0 0 0.2-0.093 0.112-0.162 0.246-0.199 0.393l-0.001 0.007-0.6 0.7h-0.8c-0.1-0.2 0-0.3 0-0.4l0.5-1h1.2zM27.6 17.4l-0.6 1.2h-1.1l0.4-1.2h1.3zM26.1 17.4l-0.5 1.3h-0.9v-0.1c0-0.4 0-0.8 0.3-1.2h1zM24.7 17.4c0 0.4 0 0.9-0.3 1.3h-0.8v-1.3h1.1zM23.3 17.5v1.2h-1.1c0-0.4-0.2-0.8-0.4-1.2 0 0 0-0.1 0.1 0l1.3-0.1 0.1 0.1zM21.6 17.5l0.4 1.2c-0.3 0-0.8 0.1-1-0.1h0.2c-0.1-0.3-0.4-0.3-0.4-0.6v-0.6h0.8zM20.1 17.5c0.3 0.2 0.4 0.6 0.6 0.9 0 0 0.2 0.2 0 0.3h-1c-0.4-0.4-0.4-0.8-0.6-1.2h1zM18.8 17.7l0.3 0.4 0.3 0.6h-1.1c-0.2 0-0.4-0.3-0.5-0.5-0.2-0.2-0.4-0.4-0.4-0.6v-0.1h1.2l0.2 0.2zM17.2 17.6c0.1 0.4 0.4 0.6 0.6 1v0.1h-1.1l-0.9-1c0-0.2 0.2-0.2 0.4-0.2 0.3 0 0.7-0.2 1 0.1zM15.6 17.6l0.7 1v0.1h-1.7c-0.2 0.2-0.3-0.1-0.5-0.2-0.157-0.242-0.358-0.443-0.592-0.595l-0.008-0.005c0-0.2-0.3-0.3 0-0.4h2l0.1 0.2zM32.2 19v0.2l-1.6 1h-0.7c0-0.2 0.1-0.3 0.2-0.3l1-1h1.1zM30.6 19v0.1l-1 0.9-0.4 0.2h-0.6l1.2-1.2h0.8zM29.3 19v0.2c-0.6 0.4-1 1.2-1.7 1h-0.4c0-0.2 1-1 1.1-1.2h1zM27.8 19c0 0.2-0.9 1-1 1.1-0.2 0-0.7 0.2-0.6 0l0.5-0.5 0.3-0.6h0.8zM26.6 19c0.3 0.2 0 0.3 0 0.4-0.2 0.1-0.8 1-1 0.8s0-0.5-0.1-0.7l0.2-0.5h1z"></path>
            <path stroke="none" d="M26.7 18.9c0.2 0.1-0.2 0.4-0.2 0.4l-0.8 0.8h-0.7l0.4-0.7 0.2-0.5h1zM25.5 18.9l-0.6 1c-0.2 0.3-0.3 0.2-0.4 0.2s-0.3 0-0.3-0.1l0.3-1h1zM23.4 19.1l-0.1 1c-0.2 0.2-0.4 0.1-0.5 0-0.3-0.2-0.4-0.6-0.5-1 0-0.3 0.5 0 0.7-0.2 0.1 0 0.4 0 0.4 0.2zM24.3 18.9s0.1 0 0 0.2 0 0.7-0.3 1h-0.4c-0.1 0 0-0.3 0-0.4 0-0.2-0.2-0.6 0-0.8h0.7zM21.1 19.5c0.1 0.2 0.4 0.4 0.3 0.7h-0.3l-1-1v-0.2h0.7c0.1 0.1 0.3 0.3 0.3 0.5zM22 18.9l0.4 1v0.3c-0.3 0-0.6 0.2-0.7-0.1-0.1-0.4-0.5-0.6-0.6-1l0.1-0.2h0.8zM19.7 18.9l0.9 1.1v0.2h-0.6c-0.5-0.2-0.9-0.7-1.4-1.1 0.2-0.2 0.5 0 0.8-0.1h0.3zM18.7 19.4l0.7 0.7-0.1 0.2h-0.7l-1.4-1v-0.3h1l0.4 0.4zM16.7 19l1.4 1.2h-1.6c-0.5-0.1-1-0.6-1.4-0.9-0.1-0.1-0.3 0-0.3-0.2h2zM29.7 20.4c0 0.1 0 0.2-0.2 0.2-0.3 0-0.5 0.3-0.9 0.3v-0.1c0.1-0.2 0.3-0.3 0.5-0.3 0.1-0.3 0.4-0.2 0.6-0.2v0.1zM28.7 20.4v0.1c-0.485 0.313-1.061 0.526-1.681 0.598l-0.019 0.002 1-0.7h0.7z"></path>
            <path stroke="none" d="M27.7 20.4l-0.2 0.2c-0.3 0.3-0.7 0.3-1 0.6h0.4v1.3l-0.1 3.2c0 0.5 0.2 1 0.5 1.2l0.6 0.1 0.2 0.1v1.5c0 0.1-0.2 0.2-0.5 0.2h-8.2c-0.4 0-0.4-0.1-0.4-0.3v-1.5l0.1-0.2h0.3c0.3 0 0.7-0.4 0.7-0.7v-4.7c0-0.3-0.4 0-0.6-0.2-1-0.1-1.7-0.6-2.6-0.8 0.1-0.2 0.4 0 0.6 0h1.2l1.4 0.7 0.4 0.1c-0.1-0.2-0.4-0.2-0.6-0.4-0.3 0-0.5-0.2-0.7-0.3v-0.2h0.7l1.2 0.8v0.1h0.4l-1-0.8v-0.1h0.5l0.8 0.7v0.1h0.4l-0.8-0.7c0-0.2 0.2 0 0.3 0l0.6 0.7h0.2c0-0.2-0.2-0.2-0.3-0.4 0-0.2-0.2-0.3-0.1-0.4h0.5c0.2 0.2 0.2 0.6 0.5 0.8 0-0.2-0.1-0.5-0.3-0.7l0.2-0.1h0.4v0.8c0.2 0 0-0.2 0.2-0.3v-0.5h0.3l-0.2 0.9h0.1l0.4-0.9h0.5v0.2c-0.157 0.142-0.29 0.307-0.395 0.49l-0.005 0.010c0 0.1 0 0 0.1 0l0.6-0.7h0.5c0.1 0 0 0.1 0 0.2l-0.6 0.6h0.2l0.3-0.2 0.5-0.6h0.5l-0.7 0.7v0.1h0.1l1-0.8h0.9zM24.3 21.4h-0.3l-0.2 0.3 0.1 0.2 0.3-0.5zM23.3 21.5h-0.4l0.2 0.4 0.7 0.7c0.2 0.2 0.4 0.5 0.4 0.9 0 0.1-0.5 0.6-0.2 0.7l0.4-0.6v-0.7c-0.3-0.6-0.8-1-1.1-1.4zM23.8 22.7l-0.4-0.2v1.8l0.1 0.2 0.2 0.1v-1.9zM23.2 22.7v-0.3c-0.4 0-0.6 0.5-0.6 0.8l0.1 1c0.2 0.3 0.5 0.5 0.8 0.6l0.6 0.7c0.3-0.4-0.8-1-1-1.3-0.3-0.2-0.3-0.6-0.3-0.8l0.1-0.4 0.3-0.4zM23.2 25.1c0 0.1-0.3 0.1-0.3 0.3 0.2 0 0.3-0.1 0.4-0.3zM23.5 25h0.2s-0.2-0.2-0.3 0v1l0.2 0.2 0.2-0.3v-0.9zM23.5 21.7l0.3 0.2v-0.5h-0.3zM27.2 20.1c0-0.3 1-1.2 1.1-1.2h1zM30.6 19.1l-1 0.8-0.4 0.2z"></path>
        </symbol>

        <symbol id="medicines_sans_frontiers_icon" viewBox="0 0 91 32">
            <path stroke="none" d="M16.177 0.238c-0.639 0.389-1.152 0.929-1.501 1.572l-0.011 0.022c-0.272 0.674-0.545 1.791-0.545 2.335 0.108 0.796 0.427 1.502 0.898 2.077l-0.006-0.007c0.123 0.125 0.289 0.206 0.474 0.218l0.002 0h0.347c0.136 0.259 0.483 0.068 1.096-0.694 1.369-1.593 1.641-3.186 0.892-4.691-0.483-0.98-0.953-1.328-1.641-0.831zM25.348 4.385c-7.315 2.448-13.657 5.557-19.498 9.377l0.325-0.2c-1.096 0.763-2.056 1.654-1.709 1.654 0.272 0 0.477 0.477 0.477 0.892 0 0.347 0.272 0.477 0.422 0.286l0.613-0.565c0.483-0.259 0.681-0.327 0.817-0.259 0.211 0.129 0.422 0 1.368-0.477 5.821-3.227 11.949-5.821 18.294-7.741l0.694-0.218 0.061-0.545v-0.831l-0.347-0.831c-0.272-0.831-0.34-0.831-1.505-0.545zM28.773 8.095l-3.697 1.464c-3.486 1.396-7.333 2.969-7.333 3.118l0.422 0.415 0.681 0.613 0.681 0.831c0.402 0.456 0.79 0.919 1.164 1.396l0.613 0.742 1.709-1.028 4.528-2.485 2.805-1.525v-0.545c-0.136-0.892-1.096-3.030-1.369-2.969h-0.272l0.061-0.020zM31.108 14.182c-3.152 0.892-6.257 1.9-9.328 3.050l0.409 0.694c0.272 0.259 0.545 0.81 0.681 1.219l0.272 0.694 2.335-0.129h2.335l1.573-0.694c1.11-0.47 2.791-1.079 4.496-1.631l0.569-0.159c0.347-0.415 0-3.404-0.483-3.663-0.136 0-1.096 0.129-2.866 0.613h0.007zM10.696 16.123c-5.481 3.186-9.593 5.869-9.729 6.216-0.136 0.674 0.409 2.751 0.694 2.751l1.232-0.477 3.833-1.593-2.608 1.593c-3.425 2.158-3.969 2.574-4.099 2.9-0.143 0.694 0.545 2.485 1.157 2.9 0.061 0.15 0.681-0.197 2.88-1.375 1.505-0.831 3.622-2.070 4.793-2.614 1.505-0.763 1.913-1.11 1.988-1.246 0.293-1.246 0.654-2.465 1.096-3.663 0.772-2.562 1.471-4.53 2.244-6.461l-0.188 0.531 0.34-1.328-0.136-0.129-3.486 1.92v0.088zM17.001 19.983c-1.153 3.121-2.215 5.579-3.382 7.977l0.229-0.522c-0.272 0.633-0.545 0.892-0.545 0.545 0-0.129 0-0.129-0.136 0-0.211 0.218-0.892 0.286-0.756 0.15 0-0.129-0.483-0.415-0.756-0.286l-0.272-0.068c0-0.068-0.136-0.218-0.34-0.286-0.211-0.129-0.422-0.259-0.422-0.477l-0.061-0.259c-0.136 0-1.852 1.157-1.988 1.375-0.483 0.477 0.211 3.248 0.817 3.248l3.016-1.743 5.277-3.098 2.458-1.375-0.061-0.347c-0.272-1.723-0.953-3.663-1.852-4.712-0.817-1.089-0.817-1.089-1.232-0.129zM23.578 20.814l-0.974 4.167h0.409c0.483 0 0.409 0.218 0.817-1.852l0.211-1.049v2.968h0.817l0.545-1.437 0.694-1.396-0.347 1.464-0.34 1.375h0.409c0.477 0 0.334 0.259 0.953-2.485l0.272-1.654s-0.211-0.129-0.545-0.129h-0.545l-0.62 1.375-0.545 1.375v-2.751h-1.232l0.007 0.041zM27.615 21.161l-0.409 2.070-0.409 1.811h1.232c0.967 0 1.239 0 1.239-0.218l0.061-0.415c0-0.286 0-0.286-0.681-0.286s-0.681 0-0.681-0.197v-0.327c0-0.15 0.197-0.218 0.681-0.218 0.62 0 0.681 0 0.681-0.415l0.136-0.415h-0.62c-0.545 0-0.613-0.129-0.477-0.545 0.061-0.15 0.272-0.218 0.817-0.218 0.483 0 0.681 0 0.681-0.197l0.136-0.477 0.075-0.347h-2.397v0.347l-0.075 0.041zM30.557 20.943l-0.477 2.070-0.409 2.029h1.028c0.953 0 1.021 0 1.43-0.347 0.62-0.504 0.967-1.396 1.028-2.356 0.075-0.694 0-0.831-0.197-1.178-0.211-0.347-0.272-0.347-1.3-0.347-0.817 0-1.028 0-1.096 0.129h-0.007zM32.197 21.923v0.763c0 0.674-0.613 1.437-1.021 1.437l-0.34-0.068 0.197-1.246 0.272-1.028h0.347l0.538 0.129zM33.845 21.161l-0.402 2.070-0.408 1.811h1.232c0.892 0 1.239 0 1.239-0.218l0.061-0.415c0-0.286 0-0.286-0.681-0.286s-0.681 0-0.681-0.197v-0.327c0-0.15 0.211-0.218 0.681-0.218 0.681 0 0.681 0 0.756-0.545 0.061-0.286 0.061-0.286-0.483-0.286-0.613 0-0.681-0.068-0.545-0.545 0.075-0.15 0.211-0.218 0.817-0.218 0.694 0 0.694 0 0.817-0.613l0.075-0.415h-2.335v0.347l-0.143 0.041zM37.406 21.032c-0.885 0.545-1.505 1.92-1.368 2.968 0.211 0.763 0.953 1.246 1.852 1.089 0.408-0.041 0.483-0.129 0.545-0.545l0.136-0.477h-0.62c-0.681 0.129-0.885 0-0.885-0.694 0-1.089 0.681-1.791 1.505-1.634 0.408 0 0.483 0 0.545-0.347v-0.504c0-0.068-0.272-0.129-0.681-0.129s-0.681 0.068-1.096 0.286h0.061zM39.741 20.882l-0.408 1.872-0.483 2.070c0 0.129 0 0.218 0.408 0.218 0.483 0 0.483 0 0.62-0.504l0.681-3.663c0-0.129-0.749-0.129-0.817 0v0zM41.11 21.168l-0.408 2.070-0.408 1.811h0.408l0.408-0.088 0.272-1.375 0.272-1.246 0.347 1.375 0.272 1.328h1.096l0.422-2.029 0.408-2.070c0-0.129-0.136-0.197-0.347-0.129-0.408 0-0.408 0-0.62 0.892l-0.272 1.375-0.136 0.504-0.197-1.246c-0.347-1.654-0.272-1.593-0.892-1.593-0.483 0-0.545 0-0.62 0.347v0.068zM45.079 20.95c-0.681 0.504-0.681 1.178-0.197 2.158 0.347 0.545 0.408 0.674 0.272 0.892-0.136 0.129-0.272 0.129-0.681 0.068h-0.545v0.415l-0.075 0.477 0.681 0.129c1.028 0.15 1.641-0.477 1.511-1.505-0.054-0.238-0.143-0.477-0.272-0.694-0.347-0.545-0.422-0.831-0.272-1.028 0.197-0.218 0.545-0.286 0.817-0.068 0.136 0.068 0.197 0 0.272-0.347 0.061-0.347 0.061-0.415-0.075-0.565-0.34-0.197-1.096-0.129-1.368 0.068h-0.075zM49.546 20.882c-0.184 0.109-0.347 0.218-0.483 0.347-0.422 0.477-0.347 1.028 0.136 1.872 0.272 0.545 0.34 0.674 0.197 0.892-0.061 0.068-0.272 0.129-0.681 0.129-0.483 0-0.483 0-0.545 0.347l-0.075 0.477 0.681 0.129c1.368 0.15 2.056-0.96 1.239-2.267-0.408-0.694-0.408-1.028 0-1.089h0.477c0.211 0.129 0.272 0.129 0.347-0.286l0.075-0.504c-0.075-0.129-1.239-0.197-1.368-0.068z"></path>
            <path stroke="none" d="M51.316 22.897l-1.164 2.070h0.477c0.545 0 0.545 0 0.817-0.477 0.211-0.565 0.272-0.565 0.831-0.633h0.545v1.178h1.096l-0.061-0.613c-0.136-0.763-0.272-2.989-0.272-3.404 0-0.197-0.075-0.259-0.545-0.259h-0.545l-1.164 2.138zM52.82 22.897h-0.62l0.272-0.633 0.272-0.545v0.545c0.075 0.286 0.075 0.545 0 0.545l0.075 0.088zM54.877 21.154l-0.483 2.070-0.408 1.811h0.408l0.483-0.088 0.272-1.375 0.272-1.246 0.061 0.477 0.347 1.375 0.136 0.831h0.545c0.545 0 0.545 0 0.681-0.477l0.681-3.663c0-0.068-0.136-0.129-0.34-0.068h-0.422l-0.272 1.307-0.272 1.246-0.347-1.246-0.272-1.307h-0.477c-0.545 0-0.613 0-0.681 0.286l0.075 0.068zM58.975 20.895c-0.163 0.088-0.327 0.197-0.477 0.327-0.408 0.504-0.408 1.049 0.075 1.872 0.34 0.545 0.408 0.694 0.272 0.892-0.136 0.15-0.272 0.15-0.681 0.15-0.545-0.088-0.483-0.088-0.62 0.477v0.347l0.483 0.129c0.749 0.068 1.157 0 1.505-0.415 0.34-0.477 0.34-1.246 0-1.852-0.483-0.694-0.483-1.049-0.075-1.11h0.483c0.211 0.129 0.272 0.129 0.347-0.218 0.061-0.347 0-0.477 0-0.545-0.211-0.197-1.028-0.197-1.368-0.068h0.054zM62.618 20.963l-0.422 2.070-0.408 2.009h0.483l0.477-0.068 0.136-0.831 0.136-0.694h0.545c0.62 0 0.694-0.068 0.694-0.613l0.136-0.347h-0.545c-0.545 0.068-0.545 0.068-0.483-0.286 0-0.347 0-0.347 0.681-0.415 0.62 0 0.681 0 0.756-0.286 0.136-0.694 0.136-0.694-1.028-0.694-0.756 0-1.096 0-1.164 0.15h0.007zM65.348 20.895l-0.409 1.852-0.409 2.070c-0.075 0.15 0 0.218 0.334 0.218h0.483l0.211-1.049c0.061-0.545 0.197-0.96 0.272-0.96l0.136 0.694c0.136 1.307 0.136 1.307 0.681 1.307h0.483l-0.143-0.694c-0.197-1.049-0.197-1.089 0.143-1.307 0.477-0.286 0.817-1.375 0.545-1.872l-0.347-0.259c-0.347-0.129-1.913-0.129-2.056 0h0.075zM66.717 21.787c0.211 0.129 0.075 0.694-0.197 0.763-0.681 0.197-0.681 0.129-0.483-0.633 0.075-0.259 0.409-0.347 0.681-0.129zM69.059 21.025c-0.545 0.286-1.028 0.96-1.232 1.811-0.211 0.742-0.211 0.96 0 1.505 0.409 0.96 1.852 1.028 2.73 0.129 0.967-1.028 1.164-2.968 0.211-3.445-0.409-0.347-1.164-0.259-1.716 0zM70.087 21.719c0.136 0 0.197 0.259 0.272 0.477 0.197 0.831-0.409 1.92-1.096 1.92-0.347 0-0.545-0.197-0.545-0.742 0-1.049 0.681-1.94 1.368-1.654v0zM72 21.304l-0.409 2.070-0.34 1.654h0.409l0.409-0.068 0.272-1.396 0.272-1.246 0.211 0.919c0.409 1.981 0.272 1.791 0.885 1.791h0.545l0.483-2.070 0.409-2.070c0-0.088-0.197-0.129-0.409-0.088-0.347 0-0.347 0-0.545 0.919l-0.272 1.375-0.136 0.477-0.545-2.771h-1.096l-0.143 0.504zM75.5 21.086c-0.211 0.545-0.136 0.694 0.272 0.694h0.409l-0.347 1.375c-0.102 0.524-0.218 1.069-0.34 1.593 0 0.218 0 0.286 0.409 0.286 0.545 0 0.409 0.197 0.953-2.070l0.211-1.11h0.409c0.409-0.068 0.477-0.129 0.545-0.415l0.061-0.477c0.075-0.15-0.061-0.197-1.232-0.197h-1.3l-0.061 0.327zM78.441 21.154l-0.483 2.090-0.409 1.791h0.967l0.409-2.009 0.477-2.070c0-0.15-0.136-0.197-0.477-0.197-0.409 0-0.409 0-0.483 0.327v0.068zM79.537 22.808l-0.409 2.090c0 0.068 0.483 0.129 1.164 0.129h1.157l0.136-0.477 0.075-0.415h-1.511l0.075-0.347c0.136-0.347 0.197-0.415 0.681-0.415 0.613 0 0.681 0 0.681-0.545l0.136-0.347h-0.62c-0.545 0.068-0.613 0-0.477-0.415 0-0.286 0.136-0.286 0.749-0.286 0.694 0 0.694 0 0.817-0.347 0.211-0.674 0.211-0.674-1.096-0.674h-1.157l-0.409 2.049zM82.764 21.154l-0.409 2.090-0.409 1.791h0.477c0.409 0 0.409 0 0.545-0.545l0.211-1.11 0.136-0.545 0.272 2.206h0.545l0.483-0.068-0.136-0.919c-0.136-0.674-0.136-0.81 0-0.892l0.409-0.477c0.34-0.347 0.34-0.477 0.34-0.96 0-0.831-0.272-0.96-1.43-0.96-0.967 0-0.967 0-1.028 0.327v0.068zM84.133 21.719c0.211 0.068 0.211 0.613 0 0.763l-0.409 0.197h-0.409l0.136-0.415 0.061-0.545h0.62zM85.501 22.55l-0.409 2.138c-0.061 0.347-0.061 0.347 1.096 0.347h1.239l0.075-0.415 0.061-0.415h-0.681c-0.681-0.068-0.817-0.15-0.681-0.633 0.061-0.129 0.272-0.197 0.681-0.197 0.545 0 0.681 0 0.681-0.286 0.136-0.613 0.136-0.694-0.545-0.613-0.483 0.068-0.545 0-0.483-0.15v-0.477c0-0.129 0.211-0.129 0.817-0.129 0.694 0 0.756 0 0.817-0.286 0.143-0.674 0.143-0.674-1.096-0.674h-1.157l-0.422 1.791zM89.069 20.957c-0.422 0.259-0.694 0.892-0.545 1.307l0.334 0.831c0.483 0.694 0.409 0.96-0.347 0.96-0.545 0-0.545 0-0.681 0.347v0.504c0 0.197 1.096 0.259 1.511 0.129 0.817-0.347 0.953-1.246 0.409-2.288-0.272-0.477-0.347-0.674-0.272-0.831 0.136-0.259 0.545-0.347 0.817-0.129 0.197 0.068 0.197 0 0.272-0.347l-0.075-0.545c-0.197-0.218-1.157-0.129-1.43 0.068zM23.033 27.173c-0.202 0.252-0.426 0.473-0.672 0.667l-0.009 0.007c-0.477 0.218-0.545 0.286-0.409 0.504 0.075 0.129 0.211 0.129 0.62 0 0.136-0.15 0.136-0.068 0.136 0.068s-0.211 0.197-0.545 0.197c-0.347 0-0.409 0-0.483 0.286 0 0.347 0 0.347 0.409 0.347s0.409 0 0.347 0.286c0 0.259-0.075 0.347-0.409 0.347-0.272 0-0.409 0-0.483 0.259 0 0.218 0 0.218 2.669 0.218 2.335 0 2.744 0 2.744-0.218 0.075-0.259 0.075-0.259-0.347-0.259-0.272 0-0.334 0-0.272-0.218v-0.197l0.483-0.129c0.409 0 0.483 0 0.545-0.347 0-0.286 0-0.286-0.409-0.286-0.347 0-0.347 0-0.347-0.259 0-0.218 0.136-0.286 0.347-0.347 0.272 0 0.347-0.068 0.347-0.286s-0.075-0.218-1.852-0.218h-1.92l0.272-0.259c0.272-0.218 0.272-0.218 0-0.286h-0.347c-0.061-0.068-0.272 0-0.409 0.218v-0.088zM23.85 28.201l-0.061 0.286-0.272 0.129c-0.136 0.088-0.272 0-0.272-0.068 0-0.347 0.136-0.545 0.409-0.545 0.211 0 0.211 0 0.211 0.197h-0.007zM24.878 28.072c0 0.415-0.136 0.694-0.34 0.545-0.211 0-0.211-0.068-0.211-0.197v-0.347l0.347-0.129 0.197 0.068v0.068zM25.974 28.289c0 0.415-0.545 0.477-0.545 0.129s0.075-0.415 0.347-0.415c0.211 0 0.272 0 0.211 0.286h-0.007zM23.517 29.535c0 0.197-0.075 0.259-0.272 0.347-0.211 0-0.272 0-0.211-0.286 0-0.286 0.075-0.347 0.272-0.347 0.211 0 0.272 0 0.211 0.286zM24.681 29.467l-0.075 0.259-0.272 0.15c-0.136 0-0.272 0-0.272-0.15 0-0.259 0.211-0.477 0.409-0.477 0.211 0 0.272 0 0.211 0.218zM25.709 29.467c0 0.259-0.075 0.327-0.347 0.415-0.211 0-0.272 0-0.211-0.218l0.075-0.286 0.272-0.129c0.211 0 0.272 0 0.211 0.286v-0.068zM64.266 27.397c0 0.674-0.136 0.674-0.62 0.674s-0.545 0-0.272-0.347c0.211-0.197 0.136-0.327-0.211-0.327-0.272 0-0.34 0.041-0.477 0.327-0.325 0.537-0.712 0.997-1.157 1.39l-0.007 0.006c-0.211 0.129-0.211 0.129 0 0.259 0.272 0.286 0.272 0.286 0.817-0.259 0.408-0.504 0.483-0.504 1.096-0.504h0.62l-0.061 0.347-0.136 0.415s-0.408 0.15-0.892 0.15c-0.681 0-0.817 0.068-0.892 0.197 0 0.197 0.075 0.286 0.817 0.286l0.817 0.068-0.061 0.545-0.136 0.477h-1.164c-1.164 0-1.232 0-1.368 0.218v0.286h5.535v-0.286c0-0.286 0-0.286-1.096-0.218l-1.164-0.068c0-0.068 0-0.347 0.136-0.613l0.061-0.415h0.892c0.892 0 0.953 0 1.028-0.286 0-0.197 0-0.197-0.892-0.197h-0.953l0.061-0.415 0.136-0.415 1.164-0.088c0.96 0 1.028 0 1.028-0.259 0-0.218 0-0.218-1.028-0.218h-1.021v-0.347l0.136-0.477c0.075-0.129 0-0.197-0.34-0.197-0.409 0-0.409 0-0.409 0.327v-0.041zM44.677 27.397h-2.267l-0.197 0.96-0.211 1.028h0.545c0.483 0 0.545 0 0.347 0.15l-0.953 0.395c-0.694 0.218-0.694 0.286-0.545 0.504 0.129 0.197 0.129 0.197 0.817 0l0.681-0.286-0.075 0.415c-0.197 0.286-0.681 0.545-1.368 0.694-0.211 0.129-0.211 0.129-0.075 0.347 0.136 0.197 0.211 0.197 0.694 0 0.885-0.286 1.368-0.694 1.573-1.464 0-0.218 0-0.259-0.136-0.259-0.143 0-0.075-0.088 0.136-0.286 0.408-0.286 0.817-0.286 1.157 0 0.211 0.197 0.211 0.286 0.136 0.286-0.136 0-0.272 0.259-0.408 0.892l-0.197 0.96h0.408c0.34 0 0.408 0 0.408-0.286 0-0.129 0-0.477 0.136-0.763l0.075-0.545 0.681 0.286 0.545 0.259 0.197-0.259 0.272-0.286-0.545-0.218-0.817-0.395c-0.272-0.15-0.272-0.15 0.272-0.15h0.681v-0.477l0.272-1.049 0.075-0.545h-2.335l0.007 0.088zM44.194 27.942c0 0.129-0.136 0.197-0.681 0.197s-0.62 0-0.545-0.197c0-0.15 0.197-0.218 0.681-0.218 0.408 0 0.545 0 0.545 0.218zM46.243 27.942c0 0.129-0.197 0.197-0.681 0.197-0.681 0-0.817-0.068-0.681-0.259l0.681-0.15c0.483 0 0.681 0 0.681 0.218zM44.058 28.834c0 0.129-0.211 0.129-0.694 0.129-0.477 0-0.613 0-0.613-0.129 0-0.218 0.136-0.218 0.681-0.218s0.681 0 0.62 0.218zM46.107 28.834c-0.061 0-0.34 0.129-0.756 0.129-0.681 0-0.681 0-0.681-0.129 0.136-0.286 1.437-0.347 1.368 0h0.075zM51.792 28.289l-0.136 0.96h1.3c0.817 0 1.368 0 1.368-0.129l-0.136-0.15s-0.061 0 0-0.129c0-0.129-0.061-0.218-0.197-0.286h0.136c0.408-0.068 0.347-0.259-0.136-0.259-0.211 0-0.347-0.088-0.272-0.15l0.34-0.129 0.272-0.068c0-0.15-0.136-0.218-0.477-0.218h-0.545l0.681-0.068c0.483 0 0.62-0.068 0.62-0.218 0-0.197-0.211-0.197-1.3-0.197h-1.239l-0.197 1.049h-0.075zM52.759 27.854c-0.211 0.218-0.211 0.286-0.136 0.286 0.136 0 0.136 0 0 0.068-0.211 0.088-0.143 0.286 0.136 0.286 0.197 0 0.197 0 0 0.129-0.211 0.088-0.347 0.218-0.272 0.286l-0.143 0.068-0.061-0.129 0.136-0.694c0.061-0.415 0.136-0.545 0.347-0.545 0.197 0 0.197 0 0 0.286v-0.020zM53.236 28.14s-0.061 0.15-0.197 0.15c-0.211 0-0.211 0-0.075-0.15 0.211-0.197 0.272-0.197 0.272 0v0zM53.644 28.834c0.136 0.129 0.136 0.129-0.272 0.129-0.477 0-0.477 0-0.272-0.129 0.075-0.129 0.211-0.218 0.272-0.218l0.272 0.218z"></path>
            <path stroke="none" d="M55.149 27.391l-0.347 0.327c-0.197 0.129-0.272 0.286-0.197 0.286 0.136 0.068 0.136 0.129 0 0.129-0.211 0-0.136 0.286 0.197 0.477 0.272 0.15 0.272 0.218 0.211 0.286-0.129 0.068-0.272 0.088-0.408 0.068-0.136 0-0.211 0.088-0.211 0.15 0 0.129 0.211 0.197 0.347 0.129 0.681 0 1.505 0 1.777 0.129l-2.397 0.088c-2.533 0-2.73 0-2.73 0.197-0.075 0.218 0 0.218 0.946 0.218 1.028 0 1.028 0 0.272 0.041h-0.817l-0.136 0.565c-0.082 0.456-0.17 0.919-0.272 1.375 0 0 0.62 0 0.681-0.129 0-0.068 0.694-0.129 1.709-0.129 1.028 0 1.641 0 1.641 0.129l0.272 0.129c0.286 0 0.347 0 0.558-0.96l0.211-0.892h-0.892c-0.681-0.088-0.681-0.088 0.334-0.129 1.096 0 1.096 0 1.096-0.286v-0.504c0.075-0.068 0-0.129-0.272-0.129-0.477 0-0.545-0.129-0.129-0.347l0.272-0.286c0-0.068 0.061-0.197 0.272-0.327 0.136 0 0.272-0.218 0.272-0.286 0-0.15-0.347-0.286-0.408-0.15l-0.272 0.15c-0.136 0-0.136 0-0.136-0.218 0-0.259 0-0.259-0.694-0.259-0.477 0-0.749 0-0.749 0.129v0.020zM56.102 27.847c0 0.218 0 0.286-0.545 0.286h-0.545l0.272-0.197c0.34-0.347 0.681-0.415 0.817-0.088zM56.102 28.541c0 0.068-0.483 0.15-0.62 0h0.62zM54.189 29.917v0zM52.95 30.352c-0.11 0.081-0.248 0.129-0.398 0.129-0.004 0-0.008-0-0.011-0h0.001c-0.211 0-0.211 0 0 0.197 0.211 0.15 0.211 0.15 0 0.15-0.136 0-0.211 0-0.211-0.218 0-0.347 0-0.395 0.422-0.395 0.272 0 0.272 0 0.197 0.129zM54.182 30.482c0 0.197 0.136 0.286 0.545 0.286 0.694 0 0.967-0.218 0.694-0.415-0.136-0.088-0.136-0.129 0-0.129s0.197 0.041 0.197 0.259c0 0.286-0.061 0.286-1.368 0.347h-1.368l0.477-0.286c0.545-0.327 0.756-0.415 0.817-0.068zM55.149 30.352l-0.211 0.129c-0.061 0-0.136 0-0.136-0.129 0 0 0.075-0.129 0.211-0.129s0.197 0.041 0.136 0.129zM55.013 31.183v0zM31.66 29.46l-0.483 2.206h5.345l0.136-0.415 0.408-2.138 0.408-1.723h-5.413l-0.409 2.070zM35.629 27.847l0.061 0.286c0.136 0.068 0.075 0.15-0.136 0.15-0.197 0-0.272-0.088-0.197-0.218 0-0.129 0-0.218-0.272-0.218-0.211 0-0.347 0.088-0.347 0.218s-0.136 0.218-0.953 0.218c-0.756 0-0.953 0-1.028 0.129 0 0.197 0.075 0.197 0.953 0.197h0.967v0.694c0 0.694-0.136 1.049-0.347 1.049v-0.129c0-0.088-0.075-0.15-0.483 0h-1.096c-0.408 0-0.483 0-0.483 0.259s0 0.286 1.437 0.068h0.136c-0.197 0.068-0.136 0.286 0.075 0.347 0.136 0.068 0.34 0 0.545-0.129 0.347-0.218 0.347-0.218 0.545 0 0.272 0.327 0.681 0.259 0.892-0.15 0.211-0.259 0.211-0.347 0-0.395-0.075-0.088-0.136-0.088-0.272 0-0.075 0.197-0.136 0.197-0.211 0.129-0.061-0.129 0-0.286 0.272-0.694 0.422-0.545 0.422-0.613 0.211-0.694-0.211-0.129-0.272-0.068-0.483 0.218l-0.197 0.347v-0.919h0.545c0.483 0 0.545 0 0.62-0.129 0-0.129 0-0.197-0.143-0.286-0.129 0-0.129 0 0 0l-0.061-0.259c-0.211-0.15-0.211-0.218 0.136-0.218l0.347 0.129-0.545 2.771-0.143 0.477h-2.049c-1.852 0-1.988 0-1.913-0.197 0.252-0.98 0.483-1.961 0.681-2.968 0-0.088 0.545-0.15 1.505-0.15 1.096 0 1.505 0 1.437 0.068z"></path>
            <path stroke="none" d="M32.749 29.46l-0.136 0.545h0.817c0.756 0 0.817 0 0.817-0.347l0.143-0.545c0.061-0.218 0-0.218-0.694-0.218h-0.885l-0.075 0.565zM33.845 29.46c0 0.068-0.136 0.129-0.34 0.129-0.211 0-0.272 0-0.211-0.129 0-0.15 0.136-0.218 0.272-0.218s0.272 0.068 0.272 0.218zM21.658 30.965l-0.483 0.477 0.272 0.15c0.211 0.129 0.272 0.129 0.694-0.286 0.477-0.415 0.613-0.694 0.409-0.694l-0.272-0.068s-0.347 0.129-0.62 0.415zM24.538 30.55c-0.272 0-0.272 0.068-0.211 0.633 0.075 0.613 0.075 0.545 0.409 0.477 0.211-0.068 0.272-0.129 0.272-0.415 0-0.545-0.136-0.694-0.477-0.694zM25.77 30.618c-0.136 0-0.136 0.15 0 0.477 0.211 0.218 0.272 0.436 0.272 0.504s0.075 0.129 0.272 0c0.483-0.15 0.483-0.15 0.211-0.694-0.272-0.415-0.483-0.477-0.756-0.286zM23.040 30.836v0.477c-0.143 0.415-0.075 0.415 0.197 0.415 0.347 0 0.409-0.197 0.409-0.763 0-0.347 0-0.347-0.272-0.347-0.211 0-0.347 0-0.347 0.15l0.007 0.068z"></path>
        </symbol>

        <symbol id="razom_icon" viewBox="0 0 96 32">
            <path d="M73.6 11.44c-1.28 0.16-2.4 0.8-3.040 1.6-2 2.64-0.88 6.4 2.080 7.36 2 0.64 4.080 0.16 5.44-1.28 2.56-2.72 0.96-7.12-2.8-7.68-0.8-0.16-0.96-0.16-1.68 0zM75.6 13.84c0.831 0.389 1.396 1.219 1.396 2.18 0 0.726-0.323 1.378-0.833 1.818l-0.003 0.003c-1.6 1.36-4.24 0.32-4.16-1.84 0-0.96 0.64-1.92 1.6-2.32 0.48-0.16 1.44-0.080 2 0.16zM36.72 16v4.48h2.24v-1.68c0-1.92-0.16-2 1.28 0.24l0.96 1.44h1.36c1.12 0 1.36 0 1.36-0.16-1.096-1.448-1.935-2.516-2.788-3.572l0.228 0.292 0.48-0.48c0.8-0.32 1.12-0.8 1.28-1.6 0.16-1.36-0.32-2.4-1.36-2.96l-0.64-0.32h-4.32l-0.080 4.32zM40.48 13.76c0.24 0.24 0.32 0.4 0.32 0.8 0 0.64-0.4 0.96-1.2 0.96h-0.64v-2.080h0.56c0.48 0 0.64 0 0.96 0.32zM48.24 16l-1.68 4.4 1.2 0.080h1.2l0.24-0.8 0.24-0.72h3.36l0.24 0.8 0.24 0.72h2.4l-1.6-4.16-1.6-4.4-0.16-0.32h-2.4l-1.68 4.4zM51.2 17.12c-0.156 0.012-0.337 0.019-0.52 0.019s-0.364-0.007-0.544-0.020l0.024 0.001 0.8-2.64c0.16-0.24 0.24 0 0.64 1.2l0.48 1.44h-0.88zM59.12 12.56v1.040h1.68l1.76 0.080-1.84 2.96-2.080 3.44-0.32 0.48h7.6v-1.92h-3.52l1.92-3.36 2.080-3.44c0-0.080-0.48-0.16-3.6-0.16h-3.6l-0.080 0.88zM84.24 11.68l-1.44 8.48v0.32h2.24l0.32-2.4 0.4-2.4c0-0.24 0.96 1.92 1.84 4.24 0.16 0.56 0.24 0.56 0.64 0.56h0.48l0.96-2.4 1.12-2.56 0.4 2.4 0.4 2.56h1.12c1.12 0 1.12 0 1.12-0.24l-1.44-8.56h-2.32l-0.8 2.24-0.96 2.32-0.88-2.32-0.88-2.24h-2.32z"></path>
            <path d="M22.528 27.328v-4.56h-4v5.2h-14.48v-14.64h14.48v5.28h4v-9.2h-22.4v22.56h22.4v-4.64z"></path>
            <path d="M9.024 4.752v4.56h4v-5.2h14.48v14.64h-14.48v-5.28h-4v9.2h22.4v-22.56h-22.4v4.64z"></path>
        </symbol>

        <symbol id="action_against_hunger_icon" viewBox="0 0 53 32">
            <path d="M7.912 4.941c0.496-1.067 1.243-2.061 2.133-2.773 1.719 1.291 2.819 3.326 2.819 5.617 0 0.138-0.004 0.276-0.012 0.413l0.001-0.019c1.101-0.997 2.56-1.637 4.053-1.779 0.004 0.093 0.007 0.202 0.007 0.312 0 2.151-0.965 4.077-2.485 5.368l-0.010 0.008c-0.388 0.368-0.819 0.698-1.284 0.978l-0.034 0.019-1.883 1.315c-0.357 0.248-0.64 0.533-0.853 0.925-0.107 0.141-0.357 0.141-0.464 0-0.184-0.292-0.408-0.539-0.668-0.742l-0.006-0.005c-0.568-0.499-1.245-0.891-1.848-1.317-0.64-0.427-1.317-0.853-1.885-1.421-1.363-1.31-2.21-3.148-2.21-5.183 0-0.090 0.002-0.18 0.005-0.269l-0 0.013c1.493 0.141 2.917 0.781 4.053 1.779-0.035-1.104 0.144-2.24 0.605-3.237z"></path>
            <path d="M38.027 8c0.712-0.072 1.528 0.107 2.168 0.499 0.552 0.347 0.965 0.875 1.173 1.493 0.36 1.133 0.043 2.373-0.816 3.2-0.464 0.427-1.067 0.709-1.744 0.781-0.094 0.009-0.204 0.014-0.314 0.014-0.572 0-1.111-0.136-1.588-0.378l0.020 0.009c-0.557-0.281-0.999-0.723-1.273-1.264l-0.007-0.016c-0.206-0.411-0.326-0.895-0.326-1.407 0-0.245 0.028-0.484 0.080-0.713l-0.004 0.021c0.153-0.675 0.535-1.242 1.059-1.629l0.008-0.005c0.437-0.324 0.971-0.542 1.551-0.604l0.014-0.001zM38.133 9.421c-0.427 0.107-0.819 0.357-1.067 0.747-0.427 0.64-0.179 1.565 0.355 2.027 0.275 0.229 0.632 0.368 1.022 0.368 0.182 0 0.357-0.030 0.52-0.087l-0.011 0.003c0.62-0.242 1.052-0.834 1.052-1.527 0-0.152-0.021-0.299-0.060-0.439l0.003 0.011c-0.213-0.712-1.067-1.245-1.779-1.067zM25.688 8.533c0.571-0.355 1.211-0.533 1.885-0.461 0.355 0.035 0.712 0.141 1.067 0.283v1.779c-0.295-0.384-0.755-0.629-1.272-0.629-0.334 0-0.645 0.103-0.902 0.278l0.006-0.004c-0.712 0.496-0.819 1.563-0.285 2.24 0.355 0.461 1.032 0.64 1.6 0.496 0.32-0.107 0.605-0.283 0.819-0.568v1.779l-0.853 0.213c-0.784 0.141-1.565-0.107-2.205-0.533-0.461-0.313-0.818-0.749-1.025-1.261l-0.007-0.019c-0.213-0.581-0.248-1.213-0.107-1.813 0.179-0.712 0.64-1.387 1.28-1.779zM20.995 8.179h1.6l2.099 5.653h-1.565l-0.355-0.96h-1.992l-0.427 0.923h-1.563l2.133-5.616zM21.779 9.955l-0.605 1.779h1.208zM29.101 8.179h3.912v1.28h-1.28v4.373h-1.421v-4.411h-1.245v-1.243zM33.44 8.179h1.421v5.653h-1.421zM41.973 8.179h1.421l2.704 3.448v-3.448h1.456v5.616h-1.456l-2.667-3.448v3.448h-1.459zM24.621 15.395c0.499-0.355 1.173-0.533 1.813-0.496 0.499 0.035 0.997 0.213 1.387 0.533 0.251 0.213 0.464 0.496 0.605 0.816l-1.208 0.464c-0.072-0.213-0.213-0.427-0.427-0.571-0.171-0.115-0.381-0.183-0.608-0.183-0.287 0-0.549 0.11-0.745 0.29l0.001-0.001c-0.306 0.319-0.494 0.753-0.494 1.23 0 0.249 0.051 0.486 0.144 0.701l-0.004-0.012c0.107 0.285 0.32 0.571 0.603 0.712 0.158 0.067 0.341 0.107 0.533 0.107s0.376-0.039 0.542-0.11l-0.009 0.003c0.249-0.154 0.423-0.409 0.463-0.707l0.001-0.005h-1.032v-0.995h2.488c0 0.355 0 0.747-0.107 1.139-0.18 0.627-0.604 1.132-1.16 1.415l-0.013 0.006c-0.363 0.18-0.791 0.286-1.243 0.286-0.227 0-0.447-0.026-0.659-0.077l0.019 0.004c-0.651-0.135-1.192-0.524-1.525-1.057l-0.006-0.010c-0.223-0.4-0.355-0.877-0.355-1.385 0-0.227 0.026-0.449 0.076-0.661l-0.004 0.020c0.112-0.615 0.447-1.136 0.917-1.489l0.006-0.004zM41.048 15.539c0.278-0.352 0.697-0.582 1.17-0.605l0.004-0c0.039-0.002 0.086-0.003 0.132-0.003 0.565 0 1.095 0.146 1.556 0.403l-0.016-0.008-0.499 0.995c-0.236-0.211-0.545-0.343-0.886-0.355l-0.002-0c-0.196 0.039-0.36 0.156-0.46 0.317l-0.002 0.003c-0.037 0.141 0 0.283 0.141 0.355 0.248 0.213 0.568 0.248 0.853 0.355 0.355 0.107 0.712 0.285 0.888 0.605 0.179 0.32 0.179 0.712 0.144 1.067-0.054 0.396-0.265 0.735-0.567 0.957l-0.004 0.003c-0.461 0.355-1.067 0.461-1.635 0.355-0.483-0.053-0.947-0.227-1.352-0.496l0.571-1.067c0.243 0.256 0.557 0.443 0.91 0.531l0.013 0.003c0.213 0 0.464 0 0.64-0.144 0.144-0.107 0.179-0.355 0.072-0.496-0.083-0.133-0.208-0.232-0.355-0.285l-1.104-0.355c-0.261-0.148-0.446-0.404-0.495-0.706l-0.001-0.006c-0.028-0.118-0.044-0.254-0.044-0.394 0-0.385 0.122-0.742 0.33-1.033l-0.004 0.005zM20.675 15.075h1.424l1.776 4.837h-1.349l-0.32-0.853h-1.707c-0.107 0.283-0.179 0.568-0.357 0.816h-1.315l1.885-4.8zM20.853 18.099h1.032l-0.499-1.531zM30.312 15.040h1.387l1.776 4.835h-1.315l-0.32-0.853h-1.707l-0.355 0.819h-1.317zM30.488 18.061h1.032l-0.533-1.528zM33.688 15.040h1.245v4.835h-1.245zM35.467 15.040h1.245l2.275 2.952v-2.952h1.245v4.835h-1.245l-2.275-2.987v3.024h-1.28v-4.872zM44.32 15.040h3.307v1.067h-1.032v3.768h-1.28v-3.768h-0.995zM35.608 21.512c0.461-0.336 1.039-0.537 1.664-0.537 0.053 0 0.105 0.001 0.157 0.004l-0.007-0c0.571 0 1.139 0.141 1.6 0.461 0.307 0.255 0.55 0.576 0.706 0.944l0.006 0.016-1.245 0.533c-0.107-0.213-0.248-0.461-0.461-0.605-0.32-0.213-0.712-0.248-1.067-0.141-0.317 0.129-0.567 0.367-0.709 0.667l-0.003 0.008c-0.189 0.4-0.24 0.851-0.141 1.28 0.064 0.375 0.257 0.696 0.531 0.923l0.002 0.002c0.212 0.173 0.486 0.278 0.785 0.278 0.207 0 0.403-0.051 0.574-0.14l-0.007 0.003c0.283-0.141 0.427-0.427 0.461-0.709l-1.067-0.037v-1.067h2.632c0 0.571-0.037 1.173-0.285 1.672-0.251 0.549-0.705 0.969-1.265 1.169l-0.015 0.005c-0.322 0.13-0.696 0.205-1.088 0.205-0.27 0-0.532-0.036-0.781-0.103l0.021 0.005c-0.625-0.15-1.146-0.521-1.488-1.023l-0.006-0.009c-0.279-0.449-0.444-0.994-0.444-1.577 0-0.197 0.019-0.389 0.055-0.576l-0.003 0.019c0.086-0.659 0.411-1.23 0.884-1.632l0.004-0.003zM19.005 21.085h1.315v2.027h1.92v-1.992h1.352v5.155h-1.352v-2.133h-1.885v2.133h-1.315v-5.189zM24.125 21.085h1.315v2.843c0 0.32 0 0.712 0.248 0.997 0.179 0.213 0.464 0.283 0.747 0.283 0.251 0 0.464-0.141 0.605-0.355 0.179-0.213 0.179-0.499 0.213-0.781v-2.987h1.28v3.2c0 0.496-0.072 1.067-0.427 1.421-0.461 0.533-1.173 0.712-1.848 0.675-0.64 0-1.352-0.213-1.779-0.709-0.355-0.427-0.392-0.997-0.392-1.531v-3.056zM29.101 21.085h1.352l2.419 3.163v-3.163h1.349v5.155h-1.349l-2.419-3.128v3.128h-1.352zM40.48 21.085h2.88v1.136h-1.565v0.891h1.493v1.136h-1.493v0.891h1.565v1.136h-2.915v-5.189zM43.859 21.085h1.989c0.014-0 0.032-0.001 0.049-0.001 0.417 0 0.805 0.119 1.134 0.326l-0.009-0.005c0.282 0.174 0.488 0.449 0.569 0.773l0.002 0.009c0.115 0.429 0.064 0.885-0.144 1.28-0.187 0.35-0.519 0.601-0.915 0.673l-0.008 0.001 1.6 2.099h-1.672l-1.245-1.955v1.955h-1.349zM45.208 22.152v1.243c0.251 0 0.533 0 0.784-0.141 0.32-0.179 0.355-0.64 0.107-0.888-0.213-0.251-0.571-0.251-0.891-0.251z"></path>
            <path d="M9.475 16.995c0.182-0.020 0.393-0.031 0.607-0.031 2.464 0 4.576 1.51 5.459 3.656l0.014 0.039c0.273 0.66 0.432 1.427 0.432 2.23 0 2.245-1.238 4.2-3.068 5.221l-0.030 0.016c-0.815 0.448-1.785 0.711-2.818 0.711-3.278 0-5.936-2.658-5.936-5.936 0-3.069 2.328-5.593 5.315-5.904l0.026-0.002zM10.008 19.059c-0.069 0-0.069 0.069-0.141 0.141l-0.499 0.499c-0.568 0.427-1.173 0.781-1.669 1.315-0.912 1.040-1.040 2.552-0.32 3.733 0.575 0.909 1.575 1.504 2.713 1.504 1.079 0 2.034-0.534 2.613-1.353l0.007-0.010c0.736-1.12 0.693-2.584-0.107-3.661-0.357-0.499-0.853-0.853-1.352-1.173-0.355-0.285-0.747-0.533-1.032-0.925 0-0.069-0.141-0.107-0.213-0.069z"></path>
        </symbol>         

        <symbol id="world_vision_icon" viewBox="0 0 128 32">
            <path d="M85.235 0.179c0.096 0.32 0.506 0.262 0.762 0.301 4.407 0.667 8.348 1.709 12.106 3.123l-0.407-0.134c11.111 4.182 20.392 11.073 27.343 19.887l0.101 0.132c0.608 0.781 1.21 1.574 1.792 2.381 0.262 0.384 0.531 0.947 0.909 1.19v-26.88h-42.605z"></path>
            <path d="M118.214 1.958c0 0.909-0.058 2.106-0.512 2.906-0.877 1.555-3.072 1.6-4.634 1.6v0.058c1.242 0 3.168 0.019 4.115 0.96 0.486 0.48 0.57 1.293 0.659 1.946 0.237 1.664 0.371 3.43 0.371 5.114h0.051c0.038-1.696 0.166-3.488 0.422-5.165 0.096-0.64 0.173-1.472 0.659-1.946 0.896-0.87 2.899-0.909 4.064-0.909v-0.051c-1.504-0.013-3.917-0.102-4.659-1.702-0.41-0.89-0.16-1.958-0.538-2.81z"></path>
            <path d="M40.678 18.189v7.194h2.566v-14.374h-2.566v7.181zM52.378 13.856c0 1.574-0.019 2.861-0.038 2.861-0.439-0.306-0.952-0.544-1.503-0.684l-0.033-0.007c-0.384-0.102-0.824-0.161-1.278-0.161-1.058 0-2.043 0.318-2.862 0.864l0.019-0.012c-1.344 0.896-1.971 2.208-1.971 4.102 0 0.742 0.019 0.896 0.154 1.344 0.135 0.507 0.348 0.951 0.629 1.344l-0.008-0.012c0.899 1.275 2.365 2.097 4.024 2.097 0.17 0 0.337-0.009 0.502-0.025l-0.021 0.002c0.822-0.099 1.56-0.396 2.184-0.842l-0.014 0.010c0.173-0.122 0.333-0.218 0.352-0.218 0.026 0 0.032 0.192 0.032 0.429v0.435h2.4v-14.374h-2.566v2.848zM50.957 17.005c0.384 0.115 0.768 0.346 1.178 0.678l0.243 0.192v5.651l-0.269 0.237c-0.442 0.365-0.98 0.632-1.569 0.757l-0.024 0.004c-1.293 0.192-2.394-0.704-2.829-2.31-0.085-0.421-0.133-0.906-0.133-1.402s0.048-0.98 0.141-1.449l-0.008 0.047c0.326-1.216 1.088-2.157 1.965-2.432 0.358-0.115 0.896-0.102 1.306 0.026zM74.387 11.808c-0.551 0.2-0.937 0.718-0.937 1.327 0 0.215 0.048 0.419 0.135 0.602l-0.004-0.009c0.208 0.453 0.657 0.762 1.179 0.762 0.013 0 0.026-0 0.039-0.001l-0.002 0c1.050 0 1.664-1.050 1.203-2.016-0.239-0.434-0.693-0.724-1.216-0.724-0.142 0-0.278 0.021-0.407 0.061l0.010-0.003zM87.002 11.814c-0.282 0.083-0.64 0.403-0.781 0.704-0.081 0.184-0.128 0.398-0.128 0.623 0 0.231 0.049 0.45 0.138 0.648l-0.004-0.010c0.282 0.531 0.915 0.826 1.504 0.691 0.787-0.179 1.216-0.96 0.992-1.792-0.115-0.329-0.342-0.595-0.633-0.758l-0.007-0.004c-0.275-0.141-0.781-0.192-1.088-0.102h0.006zM60.73 12.89l2.733 6.298 2.688 6.189h1.152l2.675-6.24 2.701-6.291c0.013-0.032-0.275-0.058-0.685-0.058h-0.704l-1.888 4.422c-1.792 4.218-1.882 4.416-1.952 4.256l-1.856-4.403-1.786-4.243-1.555-0.019c-1.472-0.013-1.555 0-1.523 0.090zM4.096 12.864l4.602 12.493 1.427 0.032 1.478-3.84c0.813-2.112 1.491-3.834 1.517-3.821 0.013 0.013 0.685 1.741 1.478 3.84l1.459 3.814h1.427l2.298-6.227c1.261-3.424 2.291-6.246 2.291-6.272 0-0.019-0.314-0.038-0.691-0.038h-0.704l-1.6 4.333c-0.95 2.732-1.5 4.166-2.067 5.591l0.442-1.258c-0.013 0-0.666-1.683-1.453-3.75l-1.421-3.757h-1.491l-1.421 3.731c-0.787 2.048-1.44 3.738-1.466 3.75-0.019 0.019-0.166-0.333-0.32-0.768l-1.536-4.326-1.248-3.546h-1.498c-0.826 0-1.498 0.006-1.498 0.013l-0.006 0.006zM36.813 15.936c-0.461 0.134-0.858 0.358-1.203 0.691l-0.314 0.294 0.090-0.896h-2.528v9.357h2.573l0.006-3.821 0.019-3.827 0.243-0.179c0.218-0.147 0.301-0.173 0.634-0.173 0.48 0 0.8 0.154 1.664 0.819l0.634 0.48 0.077-0.186 0.512-1.165c-0.023 0.095 0.121-0.232 0.263-0.56l0.166-0.432c0-0.032-0.64-0.256-0.941-0.346-0.33-0.077-0.709-0.121-1.098-0.121-0.281 0-0.557 0.023-0.826 0.067l0.029-0.004zM106.643 15.936c-0.525 0.109-1.216 0.384-1.709 0.698-0.134 0.092-0.288 0.177-0.449 0.249l-0.018 0.007c-0.032 0-0.051-0.192-0.051-0.429v-0.435h-2.342v9.357h2.566v-7.558l0.307-0.23c1.35-1.024 2.778-0.909 3.597 0.294 0.133 0.212 0.256 0.457 0.355 0.713l0.010 0.029 0.154 0.429 0.038 6.323h2.56v-2.848c0-1.658-0.019-2.995-0.058-3.219-0.138-0.94-0.572-1.759-1.203-2.38l-0.001-0c-0.782-0.67-1.805-1.077-2.924-1.077-0.297 0-0.587 0.029-0.868 0.084l0.028-0.005h0.006zM25.229 15.994c-1.829 0.286-3.289 1.602-3.781 3.327l-0.008 0.033c-0.092 0.318-0.145 0.684-0.145 1.062 0 0.101 0.004 0.202 0.011 0.301l-0.001-0.013c0 1.050 0.064 1.382 0.448 2.17 0.439 0.91 1.154 1.63 2.035 2.062l0.026 0.011c0.649 0.33 1.415 0.526 2.225 0.531h0.002c2.534 0.115 4.48-1.19 5.12-3.424 0.115-0.384 0.128-0.589 0.128-1.35 0-1.037-0.064-1.357-0.454-2.163-0.611-1.235-1.725-2.143-3.066-2.464l-0.031-0.006c-0.576-0.147-1.914-0.192-2.509-0.077zM27.162 17.018c0.346 0.173 0.704 0.57 0.928 1.018 0.704 1.408 0.704 3.923 0.006 5.325-0.467 0.941-1.274 1.389-2.176 1.197-1.114-0.237-1.728-1.267-1.907-3.168-0.077-0.794-0.006-1.779 0.166-2.49 0.224-0.883 0.704-1.6 1.254-1.888 0.254-0.117 0.551-0.186 0.864-0.186s0.61 0.069 0.877 0.191l-0.013-0.005v0.006zM80.179 15.994c-0.594 0.101-1.124 0.311-1.591 0.612l0.017-0.010c-0.446 0.282-0.797 0.678-1.017 1.148l-0.007 0.017c-0.179 0.358-0.186 0.403-0.186 1.069s0.006 0.704 0.192 1.075c0.211 0.448 0.691 0.928 1.229 1.235 0.302 0.157 0.709 0.342 1.124 0.511l0.111 0.040c1.114 0.448 1.459 0.627 1.728 0.896 0.403 0.397 0.486 0.832 0.237 1.331-0.326 0.672-1.235 0.89-2.259 0.544-0.6-0.221-1.107-0.572-1.507-1.020l-0.003-0.004-0.467-0.467-0.352 0.787-0.384 0.858c-0.038 0.096 0.678 0.448 1.376 0.685 0.631 0.228 1.358 0.36 2.117 0.36 0.546 0 1.076-0.068 1.582-0.197l-0.044 0.010c0.659-0.198 0.992-0.384 1.44-0.8 0.634-0.602 0.896-1.331 0.864-2.349-0.019-0.461-0.051-0.608-0.173-0.877-0.403-0.832-1.024-1.254-2.893-1.997-0.518-0.198-1.075-0.435-1.222-0.525-0.314-0.173-0.653-0.518-0.704-0.736-0.090-0.371 0.179-0.845 0.602-1.062 0.896-0.467 2.022-0.192 3.117 0.742 0.179 0.16 0.352 0.275 0.378 0.25 0.019-0.026 0.186-0.365 0.358-0.762 0.237-0.538 0.301-0.73 0.25-0.768-0.141-0.083-1.107-0.39-1.613-0.506-0.678-0.154-1.754-0.192-2.298-0.090zM94.4 15.968c-2.314 0.31-4.079 2.272-4.079 4.646 0 0.133 0.006 0.265 0.016 0.396l-0.001-0.017c0.128 2.317 1.664 4.013 3.994 4.429 0.71 0.128 1.888 0.077 2.522-0.096 2.042-0.519 3.528-2.341 3.528-4.51 0-0.048-0.001-0.096-0.002-0.143l0 0.007c0.001-0.034 0.001-0.073 0.001-0.113 0-2.175-1.507-3.999-3.535-4.482l-0.031-0.006c-0.538-0.141-1.856-0.192-2.413-0.109zM96.256 17.043c0.896 0.493 1.427 1.856 1.427 3.661 0 2.368-0.877 3.872-2.272 3.891-0.55 0-0.922-0.141-1.318-0.512-0.768-0.717-1.082-1.875-1.018-3.712 0.038-1.005 0.128-1.485 0.384-2.125 0.218-0.512 0.672-1.050 1.062-1.242 0.518-0.256 1.229-0.243 1.728 0.038h0.006zM73.203 20.704v4.678h2.566v-9.357h-2.566v4.678zM86.042 20.704v4.678h2.566v-9.357h-2.566v4.678z"></path>
        </symbol>

        <symbol id="sergiy_prytula_icon" viewBox="0 0 204 32">
            <path d="M46.465 6.666c-0.676 0.338-1.285 0.473-1.894 0.473-2.029 0-3.111-1.353-3.111-3.179s1.285-3.314 3.179-3.314c0.676 0 1.285 0.203 1.623 0.338v0.947c-0.473-0.271-0.947-0.406-1.623-0.406-1.353 0-2.164 1.082-2.164 2.435s0.812 2.367 2.164 2.367c0.609 0 1.082-0.203 1.488-0.473l0.271 0.812zM48.020 0.782h1.014v2.638h3.179v-2.705h1.014v6.358h-1.014v-2.908h-3.179v2.841h-1.014zM56.948 0.715h0.744l2.502 6.358h-1.082l-0.609-1.623h-2.3l-0.676 1.623h-1.014zM58.165 4.637l-0.541-1.488-0.338-1.014-0.338 1.014-0.541 1.488zM61.547 0.782h1.556c0.676 0 1.015 0 1.353 0.203 0.676 0.338 0.879 0.879 0.879 1.488 0 0.879-0.473 1.42-1.217 1.691 0.203 0.135 0.406 0.473 0.744 1.014l1.082 1.894h-1.15l-0.947-1.691-0.676-0.879h-0.676v2.57h-0.947zM63.035 3.691c0.338 0 0.609 0 0.812-0.203 0.271-0.135 0.473-0.473 0.473-0.879 0-0.338-0.135-0.676-0.406-0.812-0.203-0.135-0.473-0.271-0.812-0.271h-0.541v2.164h0.473zM67.431 0.782h1.014v6.29h-1.014zM71.692 1.594h-1.894v-0.879h4.87l-0.338 0.879h-1.691v5.411h-1.014zM77.306 4.57l-2.232-3.855h1.15l1.488 2.908 1.556-2.908h1.082l-2.097 3.855v2.502h-1.014zM84.272 0.782h3.382l-0.338 0.812h-2.029v1.826h2.029v0.744h-2.029v2.841h-1.014zM88.871 3.893c0-1.894 1.353-3.246 3.179-3.246s3.111 1.353 3.111 3.246-1.353 3.246-3.111 3.246c-1.826 0-3.179-1.285-3.179-3.246zM94.079 3.893c0-1.353-0.744-2.367-2.029-2.367-1.353 0-2.097 0.879-2.097 2.367s0.812 2.435 2.029 2.435c1.353 0 2.097-0.947 2.097-2.435zM97.055 5.855c-0.135-0.271-0.203-0.676-0.203-1.15v-3.923h1.014v3.923c0 0.338 0 0.676 0.135 0.879 0.203 0.473 0.676 0.812 1.353 0.812s1.15-0.338 1.353-0.812c0.135-0.271 0.203-0.541 0.203-0.879v-3.99h1.014v4.058c0 0.406-0.135 0.812-0.271 1.15-0.338 0.812-1.15 1.217-2.3 1.217s-1.961-0.406-2.3-1.285zM108.418 7.072l-2.841-3.788-0.744-1.014v4.802h-1.014v-6.358h1.014l2.705 3.585 0.812 1.082v-4.599h0.947v6.358zM111.326 0.782h1.826c2.232 0 3.382 1.217 3.382 3.044 0 1.894-1.285 3.246-3.517 3.246h-1.691zM113.084 6.193c1.758 0 2.367-1.082 2.367-2.3 0-1.353-0.744-2.3-2.435-2.3h-0.676v4.599zM119.983 0.715h0.812l2.502 6.358h-1.082l-0.676-1.623h-2.3l-0.676 1.623h-1.014l2.435-6.358zM121.268 4.637l-0.541-1.488-0.338-1.014-0.338 1.014-0.541 1.488zM125.8 1.594h-1.826v-0.879h4.802l-0.271 0.879h-1.758v5.411h-0.947zM129.993 0.782h1.014v6.29h-1.014zM132.698 3.893c0-1.894 1.353-3.246 3.179-3.246s3.111 1.353 3.111 3.246-1.353 3.246-3.111 3.246c-1.826 0-3.179-1.285-3.179-3.246zM137.974 3.893c0-1.353-0.812-2.367-2.097-2.367-1.353 0-2.029 0.879-2.029 2.367s0.744 2.435 2.029 2.435c1.217 0 2.029-0.947 2.029-2.435zM145.346 7.072l-2.841-3.788-0.812-1.014v4.802h-0.947v-6.358h0.947l2.705 3.585 0.812 1.082v-4.599h1.014v6.358zM41.866 28.918c0.676 0.541 1.826 1.015 3.111 1.015 1.488 0 2.705-0.541 2.705-2.164 0-3.246-6.222-2.841-6.222-7.169 0-2.097 1.556-3.788 4.329-3.788 1.353 0 2.57 0.338 3.314 0.676v1.759c-1.014-0.473-2.097-0.812-3.246-0.812s-2.367 0.541-2.367 1.961c0 3.044 6.29 2.705 6.29 7.237 0 2.502-2.029 3.99-4.734 3.99-1.691 0-3.044-0.541-4.058-1.15l0.879-1.556zM53.296 16.947h7.304l-0.609 1.623h-4.734v4.599h4.734v1.691h-4.734v4.87h5.411v1.623h-7.372zM64.050 16.947h3.246c0.128-0.010 0.278-0.015 0.429-0.015 1.030 0 2 0.256 2.851 0.707l-0.033-0.016c1.285 0.676 1.826 2.029 1.826 3.314 0 2.029-1.082 3.246-2.908 3.788 0.473 0.271 1.014 1.082 1.758 2.367l2.57 4.261h-2.3l-2.367-3.99c-0.676-1.217-1.217-1.894-1.623-2.029h-1.488v6.087h-1.961zM67.296 23.778c0.744 0 1.353-0.135 1.894-0.473 0.676-0.338 1.15-1.15 1.15-2.164 0-0.879-0.338-1.556-0.947-2.029-0.54-0.382-1.212-0.61-1.937-0.61-0.032 0-0.064 0-0.096 0.001l0.005-0h-1.353v5.275zM76.697 16.947h1.894v6.155h7.575v-6.222h1.961v14.406h-1.961v-6.561h-7.575v6.561h-1.894zM92.862 16.947h1.961v14.406h-2.029zM118.36 16.947h2.976c1.42 0 2.435 0.203 3.179 0.676 1.353 0.676 2.164 2.029 2.164 3.923 0 1.691-0.676 3.246-2.502 4.058-0.744 0.338-1.691 0.541-2.976 0.541h-0.879v5.208h-1.894zM121.336 24.522c0.879 0 1.488-0.135 1.961-0.338 0.947-0.473 1.353-1.353 1.353-2.638 0-1.15-0.406-2.029-1.285-2.57-0.473-0.271-1.15-0.473-2.029-0.473h-1.014v6.087h1.014zM129.858 16.947h3.246c0.11-0.007 0.239-0.011 0.369-0.011 1.027 0 1.995 0.254 2.843 0.703l-0.033-0.016c1.353 0.676 1.826 2.029 1.826 3.314 0 2.029-1.082 3.246-2.841 3.788 0.406 0.271 0.947 1.082 1.691 2.367l2.57 4.261h-2.232l-2.367-3.99c-0.676-1.217-1.217-1.894-1.691-2.029h-1.488v6.087h-1.894zM133.104 23.778c0.676 0 1.353-0.135 1.826-0.473 0.676-0.338 1.217-1.15 1.217-2.164 0-0.879-0.338-1.556-0.947-2.029-0.541-0.383-1.214-0.612-1.941-0.612-0.055 0-0.109 0.001-0.164 0.004l0.008-0h-1.353v5.275zM145.008 25.604l-4.734-8.657h2.029l3.788 6.831 3.585-6.831h2.097l-4.734 8.725v5.681h-1.961zM102.669 25.604l-4.734-8.657h2.029l3.72 6.831 3.585-6.831h2.164l-4.802 8.725v5.681h-1.961zM157.926 18.57h-4.126v-1.556h10.686l-0.676 1.623h-3.923v12.851h-1.961zM167.462 28.58c-0.271-0.676-0.406-1.488-0.406-2.435v-9.198h1.961v9.063c0 0.676 0 1.353 0.271 1.961 0.541 1.285 1.623 1.961 3.314 1.961s2.773-0.676 3.314-2.029c0.203-0.473 0.271-1.15 0.271-2.029v-8.86h2.029v9.198c0 0.947-0.203 1.826-0.473 2.502-0.812 1.961-2.57 2.976-5.14 2.976s-4.396-1.082-5.14-2.976zM182.409 16.947h1.961v12.783h5.275v1.623h-7.237zM197.221 16.879h1.42l5.614 14.474h-2.097l-1.42-3.788h-5.614l-1.353 3.788h-2.029zM200.13 26.010l-1.353-3.788-0.812-2.435-0.879 2.435-1.353 3.788zM14.203 0.106v26.783h4.87v-21.778h7.575v9.198h4.937v-14.203z"></path>
            <path d="M26.648 26.889v4.937h4.937v-12.58h-4.937z"></path>
            <path d="M26.648 14.309h-7.575v4.937h12.512v-4.937zM4.937 26.889v-7.643h9.266v-4.937h-14.203v17.585h26.648v-4.937z"></path>
        </symbol>       
       
         <!--  -->
        <symbol id="trash_bucket_icon" viewBox="0 0 32 32">
            <path fill="none" style="stroke: var(--color1, #fff)" stroke-linejoin="round" stroke-linecap="round" stroke-miterlimit="4" stroke-width="2.6667" d="M12 4h8M4 8h24M25.333 8l-0.935 14.026c-0.14 2.104-0.21 3.156-0.665 3.954-0.4 0.702-1.004 1.267-1.731 1.62-0.826 0.4-1.881 0.4-3.99 0.4h-4.025c-2.109 0-3.163 0-3.99-0.4-0.727-0.353-1.331-0.917-1.731-1.62-0.455-0.798-0.525-1.85-0.665-3.954l-0.935-14.026M13.333 14v6.667M18.667 14v6.667"></path>
        </symbol>

  </defs>

</svg>



