<svg xmlns="http://www.w3.org/2000/svg" width="146" height="32"><path d="M43 11.3h7.4v10.5H43V11.3zM13 15.7c0 1.6-.9 2.2-2.8 2.2s-2.8-.7-2.8-2.2v-4.4H0V16c0 4.4 2.6 6 10.1 6s10-1.6 10-6v-4.7H13v4.4zm38.2-.5h6.2v6.6h7.3v-6.6h6v-4H51.2v4zM35 16.8l-5.7-5.5h-8v10.5h7.1v-5.4l5.8 5.4h8V11.3H35v5.5zm92.4-3.3c0-2.9-2.7-4.2-8.4-4.2-6.2 0-8.8 1.5-8.8 5.2h5.7c0-1.3 1-1.7 2.9-1.7 1.8 0 2.4.3 2.4.7 0 .7-.2.7-4.9 1.7-5 1.1-6.7 3.4-6.7 5.5v1.1H127v-3.4h-10.2c.6-.5 2.4-.7 6.2-1.4 2.6-.4 4.4-1.3 4.4-3.5zm-55.8 8.3H88v-3.1h-9.7v-1h6.9v-2.4h-6.9v-.9h9.7v-3.1H71.5v10.5zm74.3-5.6v3.5h-2.6v2.1h-6v-2h-9.7v-3.6l7-6.5h8.7v6.5h2.6zm-8.5-3.5-3.8 3.5h3.8v-3.5zm-27.5 3.9c0 3.5-2.4 5.2-7.3 5.2H89V11.3h13.5c4.9 0 7.3 1.7 7.3 5.3zm-7.2 0c0-1.2-.7-1.8-2.2-1.8h-4.2v3.5h4.2c1.5 0 2.2-.6 2.2-1.7z"/></svg>