<svg xmlns="http://www.w3.org/2000/svg" width="128" height="32"><path fill="#f3912d" d="M85.2.2c.1.3.5.2.8.3a59 59 0 0 1 12.1 3.1l-.4-.1A62.7 62.7 0 0 1 125 23.4h.1L127 26c.3.4.6 1 1 1.2V0H85.1z"/><path fill="#fffefe" d="M118.2 2c0 .9 0 2-.5 2.9-.9 1.5-3 1.6-4.6 1.6 1.2 0 3.1 0 4 1 .6.5.7 1.3.7 2 .3 1.6.4 3.4.4 5 .1-1.7.2-3.4.5-5.1 0-.7.2-1.5.6-2 1-.8 3-.9 4.1-.9-1.5 0-4-.1-4.7-1.7-.4-1-.1-2-.5-2.8z"/><path d="M40.7 18.2v7.2h2.5V11h-2.5v7.2zm11.7-4.3v2.8l-1.6-.7a5.1 5.1 0 0 0-4.1.7c-1.4 1-2 2.2-2 4.1 0 .8 0 1 .2 1.4.1.5.3 1 .6 1.3a5 5 0 0 0 4.5 2c.8 0 1.6-.3 2.2-.8l.3-.2v.9H55V11h-2.5V14zM51 17l1.1.7.3.2v5.6l-.3.3c-.4.3-1 .6-1.6.7-1.3.2-2.4-.7-2.8-2.3a7.2 7.2 0 0 1 0-2.8c.3-1.2 1-2.1 2-2.4H51zm23.4-5.2a1.4 1.4 0 0 0-.8 2c.2.4.6.7 1.2.7 1 0 1.7-1 1.2-2a1.4 1.4 0 0 0-1.6-.7zm12.6 0c-.3.1-.6.4-.8.7a1.6 1.6 0 0 0 0 1.3c.3.5 1 .8 1.5.7.8-.2 1.2-1 1-1.8 0-.4-.3-.6-.6-.8-.3-.1-.8-.2-1.1 0zm-26.3 1 2.8 6.4 2.7 6.2h1.1L70 19l2.7-6.3h-1.4l-1.9 4.4c-1.8 4.2-1.9 4.4-2 4.3L65.6 17l-1.8-4.3h-3.1zm-56.6 0 4.6 12.6h1.4l1.5-3.9 1.5-3.8 1.5 3.9 1.5 3.8h1.4l2.3-6.2 2.3-6.3h-1.4L19 17.1l-2 5.6.4-1.3-1.5-3.7-1.4-3.8H13l-1.4 3.7-1.5 3.8-.3-.8-1.6-4.3-1.2-3.6h-3zM36.8 16l-1.2.7-.3.3V16H33v9.4h2.5V17.7l.3-.1c.2-.2.3-.2.6-.2.5 0 .8.1 1.7.8l.6.5.1-.2.5-1.2.3-.5.1-.5-.9-.3a5 5 0 0 0-2 0h.1zm69.8 0-1.7.7-.4.3V16H102v9.4h2.5v-7.6l.3-.2c1.4-1 2.8-1 3.6.3l.4.7.2.5v6.3h2.6v-2.9l-.1-3.2c-.1-1-.6-1.7-1.2-2.4a4.5 4.5 0 0 0-3.8-1zm-81.4 0a4.7 4.7 0 0 0-3.8 3.4 3.9 3.9 0 0 0 0 1.4c0 1 0 1.4.4 2.2.4.9 1.1 1.6 2 2a5 5 0 0 0 2.2.6c2.6 0 4.5-1.2 5.2-3.4v-1.4c0-1 0-1.4-.4-2.2a4.6 4.6 0 0 0-3-2.4 8 8 0 0 0-2.6-.1zm2 1.1c.3.2.7.6.9 1a7 7 0 0 1 0 5.4c-.5.9-1.3 1.4-2.2 1.2-1-.3-1.7-1.3-1.9-3.2 0-.8 0-1.8.2-2.5.2-.9.7-1.6 1.2-1.9a2 2 0 0 1 1.8 0zm53-1c-.6 0-1.1.3-1.6.6-.4.3-.8.7-1 1.1-.2.4-.2.5-.2 1.1s0 .7.2 1.1c.2.5.7 1 1.2 1.2l1.1.6h.2c1 .4 1.4.6 1.7.9.4.4.5.8.2 1.3-.3.7-1.2 1-2.2.6-.6-.3-1.2-.6-1.6-1l-.4-.5-.4.8-.4.8c0 .1.7.5 1.4.7a6.3 6.3 0 0 0 3.7.2c.6-.2 1-.4 1.4-.8.6-.6 1-1.4.9-2.4 0-.4 0-.6-.2-.9-.4-.8-1-1.2-2.9-2l-1.2-.5c-.3-.1-.7-.5-.7-.7-.1-.4.2-.9.6-1 .9-.5 2-.3 3.1.7l.4.2a10.7 10.7 0 0 0 .6-1.5 7 7 0 0 0-4-.6zm14.2 0a4.7 4.7 0 0 0-4 5c0 2.3 1.6 4 4 4.4a7 7 0 0 0 2.5 0 4.7 4.7 0 0 0 3.5-4.7v-.1c0-2.2-1.5-4-3.6-4.5-.5-.2-1.8-.2-2.4-.1zm1.9 1c.9.5 1.4 1.9 1.4 3.7 0 2.4-.9 3.9-2.3 3.9-.5 0-1-.1-1.3-.5-.8-.7-1-1.9-1-3.7 0-1 .1-1.5.4-2.2.2-.5.6-1 1-1.2a2 2 0 0 1 1.7 0zm-23.1 3.7v4.7h2.6V16h-2.6v4.7zm12.8 0v4.7h2.6V16H86v4.7z"/></svg>